<mxfile host="Electron" agent="Mozilla/5.0 (X11; Linux x86_64) AppleWebKit/537.36 (KHTML, like Gecko) draw.io/24.7.8 Chrome/128.0.6613.36 Electron/32.0.1 Safari/537.36" version="24.7.8">
  <diagram name="Page-1" id="XS0ME-KDfHkIy7FRjaVp">
    <mxGraphModel dx="1221" dy="836" grid="1" gridSize="10" guides="1" tooltips="1" connect="1" arrows="1" fold="1" page="1" pageScale="1" pageWidth="850" pageHeight="1100" math="0" shadow="0">
      <root>
        <mxCell id="0" />
        <mxCell id="1" parent="0" />
        <mxCell id="7rwIcCHh1IAPN4iYdqem-4" value="Player season stats (tabular)" style="rounded=0;whiteSpace=wrap;html=1;" parent="1" vertex="1">
          <mxGeometry x="60" y="125" width="90" height="30" as="geometry" />
        </mxCell>
        <mxCell id="7rwIcCHh1IAPN4iYdqem-5" value="Line season stats (tabular)" style="rounded=0;whiteSpace=wrap;html=1;" parent="1" vertex="1">
          <mxGeometry x="540" y="315" width="90" height="30" as="geometry" />
        </mxCell>
        <mxCell id="7rwIcCHh1IAPN4iYdqem-22" style="edgeStyle=orthogonalEdgeStyle;rounded=0;orthogonalLoop=1;jettySize=auto;html=1;exitX=0;exitY=0;exitDx=35;exitDy=15;exitPerimeter=0;entryX=0;entryY=0.5;entryDx=0;entryDy=0;" parent="1" source="7rwIcCHh1IAPN4iYdqem-16" target="7rwIcCHh1IAPN4iYdqem-21" edge="1">
          <mxGeometry relative="1" as="geometry" />
        </mxCell>
        <mxCell id="7rwIcCHh1IAPN4iYdqem-16" value="load_data_lstm" style="shape=mxgraph.bpmn.data;labelPosition=center;verticalLabelPosition=bottom;align=center;verticalAlign=top;size=15;html=1;bpmnTransferType=input;" parent="1" vertex="1">
          <mxGeometry x="210" y="120" width="35" height="40" as="geometry" />
        </mxCell>
        <mxCell id="7rwIcCHh1IAPN4iYdqem-17" style="edgeStyle=orthogonalEdgeStyle;rounded=0;orthogonalLoop=1;jettySize=auto;html=1;exitX=1;exitY=0.5;exitDx=0;exitDy=0;entryX=0;entryY=0.5;entryDx=0;entryDy=0;entryPerimeter=0;" parent="1" source="7rwIcCHh1IAPN4iYdqem-4" target="7rwIcCHh1IAPN4iYdqem-16" edge="1">
          <mxGeometry relative="1" as="geometry" />
        </mxCell>
        <mxCell id="7rwIcCHh1IAPN4iYdqem-25" style="edgeStyle=orthogonalEdgeStyle;rounded=0;orthogonalLoop=1;jettySize=auto;html=1;exitX=1;exitY=0.5;exitDx=0;exitDy=0;entryX=0;entryY=0.5;entryDx=0;entryDy=0;entryPerimeter=0;" parent="1" source="7rwIcCHh1IAPN4iYdqem-21" target="7rwIcCHh1IAPN4iYdqem-10" edge="1">
          <mxGeometry relative="1" as="geometry" />
        </mxCell>
        <mxCell id="7rwIcCHh1IAPN4iYdqem-31" value="" style="group" parent="1" vertex="1" connectable="0">
          <mxGeometry x="470" y="85" width="60" height="70" as="geometry" />
        </mxCell>
        <mxCell id="7rwIcCHh1IAPN4iYdqem-26" value="" style="shape=image;verticalLabelPosition=bottom;labelBackgroundColor=default;verticalAlign=top;aspect=fixed;imageAspect=0;image=https://colab.research.google.com/img/colab_favicon_256px.png;" parent="7rwIcCHh1IAPN4iYdqem-31" vertex="1">
          <mxGeometry width="60" height="60" as="geometry" />
        </mxCell>
        <mxCell id="7rwIcCHh1IAPN4iYdqem-10" value="train_lstm" style="shape=mxgraph.bpmn.data;labelPosition=center;verticalLabelPosition=bottom;align=center;verticalAlign=top;size=15;html=1;bpmnTransferType=input;" parent="7rwIcCHh1IAPN4iYdqem-31" vertex="1">
          <mxGeometry y="30" width="35" height="40" as="geometry" />
        </mxCell>
        <mxCell id="7rwIcCHh1IAPN4iYdqem-35" value="" style="group" parent="1" vertex="1" connectable="0">
          <mxGeometry x="290" y="100" width="123" height="50" as="geometry" />
        </mxCell>
        <mxCell id="7rwIcCHh1IAPN4iYdqem-23" value="" style="dashed=0;outlineConnect=0;html=1;align=center;labelPosition=center;verticalLabelPosition=bottom;verticalAlign=top;shape=mxgraph.weblogos.google_drive" parent="7rwIcCHh1IAPN4iYdqem-35" vertex="1">
          <mxGeometry x="73" width="50" height="40" as="geometry" />
        </mxCell>
        <mxCell id="7rwIcCHh1IAPN4iYdqem-21" value="data_lstm (json)" style="rounded=0;whiteSpace=wrap;html=1;" parent="7rwIcCHh1IAPN4iYdqem-35" vertex="1">
          <mxGeometry y="20" width="100" height="30" as="geometry" />
        </mxCell>
        <mxCell id="7rwIcCHh1IAPN4iYdqem-37" style="edgeStyle=orthogonalEdgeStyle;rounded=0;orthogonalLoop=1;jettySize=auto;html=1;exitX=0;exitY=0;exitDx=35;exitDy=15;exitPerimeter=0;entryX=0.5;entryY=0;entryDx=0;entryDy=0;fillColor=#dae8fc;strokeColor=#6c8ebf;gradientColor=#7ea6e0;strokeWidth=4;" parent="1" source="7rwIcCHh1IAPN4iYdqem-10" edge="1">
          <mxGeometry relative="1" as="geometry">
            <mxPoint x="636" y="200" as="targetPoint" />
          </mxGeometry>
        </mxCell>
        <mxCell id="2HPoQdIpM-jfSS1lZp4g-8" style="edgeStyle=orthogonalEdgeStyle;rounded=0;orthogonalLoop=1;jettySize=auto;html=1;exitX=1;exitY=0.5;exitDx=0;exitDy=0;entryX=0;entryY=0.5;entryDx=0;entryDy=0;" parent="1" source="7rwIcCHh1IAPN4iYdqem-38" target="2HPoQdIpM-jfSS1lZp4g-4" edge="1">
          <mxGeometry relative="1" as="geometry" />
        </mxCell>
        <mxCell id="7rwIcCHh1IAPN4iYdqem-38" value="NHL" style="shape=image;verticalLabelPosition=bottom;labelBackgroundColor=default;verticalAlign=top;aspect=fixed;imageAspect=0;image=data:image/png,iVBORw0KGgoAAAANSUhEUgAAAgAAAAIACAYAAAD0eNT6AAAABHNCSVQICAgIfAhkiAAAIABJREFUeF7snQecVsX198/cp2xje0U6KEpRLGjsvUVB1KhREyWJSorJ3xKN5k0ikhg1JtEUE8WOGk00GhVjFDUGsQsiKgqINFFYtsHusvV57rznLqCwPLtPu2Xund/9fJZd7p1yzvfM88y5M3NmBDl8VT8mq0SUDidJ47iqPaSk0UJQKf8u4d8DrOr571b+eyP/buLfS/nWEv5ZLLtpXu3XxAaHRUTxIJA1gSlTpw+XRCuzLijdAiStfur+GcPTzWZH+sOOu2gVf16H2VFWOmUIYYyY+9zMVenkQVoQ8IJA9W+XV5lxcbgkMU5I2oNlGM3fE6X8uSkhKXr6PxKylfu+jYKoibj/47+XCDIWG+HYvNord3W0/ws7AaXmKXN/KcU5rNBxXP447vz5zy0XK95zbfu99e9S/m1BGcG/992SgtOESdY8KRczsDkM7+H1p4r5257hNwiAAAiAAAioRqD8+k/2NwxxDnd7x5kxOY47uy3d3ba+b5vAX/aKVt9n9YE9/d+WxJLMmCErbly5WEg5xzTMhxuu2tX2/s82B6DsGVkUjclp3PF/h5UYs30Hn7GBRI/jMJ7/Gc9/XV79lPxQkLy32xQzG04VLRmXi4wgAAIgAAIgYBOBsunLikJ54Wn8svsd7vDHWMX29O/ZdIRbHAfu+8R4Q4Yur7xxxYdc4r2m6JzZcNUYW/q/rB2Awc/Ksu5OuoS66UcsqOXJOHZx0WOZ6G/Dgv5f9ZPyTzkh+uOaSaLJsQpRMAiAAAiAAAj0QaDo92vKcrrjl/BE9o+4byr9cqy7jwxZ3Rbc/9FvDZnz/ypvWPmnLjL+uOmnw7Lq/4yM5eFX/ZrZ8vzuTrmEO/1rtg5hZFxcOhmtuvhnemecllc9IS+h6TJzPdKpGGlBAARAAARAgPu/yhtWnB/tjlvr1a7p6fxdu3ocjelRii+vuGFFVv1fRh1n5ZNy15rZ9AoPd8ziUYpK1/TuVRE7AWWGQX+o3o9ernxcjvJKDtQLAiAAAiCgB4HK6z/elefmX+ER71k8Ku1Z/8f1l3H/+4eKvJUvV960OqP+L20HYOBseZoh6G029cGqmJuNcEgoLBdWPyHPVkUmyAECIAACIBAsAlU3rDyNROht7ngV6v/EIRQ3F7JTknb/l7oDwMPsvAjvFg5ReJw73BL1zCoKhUEP89qA32NKQD3rQCIQAAEQ8C0B7v94yP8WKehxfvNWr/8TVMj98sMsY1r9X0oOwNhHZLRmP3qQK7hUdQPytMDlNfvSAzRTRlSXFfKBAAiAAAgoTmD6B9HKvJUPcsevfP/HMl7OsnL/Nz+l/i+pA2B1/g059C820TmKm+lL8QSdWzOQZYYT4BuTQVAQAAEQUI5AT+efz/2f8E//R+LcyqYy7v+SOwH9OwC80pE7/zv5rfok5QyTXKCT2QmYhemA5KCQAgRAAARAoBcB7v8q8gru5M7fh/2fOJmdgKT9X78OQPVsupk7//N93DDOqd6XfuNj+SE6CIAACICABwQqb1x5M097+7j/E+dU5K7qt//r0wHgLXjP9MOcf7J2wQ7MFVVPSh8N3yTTCM9BAARAAAScJMCL6c70xZx/EghW/1dx/co++7+EDkBPTL0gHvoIxsVhi7dVPS1HBkMbaAECIAACIOAUgZ6YeiEC0/9xdNxtVTesTtj/7ewA8LxHKEz3M9xipwB7UG6xiNN9fOwgD2rgAgEQAAEQAIEEBLiPkPF44Po/PlooYf+3kwNQNVtewFiU2eQggYkyusVDIYfVPOXn+ZyM1EYmEAABEACBFAlU3LjiApU2+UlR7OTJuP+r/M3KndYz7OAAWAf78LG7NyQvzacphLxp2L+keps4+BQnxAYBEACBoBCwDvYhMgLb//Hgxk3Ft6zcof/b4TTA7i66lL2fiqAYdGc9RFXF0peaJkydvvMj3ElIQErZGJJdo5944MaGhAlwEwRAQDkCh578/VLR3b2MT1QP8Pe5vdjrlr1M9SMOsbdQhUrjUfCqSIf8Pxbpl9vE+mIEoOwZWcSH+/xQIXkdEaV21wMpHs5xpOwgFsoOYZkpoj8Pom7QCQSCSoA7/+no/FO3rhmKUtOQ/VLP4NOUvAjukvLffFS4TfwvHIBoTE5jD8HFIw29IRiL5lHdyH29qdyvtQr64eTzfz7Or+JDbhDQicDBJ3xnd/6i/4FOOmer68ZB+/CLYW62xaif3zpBUOZetE3QL9cASDFVfentkbBuOByA9EiKsBDGjenlQWoQAAEvCIRN4/e8e11Ke8F7IZ+KdW4cuJeKYjkik6Cehf49V48DUPOUuT/H/Y/fdjPov9sLK6mtZGDQ1bRZPzFpynm/OMHmQlEcCICAjQQOPXbaMRzDfrKNRQa+qPbCgdRZUBl4Pb9UUIytuGHlPtb/exwAXh3Y505BQaVSP2TPoKrmmF6mYdwybdo0vFk4RhgFg0DmBM4888yQMMxbMi9Bz5zNNVrObp5rWbvHARBCHq+b6ZurRuqmctb68rzimPWdNdOyLggFgAAI2E5g/aaS7/PCP7zZpEm2tWxEmjmCkFwea2lhVD8mq0iKsUFQKR0d2oqrKZaTn04WpGUCUtIvTz3v6nLAAAEQUIeAFfbHn07EN6dpkng0n7ry9YuU5Je5CQN/t6TCEFE6nOf/9dsil0MeWsqHpdlckBxhgWgDIKAeAYT9ZWaTtpKh1hB4Zpn9nIu/yGOxnMMNaeqz+K+3vdqLqnrfwv9TIYCwwFQoIQ0IuEIAYX+ZY9Zr8d+OnCTJcQY7P7tnjs/fOdsLMZKdmQURFpgZN+QCAfsJIOwvc6ad+fr2Abzt/+4Gz+nuljk+f+fsgAOQhQERFpgFPGQFAVsIIOwvO4xd+YHf+65vQEKMtqIA9FsBsRVJjBeA4MqcAMICM2eHnCCQLQGE/WVLkCge0bcP4HNeKiwH4It9gbPH6a8ScCZAdvZCWGB2/JAbBLIhgLC/bOhtyWudAaDvJQoNXv8/QFcA8YjOxrfH6ggLtIcjSgGBdAgg7C8dWn2nNcNa9wHsAOACgSwIICwwC3jICgIZEkDYX4bgkG0HAgYfAdyqK5NQd5euqturN8IC7eWJ0kCgHwII++sHTpqPjJjWfUCLNQLQkiazwCQPxToDo4u3iiAs0Fv+qF0nAgj7s8/aRlxnB0D2OAD19uH0V0nhrjZ/Cay0tGLS5KnTT1RaRAgHAj4ngLA/ew0Y6ta3D+Dp23prI6Bl9iL1T2m5LQ3+EdYfkt6M0wL9YShI6T8CW8L+5B/8J7m6Eue0NaornMOSSaKl1gjAUofrUbb4vFZtBz8csQnCAh3BikJBoIfAlrA/fbdud6IZRDR2APhktx4H4AMnwPqhzLzmOj+I6SsZERboK3NBWJ8QQNifM4bKbdW3D+A9ABYbspvmcSQAjwbodQlWubB+tV5Ku6AtwgJdgIwqtCOAsD9nTJ6/aU3PGef6XdIMRTrnGbVfExtY+cW6AcjbuJ7CnfouAHHU3ggLdBQvCteLAML+nLN3iBeC57RpORW8aN0Ve9T3bATE/s/zziFWs+TiDSvUFCwQUiEsMBBmhBJKEEDYn7NmKGhc6WwFCpYuSbxgidXjAPCxgA8pKKOjIpV/+r6j5aNwhAWiDYBAtgQQ9pctweT5i2r1WwYnjC19fo8DsP5UMZ+HAbShkNdSR/k8BYDLcQIIC3QcMSoIKgGE/blj2bzm9ZSzWafFgPLDup+MeNei2+MA9FxCzvri74D/UbnqnYBrqIZ6CAtUww6Qwp8EEPbnnt1K1r3nXmUe18TD/3dvE+ELB6DbFDN5MWSTx7I5Xn24q50qV8ABcBz01goQFugWadQTJAII+3PXmiWfLaRQrMPdSr2oTcpGKTru3Fb1Fw5Aw6nCOhPgz17I5GadNR+/wYbGGQBuMUdYoFukUU+QCCDsz11rWmcClK2d726lHtQmBf2h4aoxX5z/E95ehpwQ/aEzLr/PX9qVHsjmQpWy9pNRR+0+/6dHb3KhMs+rOGXqNRfz3M6tnguyJSzwrtn3X6dduKnn7CGA7wj0hP1J+oESgku6+OXn7/yrErI4LETxDT8vjZC5lKcuA9n/cbRfbZzkn7bH+OUaAL67ZpJoIimudpizl8Vf2XSW0KLztyDntH10Ow/BKxDugLBALxs96vYXAWXC/qT8UHTtcoe/6GUu7aafDuP+jwLb/wkhr2y6etQO/d8ODoCFrnYK3cuewquZY1QzJ+v08vrJ4kE1pXNGqkcffTTOyzwvdab0dEtFWGC6xJBePwIqhf3xy8Plc+fOiOlkhfqrh3P/JwPX/7ENX+aV/zv1fzs5AMRughmjqZwhMG/K3PlvlAZ929JNp8Zs6Tr7vhn/5a2enlZEb4QFKmIIiKEeAZXC/rgTnD3vhbueU4+SwxJxHyGMUKD6P97qeKOQRsL+b2cHgPnWnS4+IUEXOozateK5279gwySh7dZ/Mi4u4w90l2vA+6gIYYF9gMFtEGAC6oT9ye64MK/U1Sh1Pxn2CZEZmP6PX3wv2PDTYQn7v4QOgGV4Hi7/Jw8B3RyARnDT+ini8QDokbEKsx+csZydICUW8iAsMGMzImOACSgW9nfra8/do+0x8VYzq7t61D/5zdn3/R9/395Ud/WIPvu/Ph0AC0LtKXQF/7rPt5873uJ4/QL6qW/lt1FwjuyYwVMBnp96gbBAG42KogJDQJmwP0mNXSSvCwzYLBThjvMKHjm9L4siPM4qH6rvGN5v/9evA2DNma9fR9PYi3jGY00yqf7p9evpWzRDmJlkDlqeJ2fN2Mg6XauEXjgtUAkzQAg1CCh22t8v3phzd6MaZDyWgvu/+tLGafzi5L/+T9LTdaWNSfu//h0Ai/93RXdtEU3hv+7x2BwpV88r/R5kx+V0S/aUM2mQEGGBGhgZKvqOgCphf/y9+ZFOYX8pNZTvTuyua1/N/Z/0Vf9XV9bA/d/EpP1fcgfAonSUiK2fTBfySMDvUoLmVSIer+Gqb6qdTOej89/ZCFZYoBTmZTs/8eIOwgK9oI461SKgUtgfmfIy3cL+UmoNM46K1V01wgf9n+SLbqq/ajj3f8k7f0v31BwAKyUPh9ROEVfySu7TuBL1zgyQ1My9/9nrTxFX6Rjul1JD5kRPz/rViwgLTJUW0oGAcwQQ9uccW9tLtqYDfjriSiHoNP7+VK//I+7/BJ3NMqbV/6XuAGwluu4U8YQM0UR2AubZDjnDArnjf5l/9mYH5ZEMi9AqG8ICtTI3lFWUAML+FDVMP2JtuGrEE0KGJvJYszL9H4v7shESe9dfPTLt/i9tB8BiY8XUc4TAEbxXAG+YIDf0w8vRR+yENHJ423d5yP9I7vxXOlpZgApHWGCAjAlVfEkAYX++NFuP0FZMfd3Vw4/gMMGp3Ad51v9x/Y085v/duquGH1l75fCM+r+MHIAeClaEwGRxf05c7M7/m251xm6ZlN/2G9gDu6ark0aumyLuwJB/+uQRFpg+M+QAAbsIIOzPLpIelcP9X91PR97fnUu7cyc83eqM3ZKEl7o18M81MSFH1v90ZFb9X+YOwFZtV58mNvK8+y/NThrGt37MIwLOnfgm6QOu43Kzg4bz5j6/0ulgH7sbF8IC7SaK8kAgNQII+0uNkx9SbbpsxEbuhH9JHW3D+MX0x+wMONb/cfkf8Iv25aK9bTgP9/+q98E+mfDa4TjgTArYlqfuLNHKf1s7J928yxNyn7igc3nB4HE8TbAn38vU0TAZ6HuCxPNGiB76fJJ4NxsZkXdHAlZYYEfe2O/ywhbLRh5eX5wWONlDIVA1CLhCoCfsT4iIK5X1Uwl3KB8ZGp321w+KrB/VzRj/Rf9XccPKfbjAc7nvO06Q5O9WkWH/J7n/o/e4rTzPJTxU/5MRtvd/tjkA2xP8/FSxkP9v/dDAp2QFK3E4wxjLw/ZjpJCjed6+TJIo4XsDevJJamVQG3kVYyMfR7yUO6Ql/LPYWmixforh+e512+sWpL+tsMBJU39xmSDjBe/12hIWOHvWjGe9lwUSgIAzBLaE/cmTnSk9zVIR9pcmsNSS80r8L/u/3y2piMVyDucX2bHcp43h/m0094Fl3Ady/ye29n+ylfs+PrBH8DSCXMqO2RKDxOJQpGveuiv2cLT/45d0XLoTOGXqNbPZS53kNQfrjWRgzroJd9xxR9INLLyWtXf9U6ZOH87yr+x93+7/h8NhGlCQxz/5VMC/y4qL6i6cevo1/EEu5/rLub5y6292ngvZwS7YWj9/0cieN052vEut35wmyr8KGlv5Ts99dtP5MgT1HP/K9yR/KfX8bUjq5hudfK+F723i9SON/FP3/Jz/nly3ob6ooaGB6jY00PraDdTR3mFlcfQSwhgx97mZqxytxIHCrbA/Xvn/LnMc70DxaRXJ9p49b85dp6SVCYkDR8CREYDAUQq4QlZYIIXk8TzVYnUKnl38xThmfWcNb71Jf/FMCI8rDoVCVFZSRJWVpVRSVEglxYVUWV665YfvVZRZLw5Wl/3FVcl/3Wb9b4e7O/zny6c73eZHPT0/l2r9a0r6cmha9jgJ1LOX9pZEVdafWy5JRxx11Jf/3e5+LNZNba2baeOmJtrU1Ez19fW0euWntOj9xdTS3JIgjx63EPanh539pGWi7wM/yQ9ZbSJwyvnX3MJ9wKU2FZdxMTxU1hiSXaOfeODGhowL8SBjuiMAOdEo7TKwkoYMqqHBg6pocE0VVVeV93T4vTp4R7WxRgBcvaRJnR0d1NjYSGs/XUsfLl5C7y76IC3HwI8jAFbYH6/8X8ZOdoWrvBNWJm95ec5dlyd8hJtaEcAIgFbm7ltZKyyQhwW/yW+Cnn5B9ZwWSNGfs6SKbFncN7NUn1RWlNHQQdXc0VfToIFV/HcNVVaUutrRpyqr4+l4NVNOXj4NHGT9DKb9DzzQ2kyE5xvi1NrSQnW1tbRixWpaxE7BRx8G50RapcL+BE77c7yd+6QCjAD4xFBuiMlrAS5mB+BWN+rqvw4Zk9Lce/b91zkWUtN//ek/3TYCEAoZNHiXGho9aijtOnII7bHbcCocsG0qPv1ync7h+ghAWgpJ6mxvo7VrP6P32CF46aV51La5jR0nf60BsML+wtJ4nz9bnq/856mci19+/s6/pmUGJA4sAYwABNa06SuGsMD0mdXXyyLKoQMaGjZNquWFcLtxxx+J4GOVPslEOQSPFhTQqN1G9/ycfsbp1B3rorAhnsnNuf3ZONEdIyrFkkQ5VbqHsD+VrAFZtieAEQC0hx0IcFjgMYYSYYE9686+qlpYIK9RiNS30qHCpBNZvhN56dxefm5Cao8AJCdrGLKdIxcWRULGw0Y53TVIiLbkudxLYYX9sYwKhNny58mUJ8574a7n3NMeNalOAA6A6hbyQD6EBe4IfX2LrA6bdAJ3+JN4qT1v7sExvAG5/O4AbG8G68uMO9vGkDDm5oboppoK8YaXZkLYn5f0UXcqBDBWmQolzdLoHhbIb/lGXQsdwtt3ncJ/f5U37RhnxdjBW1b7g2DFM8RNURYneVpXnE5bvi7eETboPcMQs4ZUiDt4gWnPvgZuXQj7c4s06smUAL7TMiUX8Hw6hgU2tMhxpkln8jkf53F3PzLgJu5RL0gjAP3Zi20aD4fog5AQd7AzcDs7Az3bGzh1IezPKbIo104CGe5RbKcIKEtFAvFY1y951tDRbShT0bsnLFD0hAU6clmdft0meW19s1zOe+F9wHP603Xp/B0BqmihvK1hqDsmJnR001+WrzO7Vm6Iv7umzvyBNdrjhMgqhf1F4jm/dkJHlOl/AhgB8L8NHdMgqGGBVqfP+9Gcx9vansUfgBGOAfRBwbqMAPRlCkPIbp4mmB+KGL8eUib+3Ve6dO4j7C8dWkjrJQFHvF8vFULd9hGwwgL5rZjjl72+vjgtMGNBVkqZyx3/mXWbzOd5mP99ntC/SvfOP2OYAcpoShHpiouD2jvk08vXxzev3CAfWL5ObrflcfrK9oT9KRDzz2siPhI47S99A2qUAyMAGhk7E1X9HhbIQ/vWKZTn89v+RdzYyzJhEOQ8uo8AJLatlNEQn8hmGNcNrRQPJU6T+C7C/hJzwV01CcABUNMuSknlt7DAujpZyJvznGN1/Dynf4hSMBUTBg5A/wbhsMK2sDCeyzHpxwMHipX9pUbYX3908ExFApgCUNEqislkhQXyOQFdXovF3uq20wITirJ+oxxZ1yz/KHLoc047E51/Qky4mQYB0xT5XXF5Wqs0P1mxIb5wzQZ5eF/ZEfbXFxncV5UARgBUtYxicqkcFrihydzXCIlLeb3COdzpY2+LNNoORgDSgLU1aTgkayNSTB9SY8zclhthf+lzRA7vCWAEwHsb+EIC1cICezbr2SQnW4v6uPNfwBDPQ+fvi6bkeyFjcVHdbtLt1qLB1XVyJrfFKML+fG9WLRUIaak1lE6bwMfvv9Kx+95H8D7r4qS0M9uYIRKN0BGH7HfAiOEjv80n732f9wnQYsMeGxHuUFS75xM7TmnmfLm8t0AkbtJ+GzfLqwcNGnjgko+WiK6ubucr7r+GK/73wu0v958ET0FgCwFMAaAlpEzAWuTUkTd2Ib9p75lyJpsShnkbt0O+sjdN+eqRVFJcaFOpKAZTAHa2AUlLFn9If/3rXT3HFrt9WWF/Rucue82dO8PVLY/d1hP12UcADoB9LLUoye2wwFAoRF/ZbzxNOelIqiwv1YKxm0rCAXCANu8y9f6i92jmzHupo73DgQoSF4nT/hJzwd2+CcAB6JsNnvRBYPL505/mUYCT+3hsy20e2qeJe4+lr00+hqoqEb5vC9QEhcABSADFpluSHYEFb82nu++eRd1dDr+US3r65efvnGyT6ChGEwJYMa2JoW1V06RLZUjysbgiamu5XNi2jv/0SUdTdVW53cWjPBBwjYAQBk38ygE08YCJNJ8dgbvunEWxmBOOgOyOGeYVrimGigJDAIsAA2NK9xRZ9t7cxj0mHFHOvfWBdtY6fo9R9KNpZ9PRhx9AAwry7SwaZfVBAIsA+wBj520ezdpl8CA66eTjyTTj9PGyT+ws3SrrT6/MuTutHQvtFgDl+ZMApgD8aTfPpT753KtLQ5HoMn5nr8hWmOrKcjp98tG0/z7jsi0K+dMkgCmANIHZkLyzfTPdfed99M4772VfmqTGiBkd/eKLf2nIvjCUoBsBOAC6WdxGfbM9LTAnJ0onHn0wnXz8oRQOYzbKRtOkXBQcgJRR2ZrQ+uL9/LO19Ieb/0INDY2Zly3pYp77/2vmBSCnzgQwBaCz9bPUfa/RVe/EwpWn8QhndTpFWfP8Bx8wgS793rk0Yfxo4kNX0smOtDYSwBSAjTDTLKqwqIiOP+EYGjF8CC2Y/y5PD5hpldAT9te1y4WrV89NL2NatSBxkAlgBCDI1nVBt3TDAnffbTid87UTaeigGhekQxXJCGAEIBkhd57zTpv02KOP05znXkq5QoT9pYwKCfsgAAegDzC4nTqBVMIC8/Ny6cwpx9HhB+/bs9IflxoE4ACoYYdtUjQ11tPvbvoj1a7f0L9gCPvrnw+epkQAUwApYUKi/gjsvueRb5Ehv8dhgQnb04Txu9Nl3/8G7TF6BDr//kB68AxTAB5A76fKvLx8OuaYo6iiopQWLuxrkWBP2N9pn36yEAv/+mGJR8kJJPzCTp4NKUDgSwJ9hQUWFw2gC75xKlkx/Xm5OUCmIAE4AAoahUfIhgwbSsceewQtXfIxNTVt7C0kwv56E8H/MyIAByAjbMjUm8Cu4w56ywiFLuCwwHxrhN9a5HfJd8+l4UN36Z0U/1eIABwAhYzRS5RINIcOO+LQnkWC8996h/jUQaKesL+cs1aufLtdXckhmV8IwAHwi6UUl3PbaYHVlRUn/fDCs+m4ow6kaCSiuNQQDw6A6m2AQ2xqaugEjhZYvWo1bdhQj9P+VDeZj+TDaiwfGUt1UWubYt+KxeN350SjiOtT3Vhb5cMiQJ8YaquY0ZB8Ynh16DR/SQ1pVSUAB0BVy/hIrqYmWRI36DYSdLaPxIaoTAAOgP+aQdiQn0cM48ghVeJj/0kPiVUigDc1lazhQ1nqWuQxMYM+QOfvQ+NBZF8SiJlil/aYuWTNBvkLXyoAoZUhgBEAZUzhL0GWSZlT1kwzeFnSlbzoD46kv8z3hbQYAfCp4baKHQnLRd2GcfjoCtHsb00gvRcE4AB4Qd3nddY3yzG8JPlvHNS/j89V0V58OAD+bwKGkJ1hw/jm8GrxT/9rAw3cJIA3NzdpB6Cu+k3yWxyKtACdfwCMCRUCQcCUIqcrLh/lKYHbA6EQlHCNAEYAXEPt74qsIf/SFrqJG8z/+VsTSL89AYwABKs9cJTAR3lkHFBdLVqDpRm0cYIAHAAnqAaszPrNcpCM06PcWA4KmGraqwMHIHhNIGTIzQVh49iaCvFG8LSDRnYSwBSAnTQDWNaGZnkYxWg+Ov8AGhcqBZJA3BQFLV3mq2vqzCsCqSCUso0AHADbUAavoLpmOU1IepFD/HB2b/DMC40CTECSMDq76bera81nAqwmVMuSAKYAsgQYxOzr1smCcD7dzeF9Xw+iftDpSwKYAgh+a4iE5OpozJg4aJCoD7620DAdAnAA0qGlQdoNreZAw6Sn+FCfiRqoq72KcAD0aAKGIdujIXHE0ErjbT00hpapEMAUQCqUNEnT0CLHCVO8js5fE4NDTW0ImKbI64zJ11c3yDO1URqKJiUAByApIj0SWFv6mpJe5SGhYXpoDC1BQC8CUopQZ6f5D94v4Od6aQ5t+yIAB6AvMhrd79ncx6T/cOdfrJHaUBUENCQgBI8E/GrlBvmAhspD5V4E4ABo3CQkvxLUbZLX8ir/e3nBX0RjFFAdBLQhwOd3UHdMfnPlhvi7/B2APkAby++sKBYB7sxEizs9h/m00D2s7LlaKAwlExLAIsCEWLRbFXJMAAAgAElEQVS5GQ7JFQVkTMDOgdqYfAdF4QBoaPfPPpP50UJ6nI1/gobqQ+XtCMABQHNgJ6AunGPsMbRENIKGXgQw/KOXvcmK8c8ZQLPR+WtmeKgLAn0QiMVFZazdXLGmXg7qIwluB5QAHICAGjaRWk1NsiRcQC/wnP/RiZ7jHgiAgJ4EYlIUd8fMpZ9ukLvpSUBPreEAaGL3dS2yKmbQ//jN/0BNVIaaIAACaRCwzhDoNM1FK+vkHmlkQ1IfE4AD4GPjpSp6bausCZv0Iq/0n5BqHqQDARDQj4C1YVA8Zi7ig4T21097/TSGAxBwmzc2ymEhk+Zx5z8+4KpCPRAAARsImFJEu2LytU/r5FE2FIciFCYAB0Bh42QrGs/5j4iHaB6Xs2u2ZSE/CICAPgTYCQh3dJvPr66Vh+qjtX6awgEIqM3rN8tB8ZB8gd/8hwRURagFAiDgIAE+UjjUbZr/XbtB7uNgNSjaQwJwADyE71TVnzfLShmjOXyoz0in6kC5IAACwSfAIwERXhj4xpoGiSnEAJobDkDAjMpz/sVRomf5zX9swFSDOiAAAh4Q4OiAaFe3+TZPB4zyoHpU6SABOAAOwnW7aGuTH57zf5rr3dftulEfCIBAcAlwdEBuzDTfXbXBHBhcLfXTDA5AQGy+Rsq8SL58mt/8sWgnIDaFGiCgEoG4FANMUy5Zvk5WqSQXZMmcAByAzNkpk9M62Cevhf5FQhypjFAQBARAIHAEYqYoMoT5QW2tHBA45TRUCA6Az41uHenLp/rdib39fW5IiA8CPiHATkDlZjIX4yhhnxisHzHhAPQDxw+P6pvpVyzneX6QFTKCAAgEgwAfIDR0dZ35YjC00VcLOAA+tn39JvltnvP/mY9VgOggAAI+JdAVE0eurJV3+lR8iM0E4AD4tBnUtcgjJdHtPhUfYoMACASAQCwuL1xVJ38SAFW0VIGnjnH5jUB9sxzLnf+rbLwSv8kOedUi0NjKLQkXCGRFgEOQosYZQyrE41kVg8yuE4AD4Dry7Crc0GoOFKZ4nQ03LLuSkBsEiOAAoBXYQcAQMhaNGvsMLRcf2FEeynCHAKYA3OFsSy3WRj+GKWaj87cFJwoBARCwiYB1eFB3t/nGZ5/JCpuKRDEuEIAD4AJku6oI59M9XNZ+dpWHckAABEDALgK8ZXBBV9icb1d5KMd5AnAAnGdsSw11m+SPecX/WbYUhkJAAARAwAEC3XExbNV6+ZgDRaNIBwjAAXAAqt1FNjTLQ7jMG+wuF+WBAAiAgN0Euk15+qp6+SO7y0V59hPAIkD7mdpaorXoz4iLBSQIh3DYShaFWQSwCBDtwBkC0syJGAcMq+TvLlzKEsAIgLKmIeKtNiMiLh5F56+wkSAaCIBAAgLCiMXNl3BmQAI0Ct2CA6CQMXqL0tBMf+Z5f2v4HxcIgAAI+IoALwosbBfmK74SWjNh4QAoanBe9PdNfvP/rqLiQSwQAAEQSEqAtwuesLJO3pU0IRJ4QgBrADzB3n+lDS1ynDTpbXYA8vpPiacgkB0BrAHIjh9yp0YgEhYnj6gSz6SWGqncIoARALdIp1jPMilzTJP+hs4/RWBIBgIgoDyBuGk+ivUA6pkJDoBiNiltoRt43n+CYmJBHBAAARDImIBpinxeD/B8xgUgoyME4AA4gjWzQus3yuNI0qWZ5UYuEAABEFCXAK8HOHBlg/yxuhLqJxnWAChi8+ZmWdEl6T2E/CliEE3EwBoATQytiJpCyHhuyBgzpEp8rIhIWouBEQBFzN8p6a/o/BUxBsQAARBwhICUItRlmv9zpHAUmjYBOABpI7M/Q12z+V2e9z/T/pJRIgiAAAioRYD3B9hlda28Wy2p9JQGUwAe233DJjnaEPQOi1HgsSioXkMCmALQ0OgKqCx4n9PciHHMkErxkgLiaCsCRgA8ND1v9SvYALexCOj8PbQDqgYBEHCXgCQhOmPm4/wdiD7IXfQ71BaePHX6tzysX+uqZ7/03lEHT9zraK0hQHkQAAEtCZhSlMx7e/Xcw467ENMBHrWAMM8B3OtR3VpXW1xcSHuPG601AygPAiCgN4GawUMOHTFi2KGrVq3RG4RH2mP4xSPw5511MuXn5XpUO6oFARAAARUICPq/S7+vgiBaygAHwAOz77/PONp3rz08qBlVggAIgIBaBIpKyuisr5+mllCaSAMHwGVD5+Xm0tmnn+ByragOBEAABNQlcPyJJ1BFRbm6AgZUMjgALhv27K+dQKUlRS7XiupAAARAQGECvBHKZT++WGEBgykaHAAX7br7bsPp0K/s7WKNqAoEQAAE/EGgeuAgOubow/0hbECkhAPgkiENw6BzvnYiR79i7yWXkKMaEAABnxE469wzKcTflbjcIQDS7nCmww7el4YOqnGpNlQDAiAAAv4jEApH6dsXfNN/gvtUYjgALhguLzeHTv3qkS7UhCpAAARAwN8EDjz4YCorK/G3Ej6RHg6AC4aactKRVFw0wIWaUAUIgAAI+JwAT5P+8EfTfK6EP8SHA+Cwnaoqy+jow/Z3uBYUDwIgAALBITB05CgaP35McBRSVBM4AA4b5lxe+BcOhx2uBcWDAAiAQIAISKILp30rQAqpqQocAAftMnb3kbQX9vt3kDCKBgEQCCqBAUUlNHnyiUFVTwm94AA4ZIZtYX8OFY9iQQAEQCDwBCadOglhgQ5aGQ6AQ3C/st94GjSwyqHSUSwIgAAIBJ9AKBShc75xRvAV9UhDOAAOgLfe/iefiB2tHECLIkEABDQjcMRRR1IkinVUTpgdDoADVA85YALVVFU4UDKKBAEQAAG9CAgjRN/8xtf1UtolbeEA2Aw6FArRJLz920wVxYEACOhM4ODDD8EogAMNAA6AzVAP5y1/K8tLbS4VxYEACICAvgSECNF3vo0tgu1uAXAAbCQaiYRp0nGH2VgiigIBEAABELAITDzwK5SblwsYNhKAA2AjzCMPmUilpUU2loiiQAAEQAAELAJCGPQdHBRka2OAA2ATzkg0Qicdd6hNpaEYEAABEACB3gT2nbgf5Rfk976N/2dIAA5AhuB6ZzvswL1x4E9vKPg/CIAACNhKwKDzzkNEgF1I4QDYQFLw6VXHHP4VG0pCESAAAiAAAv0RmHjAROwO2B+gNJ7BAUgDVl9J99lrDxpYjbj/vvjgPgiAAAjYRUAYYTr19El2Fad1OXAAbDD/CUcfZEMpKAIEQAAEQCAVAkcfe1QqyZAmCQE4AEkAJXs8Yugg2m3k0GTJ8BwEQAAEQMAmAjm5+XTEkYfYVJq+xcAByNL2Xz0WjTBLhMgOAiAAAmkTmMInBeLKjgAcgCz4WTv+7TthjyxKQFYQAAEQAIFMCBSVlNGYsbtnkhV5thKwjliaBRqZETjr9OMP4JP/xmSWG7lAAARAAASyIfCdC85rvPLHP5udTRk65xU6K5+N7vX1soii9BmXMSCbcpAXBLwk0NgqvawedYNAlgSkDBnGwFE1ojbLgrTMjimADM0uo/IczorOP0N+yAYCIAAC2RPgY4IMuin7cvQsAQ5AhnYXJC7KMCuygQAIgAAI2EQgFjO/ZlNR2hUDByADkze2yL04234ZZEUWEAABEAABGwmYJApWb5DYHzgDpnAAMoBmmvS9DLIhCwiAAAiAgAMEJJk/daDYwBeJRYBpmniNlHl5LfQ5gytJMyuSg4ByBLAIUDmTQKCMCEhZII2qQYNEfUbZNc2EEYA0DZ/fTGej808TGpKDAAiAgKMEhOiO0K8crSKAhcMBSNOoUhAW/6XJDMlBAARAwGkCZty0IrNwpUEADkAasOqb5Rh++8fJP2kwQ1IQAAEQcINATIriTxvlyW7UFZQ64ACkY0lJ30onOdKCAAiAAAi4RyDWhcWA6dCGA5AOLUGIN02HF9KCAAiAgIsE4pIOcLE631cFByBFE9ZvlFbDGpViciQDARAAARBwmYApRWRNnTzX5Wp9Wx0cgBRNJw3CRhMpskIyEAABEPCKgCnNH3lVt9/qhQOQgsWk5LX/hOH/FFAhCQiAAAh4SiAWo4n8nY2+LQUrWMcB40pCoLFZHiSEGJYkGR7bTKAzTtRmEm3m363dRB18cF2UP9YDQkR5/DuPW6/1t+7X642ZE1iwpj3zzFnkLMk1qChiUHFEUDkbsyLH6LGtLlcnT1Yvrut0Xd3ckKCxlTmu1+tmhbw1cHjVBprKdd7rZr1+rAsOQApWM4X4OrZMTAFUhkk2xYje2Ui0fDPRKu6PVrbxb/5p5vvJrhx2AIbn8U/+lt8jC4j2KSbaJdjfcTtguei9ZJT6fh7/cEPfD11+Eo6GKT8vQpUDwjSsOEz7VEbpq4NzKI87raBddW0x+tEc90+wHVQYpkdOGxQ0nDvpI8j8Ad+EA7ATmR1vwAFIAsgaSqpv5uH/4H0HJdHcucfd/Fb/Bnf4bzQRvcU/S7njNzM8lt4aJVjauuVne4kH5xIdWEq0P/8cVkZUhJbunEFtKjnWFaNm62cT0SefEf2Xy/29Iai4KJfG8Fvr8UPz6IRBUZtqQzFBJtAdp32s724eueVvG1x9EcDXYl9ktt6va6FD+Dso+C5zEg52PP6QO+qn1hH9m186m3hI38lrbQfRP7ku64dHmulgdgROqSY6umLL/52sG2XbSIA9w00b29lh5J+PN9INORHac1A+fWfMANqnHF9fNpIOVFGSRGhtrbR2bZ0ZKMVsVgafoCRAue+YkiQJHvdDoIv978e4E35wLdFqb6abyRpxmNuw5ac0QnT6QKLzBxOV42WyH8up+ai7s5veWbGp56eIRwbOHltEU0fzHBAuEOhFIG7Ib/EtOAD9tAw4AP3AsR7xMNKJPIyUJBUe9ybQzp3uPz/nSbhPiTa4v9aptzhf/N8aebh7DdH97JBMqSH63lCiGp4uwOU/As3NHXTHGx00axGvFRhdSJfsOUCrhYT+s5i7EsdMmuBujf6rTaN1t+kbp36zHMyd/7j0c+qbw5rL/wfP3x73OtFvlqvV+W9vFWtUwHJQvvoW0W9ZTivSAJc/CXS2d9ETixroRB5qenw1z/3gAgEmYJoib3Wd3A8w+iYAB6BvNiTjdFI/j/GoF4ElLUTnLST61cdEGx2e47cLvuUIzOLRgEnsCDzl/qJsu9RAOUzAcgR+P7eWTn+mnla0wKNDo2ACki4Gh74JwAHomw0JSV/t5zEebSVgrcS/njv9s94hWtTsTyxWSPb/+4ho2iKiWoWmLPxJ01upa+s30/lPfk7XL+RVp7i0JhAzzeO0BpBEeTgAfQDiuf8I7/93VB+PcXsrAWth37n81v8QD/tnGsqnEszXOCzxjPlE87LYXEclfXSVRZom/fv9Bjr133VUay1IwaUlgXicBn0mJe8SgisRATgAiajwvfpWOpSX/vGWMrj6IvB8HdHZC3aOwe8rvV/uWwsFf8Cb69zIoxrWFAEu/xKoa2ijr89eT/9d1+VfJSB55gR4EVe8vicaAFcCAnAAEkCxbvH2ESf28Uj729aePbesILpsMVFLCrv1+RGYpeODPKpx8fu8HTGmk/1owi9k7u7opl+8uJ7uWsrbS+LSjkA8jtMB+zI6HIA+yEiSmP9PwIa3MKdrl24JpUvwOHC3rCmBb79L1IgXSH/bluen7n2zjq57h1eq4tKKAPvv+2ilcBrKwgFIAKu5WfJ+cWJ8gkda37KGw6/4cMvGPjqBWMx9xrm8wNGjc3N0Qu24rv/5oJF+9ArvQ41LGwIcDpi/ulaO0kbhNBSFA5AAFi8CP5T3/sHuP9uxsTr///uAyJr31/Gytha2RgLWI8zc9+a3dhH88et84AAufQgYdJ4+yqauKRyABKy45z84wW1tb1nz4TOWYWW8FR74PV4TYJ1eiMvfBKxzBX6NMEF/GzEN6Tkq5Pg0kmuTFA5AAlNzh3dIgtva3vod75T3xHpt1d9BcevIYitCAJFl/m8Pz3CY4G0fYWGg/y2ZXAOOCh2bPJV+KeAA9LL5MilzeAOgffVrCok1/juvhLd2ysP1JQFrs6NreCEkLv8TeHBBPf1vPVZ4+t+S/WsQk6K4tlYO6D+Vfk/hAPSyeXkLTeTZfxwPw1yW8kZqv+VwP1w7E/gPbxv8KJ8lgMvnBDg64Nq59VTXgQ0ffG7JpOJ3Cnl20kSaJYAD0Mvg/DWA4X9mYsW+/5hX/Fvb/OJKTOAGnhqxzj/A5W8C1hHD33sJWz/624rJpY+TOCV5Kr1SwAHoZW9eAAgHgJlM5yHuVZge7ffboIu9RctJwnqAfjH54uH6us10wyKcHeALY2UoJC8ExMmAvdjBAdgOCO//L0jKgzJsX4HJ9gq/DP1nQ2DUcVQR6yyE21c5WgUKd4nAvz9ooo83YcjLJdyuVxM3qcb1ShWvEA7AdgbasIlGkhCVitvMUfGsIf/rOOQPV+oEZn1KtAwvj6kDUzSl5B7i529gkyBFzZO1WJKEsWaDPDzrggJUAByA7YwZMmjvANk2I1XuWENkbXqDK3UCMY4bvY4PDrL2S8DlbwJra1vpkZX4APjbin1Lz7N2OONlOzxwALaDISXt2XfTCf6Tz/h77x5+m8WVPoF3eGO55zBtkj44BXPcPr+JEBOgoGFsEImd9K/YUExgioADsKMp9wqMZTNQ5G5++8fxtxmA25rlttVEHFWGy+cEOtu76A5sEORzKyYW3zTN0Ymf6HkXDsB2duf9/7UdAajnvVCe5Nh2XJkT+IR3CfxfQ+b5kVMdAo8u3oRRAHXMYZ8kkqrsK8z/JcEB2GrDdetkAU8BjPS/STPT4F5++0fMf2bsts912yqsBcieovcldLR10QPLOMQDV6AIxKWIfvaZddorLosAHICt7SCST3vyCICWPFp55f8j2NXOlm+EjzgaYD4WktvC0utC/v4h7/mMK3AEzBAWAm4zqpYdXqIWzTsAaDv/P4cXr2Ezm0StIrN7T+HgpMzAKZarubmDFjXi6EfFzJK1OKago7IuJCAFhAOihx1qaDv/P1vxuf/SCFFNDlEOu6vW7ntN3UTr+WheVdfbzakj+hkvNcoNuHtdVJyX8ecuFjMpxismuzrYmDz3pup135LNdMvBxaqKB7kyIBAnU/tw723Y4ABsJSGkHM+bAGXQnPydxQr9U23IOsId54ElRMfwTN0R5USV3Pn3vjbztMVrvGPhf+uJXuaFd5sUelGzZHuR5To54MuN/jMlewWtcLuX+TS+Jz5pow/Wt1P7ZrVO5lv4Ka/sJDgAvT9/fv4/+5vD/Sy/nbLDAdhKk3eJ2k2/7n/Llr+qvH+F2ABTeLPOi/njWZ2g09++4ReEiI7jPRutH2v64n7ev8BayGitZ1Dh+jePqgTdAbCDszVIcmRNtOeHqISeXN1Jf1nQRJtbeYhHgcs6KOi5z7rohEGWfLiCQIAdgKIg6GGHDgEfpEwNEZ8BYH26B6aWOlipXm9SQ59RBXy8Lh/V8cvdk3f+vSXO41b83WHszBxIdLQi63utURXsqdDbUsn/P2VYDs05vYbO2reCN25V4+tpzhpEAyS3nH9S8JEv4c+kzPePxM5JqsYnzDn9Uiq5rpmG6RgBYHVQ7yqw0PmQUqIH9yEaPSAlc/WZyFor8MfxRD8YTuT1aI51nPL7OCq4T1sle3DJ+AK6/thqCkW9H6T8qE6N0YhkzPA8NQLWiGe8jiamljrYqeAAsH0NSSOCbebE2i3k7Wu9jv23hvD/yvEXhTZ9z1sdv+UA/GTXxDq7efdNRUZX3NTZzroO52mB+yfVeO4EbOJogLa4KhNldhLWt6x4iPbXV/svNYcDwCykoeeikLfZAfDy2oPf+K8fQ2TN/dt9nTeY6AyPJ3Xewn4AWZt1+IAQXXdEpbfTARyt8MwajAJkbUyFCjDiNE4hcTwTBQ6AhV7TVaFLPDzCNp8X8f2ZAy+t+Xunrp/tRmQ5GV5dSz3k65XOTtR7+MAonbF3mRNFp1zmQmuvbFyBIcBnAvC3Ay4Hv379A5dfQLWcAlhhRTh5dH17CK+6TLLSP1vRrHDCqz2cCmjm0MRG9BvZmrEn/6W8JqCg0OEG04+kn6oUZ9qPnHiUGgHeDGhQaimDnQoOANuXdwEcHmwz76ydtQDwc49GNcs45uJ8dgDcuCbyfgKHefjyuAoLyG0z8yX78WpRj666Vt6wCFdgCAhJvMMILjgA3AZ4EyDtRgCsDYC8ClP7Gs/NW3H8bl3n8noAr64VbV7VHLx6Tx6aQ3kF3owCbG5XaKep4JnWdY14WQcHHuPS3gFYJmUObwKU/ZZmPmtLn3n09m9hOtJl39vaVdBNh2P7pvA5O1q47COw58DMtx/ORop4d4zaEQmQDUKl8ppShLAXAE4DpLI2quA9ABxYh65Ue99JmM0evdBU8PD/noU7iePoDWstwCEeTQO0esTZUaAeFn7aCG8cAEvlxg6EAnpoeturNpvIwxVCtquTUYHajwAYpp5zQV51TOO48zc8cLfGu+x0bPs0WhsC4bKPwKEcESBC3nxtNXo1Z2YfPpS0HQEzrufi7+0bgTefJIWaIX8/uzwgrYbybdYpLB5cg3M9qJSrHOzRi6MqZxN4Q93+Wq0vrEjUxQUk26nQhDOz7TeohyXy4u+hHlavRNXaOwAMQJHd491tD20eDU0X2LTjX7q0BnhUr1ec0+Xjp/QRj0YAmrowBeCndpJMVmGSS7FIySTx7nn4lKnTtW7Vs/7+NJ3/9UneWcCjmmMeWT3swfC/hTjiUb3dHnH2qFm5Uq1Hg1fkVdt1BaqGlbzyyhtXHn78RVdqqPoXKms/AlA4AIdC6fwBgO7+IxCLeeMCFOdo/3Xpv8bSj8RFxR4tDOpHJrcfad+iCwrgALjd6FAfCGRKoItD8WKd3sxfleR4NIyUKSzk65fAgAJsBaC9AzCgwKPVYf02TTwEARBIRODfaztJSm/mVSpytf+6TGQS397Ly8d3v/YtuhAjAL79AENw/Qg8s8q7nZXKotp/XQaqweXmehSSpBBF7Vt0To43W4sq1AYgCgj4goA18//xem/2Vg7nhAn9vy+aScpChiORlNMGNaH2DkAk4k1McVAbFPQCAacI/OWDzdTd6c2hPEX56CycsqtX5QqhffdH2hMIheAAePUBRL0gkCqBDl7899jiTakmtz1d1QA4ALZD9bhAw4stST3WuXf12jsAETgAvdsE/g8CyhH46ZvNnr39WzCGFnu0k5RylgiOQBgBwGFAFI7ggx2cjzQ0CSKB+5e301vLN3qq2sE1WCvkqQEcqFxgBABTAGEDUwAOfLZQJAjYQuCFz7vojjfrbSkr00IM3nr4qBo+xhJXwAhgXwftX3/DYTgAAftUQ52AELhnaTvdM7+eZNybnf+2YSwvyaWw9pOlAWlU26mh4SnwOxkRDgCiAHZqFLgBAl4SqO8w6f+90UyL13i36G97/SdUI17cy/bgWN0YACA4AJgCcOzzhYJBIB0CrXxC1W/fbaX/LttEZowP6lbkmjwCDoAiprBZDHgA2jsAIUwB2PyhQnEgkBoBK7RvUWOMXv68k15d2051Te1Epjfb/PYlcf6AHJpYjhDAvvjgvr8JaO8A+Nt8/pP+rjVED651X27ua3DZTODQv32acYk9+/kr1tknUuaQoTgwJhEX3AsGAe0dgDgPNRrY49O11tzF67msH1z+J+D14jynCQoh6KIxcACc5ozyvSOg/drWmKnOXKN3zQA1gwAI9CZQVZ5Pgwq0/4rsjSVA/8ewoPatO9YNByBAn2ioAgK2EZi2V6FtZaEgBQmg/8dGQDGFVhsr+BGBSCCgJYGy0jw6cTB2/wuy8SXBA8AIAKYAgvwZh24gkBGBC/cqzigfMvmJABwAOADdMT+1WMgKAiDgMIGSkjyaMgxv/w5j9rx46YMoFKchae8AdMexBsDpRobyQcAvBKyV/9ccVOoXcSFnFgSkRDiS9g6AFQaICwRAAAQsAhOGF9NXKrHxjw6twcQIABYBdsMB0OGzDh1BICmBcDRMv/5KUdJ0SBAMAhgBIDgAHR0dwWjN0AIEQCArAt8/oJxKotgfPiuIPsrc3d3tI2mdEVX7KYDWzbz/OC4QAAGtCew3spjOHolDf3RqBJ14+cMIQEtrm05tHrqCAAj0IlBYlEu/O7gEXDQj0LZ5s2Ya76yu9iMAm9vgAOzcLHAHBPQgEIqE6NZjKgjHgehh7+21bMXLH0YAWjAFoN8nHxqDABMQIYOuPbKKdi0MgYeGBFpaWjTUekeVw0/NmqH1qpd7/izPYCSPat8SAAAEdCLA8f6XH1pJRw+M6qQ1dN2OwKGHH/Sbb5x+8NU6Q9F+CkAKqte5AUB3ENCOAL/ynL9/BZ0+DIv+tLP9dgoLSZ/qrL+le1h3ADz414D9oHRvBdBfGwKGoG9z53/h7vnaqAxFExPgt981iZ/oc1d7ByAmZL3BwwC4QAAEgk3AmvP/MQ/7n4Y3/2AbOkXtTINWppg0sMm0dwA2FojG0maSPCUILyCwzRyK6U4gxLv83Xh0FR1chW1+dW8L2/QPldEK3VlovwZgtBCd3PPX6t4QoD8IBJVAeWk+/X3KQHT+QTVwBnoJIeODhNA+Blx7B8BqOzwDsCqDNoQsIAACKhNgz35f3uHv8ZMraZc8fNWpbCq3ZQsJwi5ADF37KQCr4fH3hDUXdKDbjRD1gQAIOEMgJy9KVxxURicNznGmApTqawL80tfgawVsEh4OAIOUklbxGgBcIAACfifAq/wPGlVM1x9QRFF+zcMFAokIGJLWJrqv2z04AJbFMQWgW7uHvkEjwH394KoBdN2BJbRbMXb2C5p57dbHMIzldpfpx/LgAFj9v8lTAJgi9GP7hcyaExA8dLdLZQFdObGI9q/ACn/Nm0PK6hsGvZ9y4gAnhAPAxjV5BAD9f4BbOVQLHAEjHKLddymgy/cupLEl+BoLnIEdVsiM09sOV+GL4lxYSYAAACAASURBVPHJYTNVFtHq+mb2AwTGAXzRaiGkngR4fr+sOI+OH5FPF43Jp1zM8evZDrLU2loZYlbR/CyLCUR2OABsRh5G7KrbJD/nPwcHwqpQAgQCQiCvIEpDSnJp3+oonb1rHlXmYqwuIKb1TA3eAyA2QhgdngmgUMVwALYaQ5DkRSECDoBCjROiBJ+AtT0vL8iiUFhQYW6EqgojNJwX8Y0ti9AhVVGqRvx+8BuByxrySG+zy1UqWx0cgK2m4b2A3+OhoSOVtVRABLtgKJH14/b1ziaiH2LZj63YHz1zSMblFfDwfXEUYXoZA0TGjAlw09N+C+Bt8OAAbCVhkHxf4jiAjD9UqWbM4RHcIg9aXQEiw1I1UcrpsLteyqiQUCECkox3FRLHU1EwobYVvzTFe55aApWDAAiAAAg4ToBnnV5yvBKfVAAHYKuhOjfTB7wjoOkTu0FMEAABEACBTAhE6NlMsgUxDxyArVYdNEi08eKQT4JoZOgEAiAAAiBAFDJk59AS0QgWWwjAAdiuJfAIAKYB8MkAARAAgYAS4K0kcPT7draFA7AdDB4BwDrxgH7woRYIgAAI8KYvy0DhSwJwAHZsDRgBwKcDBEAABAJKICTFmwFVLSO14ABshy1uYgogo1aETCAAAiDgBwKC5vhBTLdkhAOwHemqYt4gQsoNbsFHPSAAAiAAAm4RkObQKvGyW7X5oR44ANtZic8EkLwd8Ot+MBxkBAEQAAEQSJ1A2KB1qafWIyUcgF52liRf1cP00BIEQAAE9CHAZ07gBMBe5oYDsBMQ8Yo+HwloCgIgAAJ6EOAw7yf10DR1LeEA9GLVUETvkCQcFZl6G0JKEAABEFCeQD7Ro8oL6bKAcAB6AR8tRCcvBMBQkcsNEdWBAAiAgFMEDCE3VleLVqfK92u5cAASWI4PKcU6gARccAsEQAAE/EiAjwBe7Ee5nZYZDkACwjwCAAcgARfcAgEQAAE/EggZxnN+lNtpmeEAJCAcJXqNF4ywH4ALBEAABEDA7wT4+/whv+vghPxwABJQLS4WDXwb5wIkYINbIAACIOAnAoYh24ZVC5z0msBocAASQLFu8TqA//TxCLdBAARAAAR8QiBEHNmFKyEBOAAJsRCZAg5AH2hwGwRAAAR8Q8AIGX/zjbAuCwoHoA/glYX0Ki8C2NTHY9wGARAAARBQnoCUZgXdp7yYHgkIB6AP8HwuQIyXAf63j8e4DQIgAAIgoDgB3v9/7QghsLFbH3aCA9AHGOu2xDRAP3TwCARAAATUJhASxvNqS+itdHAA+uFvhOg/CAfsBxAegQAIgIDCBHgDoFsVFs9z0eAA9GOCigKxlh9jB6l+GOERCIAACKhIgMP/2gdXiYUqyqaKTHAAklhCCHo2SRI8BgEQAAEQUIxAWNC7iomknDhwAJKYhAHhCMkkjPAYBEAABFQjwPP/96omk2rywAFIYpHSLeGAa5Ikw2MQAAEQAAFFCAiS8cGVdLci4igrBhyAJKbhcEDrTIDHkiTDYxAAARAAAUUIREK0gL+7TUXEUVYM3vEWVzIC9Zvkgbw38OvJ0vnp+VqOjP20zX2Jh+QTDc51v97mGK/mbHa/3mI+WWrsAGfrfb0x8/IXrMm8EZy7a17mFWueszMuaXFdp+sUcnlZ/NjKHNfrdbvCPEOcN6RGPOh2vX6rDw5AChaTUor6FlrBsIankBxJQMA3BBpbceilb4wFQVMiYAjZParGyMUIQHJcmAJIzoisaQDu/B9NISmSgAAIgAAIeEiAd/+bj84/NQPAAUiNE0mTHkkxKZKBAAiAAAh4RECEjVs8qtp31WIKIA2T1TfLjzn5rmlkQVIQUJoApgCUNg+ES5NASMiuUQNDwV/kkCaXvpJjBKAvMgnu87bAmAZIwAW3QAAEQEAFAoagN1SQwy8ywAFIx1KC7sfZAOkAQ1oQAAEQcJGAYfzGxdp8XxUcgDRMWFkklnDy19LIgqQgAAIgAAIuEAgZcuOIKvGMC1UFpgo4AGmakhdN3JlmFiQHARAAARBwmECIjIcdriJwxWMRYJomXSNlXl4LfcbgStPMiuQgoBwBLAJUziQQKCMCUhZIo2rQIFGfUXZNM2EEIE3DDxWinTcHhqeZJjckBwEQAAGnCETC9B46//TpwgFInxkZBs3MIBuygAAIgAAIOEDACBm/dqDYwBeJKYAMTVzfbL5NJCZmmB3ZQEAJApgCUMIMECILAhz738qx/4VZFKFtVowAZGh6SQKLATNkh2wgAAIgYBeBUMjAaa0ZwoQDkCE46uxZB9CaaXbkAwEQAAEQyJaAlHGTrsq2FF3zi1OmTr9PV+Wz1fv7F5x1wP57jx2TbTnIDwJeEcAUgFfkUa8dBDY21DVc8eOfPW1HWTqWEWalp+qouB06P/qvObTvnnsQD0HZURzKAAEQAAEQSJGAtYBt5u33lvNaLPRhKTLrnQw9V28iafy/vnEjLVj0URo5kBQEQAAEQMAOAhubGujjjz+xoyhty4ADkKXpn33x1SxLQHYQAAEQAIF0CTz26BPpZkH6XgTgAGTZJFat+Zw+/mR1lqUgOwiAAAiAQKoEOtvb6LXX3ko1OdL1QQAOQB9g0rn97H9fTyc50oIACIAACGRB4Pnn/5tFbmTdRgAOgA1t4d33l9C69XU2lIQiQAAEQAAE+iMgzRjNfuLf/SXBsxQJwAFIEVR/yaQkmjP3zf6S4BkIgAAIgIANBN56422Km6YNJaEIOAA2tYHX3lpEmza12FQaigEBEAABENiJgDTpgQf+vtNt3MiMAByAzLjtlKu7q5v+PeeVne7jBgiAAAiAgD0EFrw9nzraO+wpDKUQHAAbG8H/XptP1t4AuEAABEAABOwlIPnt/967/2ZvoZqXBgfAxgYQi8Xp389jFMBGpCgKBEAABHoIvPnaG9TRibd/O5sDHAA7aXJZr7y+kOoammwuFcWBAAiAgL4E+MgfmjULb/92twA4ADYTjcfjNPvZl20uFcWBAAiAgL4EXp37CnV3xfQF4JDmcAAcAGtFBKzfUO9AySgSBEAABPQiYMZj9OCDj+iltEvawgFwALTJMapP/QejAA6gRZEgAAKaEZj70v8oFsPbvxNmhwPgBFUu880F79Paz2sdKh3FggAIgEDwCcRjXfT3hx4LvqIeaQgHwCHwkrcHfPixZx0qHcWCAAiAQPAJPP7PJ7Drn4NmhgPgINyPlq2kd99f6mANKBoEQAAEgkmgeWMTPffsi8FUThGt4AA4bIiHH38O81cOM0bxIAACwSNw+213BU8pxTSCA+CwQerqG+mFuTi32mHMKB4EQCBABFZ+spyWLV0eII3UVAUOgAt2eeo/c3FQkAucUQUIgEAQCJh0659mBkER5XWAA+CCiTo6O+lfz7zkQk2oAgRAAAT8TeDVl1/lF6ZmfyvhE+nhALhkqHm8RfCqNZ+7VBuqAQEQAAH/EYhx2N/99z3kP8F9KjEcAJcM1xMWyAsCrd+4QAAEQAAEdibw97/9A2F/O2Nx7A4cAMfQ7lzwx5+sJmskABcIgAAIgMCOBGrXraX/vYTTVN1sF3AA3KTNdf3jX3OoaSPmt1zGjupAAASUJmDSzb/7i9ISBlE4OAAuW7W9owM7BLrMHNWBAAioTWDOM3OooaFRbSEDKB0cAA+MOv/dD+mdRR95UDOqBAEQAAG1CDRvbKRHHvmXWkJpIg0cAI8M/cCjz9DmtnaPake1IAACIOA9AUGSbv79rd4LoqkEYV6T/m1NdfdU7Y2bWmjh4mVHHrr/hKmeCoLKQQAEQMAjAp+v/Wzep2vW3uNR9dpXK7Qn4CEADgkUDc30PAk6xkMxULXGBBpbEZaqsfk9Vd0QcuOoGqNcCGF6KojGlWMKwEPjc8OX3PK/zyJs9lAMVA0CIAACLhOQMppjnIrO32XsvaqDA+Atf6oqFh+zE3CZx2KgehAAARBwjUAkYtwztEzMda1CVJSQAKYAEmJx/2bdJvkPIegs92tGjToTwBSAztb3RvewIT8bWRMa7E3tqHV7AhgBUKQ9RCR9j3cJ/lQRcSAGCIAACNhOgGc94yFhHGF7wSgwIwJwADLCZn+mkhLRJAWdx04AFsTYjxclggAIKEAgHDWuGlYtPlFAFIjABOAAKNQMqorEXJ4GuEUhkSAKCIAACNhCIBqSr48oF7+3pTAUYgsBOAC2YLSvkMZC+hkfGYgTg+xDipJAAAQ8JmAYsi2PjOM9FgPV9yIAB0CxJjFaiE4S4hssVptiokEcEAABEEibgLXSPBI2TquuFq1pZ0YGRwnAAXAUb2aFVxSJj3iDgIsyy41cIAACIKAOgWhE3DGsQsxRRyJIso0AHABF20JliXiIt8nG+ZiK2gdigQAIJCcQDsl3hlWK7yZPiRReEIAD4AX1FOssL+INgiTNSzE5koEACICAMgR43r+lgBDyp4xBEggCByABFFVu8TaZ3fEQbw4k6XNVZIIcIAACIJCcgDRzDeMIzPsnJ+VlCjgAXtJPoe7qAWI9H5l5Ju8P0JVCciQBARAAAU8JWIv+ciPG/w2uEohm8tQSySuHA5CckecpyouN1/hD9RPPBYEAIAACIJCEQCQi/jG0UmD9UhJOKjzGWQAqWCFFGeqa5X1ssKkpJkcyEEhKAGcBJEWEBGkQCIXkqlHVoRFpZEFSDwlgBMBD+OlW3dVCP+A8b6ebD+lBAARAwGkCISFbIznGfk7Xg/LtIwAHwD6Wjpc0aJBo44UAJ3NF2EvbcdqoAARAIFUCBslYJGocNLRENKaaB+m8JwAHwHsbpCXBLkWijjNMlkRNaWVEYhAAARBwhICUobAxZWi5+MCR4lGoYwTgADiG1rmCe3YKJDqNwwM7nasFJYMACIBA/wS2rPgXPxlRJZ7pPyWeqkgADoCKVklBJuvkQFPStzk8kH0BXCAAAiDgPoGcsJg5tNL4nfs1o0Y7CMABsIOiR2VUlYiHuepfelQ9qgUBENCYQCQsXhxaJb6nMQLfq44wQJ+bUEop6lvoXoQH+tyQHomPMECPwPu82khIfjyiOjTa52poLz5GAHzeBHi7YFlRSNNYDczB+dyWEB8E/ECAD/ipjVYZe/tBVsjYPwE4AP3z8cVTdgK62grpDF4N8JIvBIaQIAACviTAsf5NImrsMUiINl8qAKF3IAAHICANYqgQ7Z2tNAmnBwbEoFADBBQjYPBGPySMMSNKxUbFRIM4GRKAA5AhOBWzWRsFGXGazLItUFE+yAQCIOBPAny0bzsf7bvXqBpR608NIHUiAnAAElHx8b2yMrEpSnQihwd+6GM1IDoIgIAiBEKG7IpGjAMGDhQrFREJYthEAA6ATSBVKqaoSNRTmI5jmbBlsEqGgSwg4DMCPOzfnWMYB2KXP58ZLkVx4QCkCMpvySoLxOehOB3LIwGf+k12yAsCIOA9AQ4wikUM4+jBVWKh99JAAicIwAFwgqoiZZaWilXsBBzG4ixXRCSIAQIg4AMC/OYfyw0bxw+rFq/4QFyImCEBOAAZgvNLNl4TsDpu0GG8YdD7fpEZcoIACHhHgDv/rkjYOHBIpUBYsXdmcKVmOACuYPa2kuoBYn1EiiP50IC3vJUEtYMACKhMgDv/dj7Zb8KwSoFIIpUNZZNscABsAql6MSV8Tnc4TiewE/Ca6rJCPhAAAfcJ8Gr/zTznv+eISrHE/dpRoxcE4AB4Qd2jOnlNwMbYZjqepwNe8EgEVAsCIKAgAe78N4YMsRvP+SNySEH7OCUSHACnyCpaLsfybm4qEtaOgU8oKiLEAgEQcJFA2JAbIrnGqOFVxjoXq0VVChDAaYAKGMELEXgUIMqnCN7JDeB8L+pHnWoQwGmAatjBKymsU/2sg32wt79XFvC2XowAeMvfs9qtA4Qqi8RUHgm4lPcK4KUBuEAABHQiEDHkXOtIX3T+Oll9R13hAOhr+x7NK4rFHw2DzmYXoENzFFAfBPQgwMN+0bC4fURN6Eg9FIaWfRGAA9AXGY3ulxeKR4Swdg2U9RqpDVVBQEMCUuZExGXDq8T3NVQeKvcigDUAaBJfEKjdKHcNGfQM39gNWPQggDUAetjZ0tIgGcvJNU4dUib+rY/W0LQ/AhgB6I+OZs+qS8TyiKSDeE3Aq5qpDnVBINAEuPPfHM0x9kHnH2gzp60cHIC0kQU7Q3GxaOhqpeNZy78FW1NoBwJ6EAiH5IpovjEUJ/rpYe90tMQUQDq0NEtb1yyn8eLAP/P6gKhmqmujLqYAgmtq68s9GqL/DKs2TgqultAsGwIYAciGXsDzcpjgHYago9kJwAYhAbc11AsWAd7TP55r0PfQ+QfLrnZrgxEAu4kGsLzPm2VlVNI/SNBRAVRPa5UwAhA88/O2vs1GjnHEiFLxbvC0g0Z2EoADYCfNAJfFIYLhhma6jp2AqwKspnaqwQEIlsmjIflRpMqYiM19gmVXp7TBFIBTZANWLu8cGONNg67mCIHzWLW2gKkHdUDA1wSsN7lIWNw6vDo0Fp2/r03pqvAYAXAVdzAq48WBe3DDsaIE9g2GRvpqgREA/9veOsY3HDZOH1Yh5vhfG2jgJgE4AG7SDlBd1pRAfTP9nFX6OUcJhAKkmlaqwAHwt7kjYbkoXxqHVleLVn9rAum9IAAHwAvqAaqzrkUeRSbdz07A4ACppY0qcAD8aWpBMh6NGlfwW/8f/KkBpFaBABwAFazgcxkaG2WxGaa/shrn+lwV7cSHA+A/k4cN+VlIGEcMqxaf+E96SKwSATgAKlnD57LUNsW+FYvH787hVxOfq6KN+HAA/GNq68s6FJIPjawOfcM/UkNSlQmEVRYOsvmLwIWX/GpAVWWZ8a1zJtOY0SP8JTykBQGFCXS2b6Zb/zyTPly85DWFxYRoPiOAEQCfGUxVcU8+9+rSUCS6jEhUWDLuv884Ou/rJ9OAgnxVRYZcTAAjAKo3A0nz33yb7ph5L5mmSbwrZ2PEjI5+8cW/NKguOeRTnwBWb6tvI19IuMe+x9woSBy9TdjP19fRq28uoqKiAhoyqMYXOugoZHuXjlr7Q+e21ma66cab6YXnXyKOutkitKA8U8Sjq1e885w/tICUKhPACIDK1vGJbKd85+e7y1jofY4EiCQSea9xo+l8Hg0oKy1O9Bj3PCSAEQAP4fdVNXf2L8x5nv7+8GMJU0iSMVPQ3q8+d9fihAlwEwRSJIARgBRBIVnfBEbveSSHAYo9+kpRW9dA815fSDk5URoxbBBx2r6S4r7LBDAC4DLwJNXV166ja6+5jt5+e2GfKXmkzTAkDeNRgIf6TIQHIJACAXwTpwAJSfomMGnqL44xyHih7xQ7Ptl1xBA694yv0vChu6SaBekcJIARAAfhplF0rLuTHv7bP2ju/15NORc7Al+dO+eOZ1POgIQg0IsAHAA0iYwJnHnmmaHO/DF84pgYn04h1gDAxL3H0VmnHU/lmBZIB53taeEA2I40zQJNXuQ3n+7kRX5xa5FfGhevCviorUFMWLDgju40siEpCHxBAFMAaAwZExg18cyLeTj/W5kUYC0SfPnVdygej9Oo4YM5vhlbB2TCMds8mALIlmCG+dkJXvfZWvrVtdfTvHmvf7nIL43iuIjKSJ6sXbPinbfTyIakIPAFAYwAoDFkRKB32F9GhWzNZC0OPH3y0XTw/hOyKQZ5MyCAEYAMoGWZxVrdf9tf76KPPlyaZUmcHWGB2TPUuASMAGhs/GxU7x32l01Z7R2d9M6iJbT0k9U0ZHANFRcNyKY45E2DAEYA0oCVZdJ4rIsee+QxuvVPM6meF8baciEs0BaMuhaCEQBdLZ+F3snC/rIomiMEiPYatzudNukoGor9A7JBmVJejACkhCmrRGY8Rm+89gbdP+thisViWZWVKDPCAhNRwb1UCGAr4FQoIc0OBGTMuLmvmP9sUVn7nSz6YCm9t3gZLxQcS6dPOpqqq8qzLRb5QcB9ApIX+L01n+66c5YjHf82hTgaIBwy5W/4/5PcVxI1+pkARgD8bD0PZE837C9bEa09AyxH4IxTjqHKirJsi0P+XgQwAmB/k5Dc8S/gjv/uu2dRd5f9b/x9SYywwL7I4H5fBOAA9EUG93cikGnY304FZXAjFArRoQfuTaeccASVlhZlUAKyJCIAByARlQzvccf//qL3aCaH9HW0d2RYSObZEBaYOTtdc2IKQFfLZ6B3R97Y77PHmFbMfwbVJMxihQvOfXVBz/kCBx8wIf6NM766KhIJj0qYGDdBwEUChjC73nj1zfD9D/zd8KLj36YqfzbH5JeZ0/j/f3FRfVTlYwIIvvax8dwU3Qr7E0JOd7PORHVZi6jmvrbgTzVl4d1I0HGc5ulE6XAPBJwmEDZkc05IXDeqJpR3x8z7/uRl579NV54G+OUxx1yMRTNOGz8g5cMBCIghnVbDiORw57/lqF+n6+qvfD4VrTFkdv6a1wbIikLxQkWRmBw3aB/O8wAvIHRvwrU/IfEs0ATCIVmbG6aLRtaEiodVi19wWzTNaPiXvBq/3nPFBZV1G10/91wOCOALAlgD4AszeSukk2F/6WrGu6Ve/PQDM/6aKF9TkxweC9ElguQF7KwUJkqDezsSwBqAVFuElOEQLTRI/Gh4tfFaolyHHXehtTPmrYmeuXkPYYFu0vZ3XRgB8Lf9XJGej/r9vVNhf+koYC1yallDd/SVp7RUrKosEpe1FYpqlvcsHi1I+ZCivsrEfb0J8LF7bZGweDBkGANHVof266vztyjVlGy6nTvf970mtiUsUNzotRyoX30CGAFQ30aeSuh22F9/yvJA64lPPvCr5/pL0/tZfbMcw9ulTuUv5gv47ayi93Pd/48RgAQtgD3HaJiWCGHMGFYl/pEgRZ+3Dj122jHsNCjheCIssE8z4cFWAnAA0BT6JOBl2F9voXh+f/bs+2ec0vt+qv9fJmVOeSudYpqSV0mLY3iEAG2f4cEB+LIFWW/7/Kb/eLSbLhs0SGQ8n3/4cRfN5tbl+aY8CAtM9dtB33SYAtDX9kk1t8L+0j3qN2mhGSTgzr9bhONXZpD1iyyjhegsLxSPVhYbVuTAGC7z1/z742zKRF7/EwgZsitiyHk5UXHCrjWhghFV4rxsOn+LCK8JvIxHnbq8prNdWKDXoqB+RQngLUhRw3gtlp2n/WWrC7/J3DJ71ozLsy0nUf6GFjmOFxaeySMC5/Lz3RKlCfI9HUcAOIAkxgv6FoeEuGNopZFwQWm2NudRgFt4FODSbMvJOj9OC8waYZALwAhAkK2bhW6qhf1loUq/WXlUYHFlsbiWwwl5kIDG88jADM7wSb+Z8NB3BDgyJB4Jy0W5Ebp41xojZ0RVaG+nOn8LDsICfddEtBQYIwBamr1/pf0S9te/Fpk/5TVgorFZHiRJnMKjDyeyYzAh89LUzhnkEQCe0283BC2KCOOewZV0txWv76Y1EBboJm3UlQkBbAWcCbWA5/FL2J9TZrA2GeKyrVhv6+fqdS2yKkp0BI8OTOYHk9hrLnWqbpSbOQF+y5d8ZMQGXr3/fNigW4dUGG9mXlr2Oa2wwPWbir/L6033zL60zEvYEhZIVljg5MxLQc4gEsAIQBCtmoVOfg/7y0L1lLLy6EC4roUOYhfBGhk4kZ2CffwcUeD3EYCelfvEG/SEjAeHVtA97Lx5vvhu+4aEsMCUPlZI5BEBOAAegVex2iCF/bnFt65OFopc+kpDw6ZJtRsaLtlt5BCKRCNuVZ91PX5yAKwvq+5YF4UN8VFuTvRZdsJuG1IllI/kQFhg1s0UBThEAFMADoH1Y7Fenva3PS87wv7c4l9ZKVq4rhemTJ2+nKcHLgmFDBq8Sw2NHjWUhg0dSLvvOpzKS4vdEidY9XBDaNvcQmtWf0rvvvsevfLKGz3H7PIQ/0lzn5u5yi/KWmGBUhrHc1QAzyR5d20XFojTAr0zg1I1YwRAKXN4J4wuYX9OEWYHYDg7ACsTlV9ZXkpDBlXToF2q2Dmo7vm7qqKMDMP7IBxVRgCkGaOW5hbaUFtLKz5ZRe+99wEtWZL45Z4dgBF+cgCsNoGwwESfDNzzmgBGALy2gCL1bwn7I8+3yu057U92WZv0BOaqa2gi6+ed95Z8oZM1TbBLdWWPMzB4q2NQVVVGpUVFZI0iBPGy3jakNKmzo50a6utpzZq1tOTDZfQOv923bW4Lospf6GSFBYru7m/ygjxvP2NfnhZ4WaCBQ7mUCGAEICVMwU6ke9ifHdbtbwQgnfJDvIy9cEA+FRcV8ihBKVVaPzyC0PNTWdoznWDnyIH9IwB8JnOsm9paN9PGTU20YX09ffrpWlqxYhUtX/4JdXdlf2KzH0cArDaAsMB0PglI6wYBjAC4QVnxOnQP+1PJPPF4nDvOlp6f1Z9+vpNoloMwoCCPf/KpgH+XFBfWTfvWGT8zSPKbpSjnaYhy9urLeSvafJ5zLrEK4FGVXI5UyOv5m4S1IIHD48laqTjAumeFz1lxj9bFD7b10CY/iG+918G/uzlzCz/faG2TIAyx/rlnXzy1rm5DUUM9j3DU1VHthjp+u1dqEf5WrdT4hbBANewAKb4k4PgIQPVjskpE6XD+8hjH1e7B3zTWjmul/LuEf/d8AfHfrfw3f7FQE/9eyressdLFspvm1X5NbIDBnCOAsD972No1ApC2NJJWP3X/jOFp57Mhw2HHXbSKP6/DbCgqrSL8OgJgKYmwwLRM7fvE1b9dXmXGxeHseI/jqJU9WKHR7GyX8uemhKTo6f9IyFbu+zZyZ9zETvdS/nuJIGOxEY7Nq71yV0f7P0dGAGqeMvfnt4RzWCHr4JVx1mvHNkuy4lt03s71sBwCvmlBGcG/9/0ibZhkzZNyMQObw/AeXn+qmL/tGX5nT6An7I/EH7IvKfsSuNHPfirNo36zrxUlgIC7BF554Y4XeUHg0yqcFmiSvHm//aa9uGDBHd3uUgh2beXXf7K/pjSqvQAAEJ9JREFUYYhzuNs7zozJcRy2sqXb29b3bVP/y17R6vusPrCn/9uSWJIZM2TFjSsXCynnmIb5cMNVu9re/9nmAJQ9I4uiMTmNO/7vsBJjtnX0WZl6y5Gt45nTeP7AXF79lPyQhyvv7TbFzIZTe8KvcGVBAGF/WcBDVhDIkADCAjMEp3C2sunLikJ54Wn8svsd7vDHWKL29O/ZdIRbHAfu+8R4Q4Yur7xxxYdc4r2m6JzZcNUYW/q/rJcbD35WllU/KWdEumkVa/tb1rdHeScuBjrWqiMsaDXXee3QpyW2ZM0QtBX2xzveTs8wu73ZBN361D3XWVM/uEAg8ATmzrl7OSvpyCmE6cLjd6xfHnPMxeXp5kP6LQSKfr+mrPLGlTO4819l9U3bOn9n+Iie/s+QOasrb1h5bfENq7Pu/zJ3APhVv2a2PL+7Uy7hTv+arUMYzujdq1SrLv6Z3hmn5VVPyEtousxcD1ckVq8SlU77yw3TdeoRgkQg4BwB0dU1Q5Ksd66GFEv+MiwwxQxI1kOA+7/KG1acH+2OW+vVruGOOevOOHWyXBf3f1GKL6+4YUVW/V9GHWflk3LXmtn0Cg93zOJRisrUBbc3JTsBZbyXyh+q96OXKx+Xo+wtPbilWWF/bLsfqKAhf45+8ejdMxpVkAUygIBbBObOnbWRP4PXulVff/VIIX94yAkXWou0caVAoPL6j3fluflX+G1/Fo9Ke9b/cf1l3P/+oSJv5cuVN63OqP9L2wEYOFuexqFAbzOng1Ng5UoSNsIhobBcWP2EPNuVCn1eCcL+fG5AiB8IAlZYII8CvO+1MltOCxTWaYG4khCoumHlaSRCb3PHq1D/Jw6huLmQnZK0+7/UHQAeZudFeLfwau3HucPtiS9W6xKFwqCHeW3A7zEl0LdlrLA/Hjk5ue8U7j0xTPOyuXNnZL8zjHsioyYQsI3Ao48+GpemocaOfIImHXH8tBNtUy5oBXH/x0P+t0hBj/Obt3r9n6BC7pcfZhnT6v9ScgDGPiKjNfvRg1zBparblTu3y2v2pQdopvTPkWwuQbXC/gyFwv6eRNifS5ZHNaoSsMICeSrgaRXk2xoWiO/N3saY/kG0Mm/lg9zxK9//sYyXs6zc/81PyY5JHQCr82/IoX8xk3N6c1H2/4LOrRnIMsMJ2MFEVtgfL1YZ77XdeBSpW4TjV3otB+oHARUIWGGB7AR4voUiv+CNyS8zp6nARBkZejr/fO7/hH/6PxLnVjaVcf+X3Ano3wHgFVrc+d/Jb9UnKWOQ1AU5mZ2AWZgO2AIMYX+pNxykBAE3CSAs0E3aadTF/V9FXsGd3Pn7sP8TJ7MTkLT/69cBqJ5NN3Pnf34ayFRLek71vvQb1YTyQh6E/XlBHXWCQGoEEBaYGic3U3F8/808KuLj/k+cU5G7qt/+r08HgLfgPdMPc/7JGgQ7MFdUPSl9NHyTTKP0nyPsL31myAECbhJAWKCbtJPXxYvpzvTFnH8SVaz+r+L6lX32fwkdgJ6YekE89BGMi8MWb6t6Wo4Mhjbpa4Gwv/SZIQcIuE0AYYFuE09cX09MvRCB6f84Ou62qhtWJ+z/dnYAeN4jFKb7GY11bGhQrmIRp/us3ZuColCqeiDsL1VSSAcC3hJQLSzwsGMvPMFbIv+/vbOLjeq44vjMXX8TgzFrg1ul2KbFAZomtFSqVNUJVckTYEilKOKFNgRQpapNKwy2VAWRFxISQdTmpaGlaRTxECUtoigvVK2CVakPtEkpJDgVONA23vWu18Z2/bm70zOLbTC7Xu7eO7t37tz/Shbm7p2Zc35n4X/u7JwZD0YnjRCplHH6R0cL5dS/rASg8Q9iD2HXZpMDVR8Bmgr51qqzfv4+p3ASsuyPC+tE4S3Vt5Cn/aHsTz1X9GgWAZ3KApnFT9BpgbbKyUyJQvjF63t02uRHGVfSv4aX+rLWMyxIAOTBPnTs7lFlg+rWERfHVv9e6LeJQ5E4ZU774+zhInVvu1uU/dlGhRtBgGafURboxcdAHuzDmGWs/tHkxrFlJ/oW6N+C44BnptlzlP2EvYBfmjF5Y7j3z0OP7NbjELzS+KzBKDjtT4MgwAS/EJBlge1b9srTAj3feIb04LX2J/a+5hd2buyMfXKBxVu+6aYLrdvSw2Bj+aT4ERn5wpyh8zMA9e+JpbQZxQ+19kCBcdEvfoOlyioV9IQu7BAQQiRw2p8dUrgHBO4Q0KYsMCBBSYcq2NCDXzPeW1oE9+MVL31cO+fofAJQkRT7KEMo4ZGG3rBOVlSzWOtXvRk8gKPitL8ABh0uuyagU1mga2d80MHw5zfSg2GVDyx1aaI8QVBU7Z3r5c4aAMF3u+zaN81jzUgAShEswdjHozfZ66UYC2OAgGkEdCkLNI1rLn+Gm76S67KR1zjLLPTPvDIJwKqz6a9T3b/ne8TPGVXsPydqG9h4XVOxhwl8/zjtL/AfAQBwQUCrskAXfujedKK2iU0tadDdTIX28fXho30bZYeZBICmaRfdKUjhqFp1FX/Q88XxWvFQbQzK/lQTRX9BJKBVWaChARhZtcFQz/K6tUu+m0kAOBdP5L3VwDdHGlsN9EoPl1D2p0ccYIUZBHQpCzSDZrYXY/Ut2ReNvyK+I120Vr4rGpng64339x4Hx5etZMnKmqC5XRp/UfZXGs4YJRAEdDot0DTgqYoaNl1jcOX7IgGjaoBHml65GrZ4BWun7/8Dt0UuTXuw0RWrF8GDy04JoOzPKTm0A4HFCaAscHE2bt4Zr/uCnAJ304U/29IGD8lkZbsl0sFZ/HdvpCaWNt57CX93SQBlfy4BojkI5CCAssAcUBRcCtbiv4XABBMbLEp+2hRw9GUXE7UrfGm3rkaj7E/XyMAuEwigLFB9FKdqgqsBtO1/m0ULtr6kHqs/epxEAqA0UCj7U4oTnYHAAgIoC1T/gZiuMX7vu8Whcb5WVgEEbwXELJIkLQDBSw0BlP2p4YheQCAfAZQF5qNT+Hup8uBqAK3XCssEYH5f4MLx+bsFzgRQEz+U/anhiF5AwA4BlAXaoWTvHnkGQHBfvNai9f8PBBVAqjzIwVcYdZT9KYSJrkAgPwGUBebnU8i76bJAawAlAHiBgAsCKPtzAQ9NQcAhAZQFOgSHZgsIWHQE8FhQmYRmpoPqujK/UfanDCU6AgHbBFAWaBtV3hutZKA1YFTOAIzmJWTwm6HklMHeFd81evr/CKf9FZ8zRgCBXARQFpiLSmHXrFSQEwCRSQDihSEz5+6y6XFznPHAE6oh/en77x9JejA0hgSBwBOQZYE0g/tc4EG4ABCaCa4G0GaAcbkR0Ccu+Pm6adXooK/t99J4lP15SR9jg8BtAj3nf/UnSgLOgYczApXjCWcNDWhFG7f1yhmAXgN8ceRC9VhgJz8c8ZprhLI/V/jQGASUEkBZoHOc5QFOAJgQmQTgsnN8/m5ZPRLztwNeWY+yP6/IY1wQyCKAssAsJLYvVI0FVwNoD4ArlphhPTSFRLMBwXpxcrk2fiNYTivwFmV/CiCiCxBQTABlgc6A1ty6yehJ2FljX7cS6VD5VI8V/S4fID+u+NoXB8ZXD0dY2VRwF4A4QJZpgrI/p+TQDgSKRwBlgc7YhmgheOV4IL8K/kf/gYfimY2AKP857wyff1stG7juX+M9shxlfx6Bx7AgYIMAygJtQMpxy5JEX46rZl8SjP9RephJAOhYwNNmu5vt3Yp//zP7Iq7kJYCyv7x48CYIeEoAZYHO8C+NBm8ZHLdua34mAYjs4BdpGiAwFKpHY6yGvgLAyz4BlP3ZZ4U7QcArAigLLJx89UiEVf4vSIsBxUexgy0fSlKZBCDz4uK3878b/kvDp3833EO17qHsTy1P9AYCxSSAssDC6db1Xyq8kU9b0PT/r+dMn08AZtL8l/Qf/ZBPfbJtdtn0BGu4jgTANjB5I8r+CsKFm0HASwIoCyycft1/P2Ch5GThDf3WQoiE4JMn58yeTwAGd3B5JsAv/OZPofau+tdfKdA4A8AuN5T92SWF+0BAHwIoCywsFvJMgPr/XCyskQ/vFpy9Onho3fz5P2V3+1AZYq9OpcQPaI/gBh/6ZsNkEb22ZnPbxe5v37JxM24BARAAAV8SyJQFMmbo/+PFCcmyoz9bXs7SvdxQblTtF6XDI35+N707awDo6s2tfIgJ3lUcvFr02jn0FIf4axEKGAECIAAC+hC41b2a9I8Zq3+ci86hrjUL9G9BAiBDEe1gv6FM4S/6hEWNJeTThcg2/paa3tALCIAACICAaQTiXc2kf8I4/aM4XaCV/1n6l5UAMEoT0km2mxoY86RM4j8sLPZ96ZtpH1j4AwIgAAIgoIgAaQS3QkbpH23fOsyFlVP/shMA4hh7kl+jld/PKkLqeTck+3sGtnJs/ed5JGAACIAACOhNIHZw9TXG0sboHz347hnoXp1T/3ImADI8NF3+DpUFHtc7VLasOxbp4L+zdSduAgEQAAEQCDyBWNead+jJ2ff6Rxp+LNbVsqj+LZoAyE9AdDs7QH+84dtPA21xHPkb6/at/TAcBEAABEDAEwIknAdoPcAbngyuZFBxOj7ZnFf/8iYA8jvzSD/bR1nEe0rsKW0n5yIR9j12hKdLOyxGAwEQAAEQ8D0B0r/48sQ+Oi7Pf/on2LnY8sR99S9/AiAjuJ/PRJeyDvrtlF8CSiv93qLE5Ulpu19shp0gAAIgAAKaEdi/aSY2cYP0T/hK/2L1g6R/m+6rfws2AloU/WaejAjx7MqzLMF55msBPV80X0OLF1+ObqNaTqz41zNGsAoEQAAE/ETgyOZkjPQv/OKnmusf7dvK+MtUykj612Kr4u3+MwBzgSJBjXbwTtolaaeWZwYINkIePx3Zzg9B/P30rwu2ggAIgIDmBOTXAd0tnfQAvJNmA3Q8M2eEtvl9mmwsSP/sJwCz8enfzs+IENtESUCPLiGTm/zQz6OUoLyti02wAwRAAARAwCwCA4daznAR2kRzzdroHxG+YIX4o/Gu1oL1r+AEQIZT1tRThcBjNN1OGyaIAa9CTElIgmr899OU/+Mk/n1e2YFxQQAEQAAEgkFA1tTHupofozLB3aRBnukfjZ+gSf/9sUPNj0c7mx3pn6MEIBNmWSGwjb9ZmeJt9LfDUoxLFX562h+kDOz56SnW2t/BX8eUf6nIYxwQAAEQAAGpObHu1jdnqlgbifBhKcalokJL3Qbp5/kkF63x7lZX+mdvEWAez27s5PLUqRca3hbHQ1VMlkw8Q9nBhjxNnL8l2GWadTiVnmQnY0/xMecdoSUIgAAIgAAIuCNw6yctt/Xv8OXjonrJPkoEnqHTdIuif/Tge5kefE/xyfGTsSNfVqJ/rhOAOXyzgix3Tjr+uTNiY4qzXbRgcAsJ9sN0zelMQ5qyq0uc8fNWiJ3+bCv/0F240BoEQAAEQAAE1BKYFeSM/oWP9m2kP3eR9m3hTJD+cYf6J0j/2CWabThPPZyOH2xRrn/KEoC7cX62g39Af5c/rOmsCJMT7QRjPWUv6wQXa+l7+3oqV6ijaw9k2gk2RqCGaRVjgo4j7qWVllfp54pcaBHpsOJ3943fQQAEQAAEQEBXArQS/47+vXI1nExWttOD7HrStHWkb2tJA+tJA0n/+Kz+iTHSPjqwh9PXCKKXnvSvWoxfCZVP9/QfeKio+vd/wmTZ9bFKAN8AAAAASUVORK5CYII=;" parent="1" vertex="1">
          <mxGeometry x="250" y="199" width="52" height="52" as="geometry" />
        </mxCell>
        <mxCell id="7rwIcCHh1IAPN4iYdqem-46" value="" style="group" parent="1" vertex="1" connectable="0">
          <mxGeometry x="520" y="200" width="239.32999999999998" height="78" as="geometry" />
        </mxCell>
        <mxCell id="7rwIcCHh1IAPN4iYdqem-40" value="LSTM" style="shape=image;verticalLabelPosition=bottom;labelBackgroundColor=default;verticalAlign=top;aspect=fixed;imageAspect=0;image=data:image/png,iVBORw0KGgoAAAANSUhEUgAAAgAAAAIACAYAAAD0eNT6AAAABHNCSVQICAgIfAhkiAAAIABJREFUeF7snQecVsX198/cp2xje0U6KEpRLGjsvUVB1KhREyWJSorJ3xKN5k0ikhg1JtEUE8WOGk00GhVjFDUGsQsiKgqINFFYtsHusvV57rznLqCwPLtPu2Xund/9fJZd7p1yzvfM88y5M3NmBDl8VT8mq0SUDidJ47iqPaSk0UJQKf8u4d8DrOr571b+eyP/buLfS/nWEv5ZLLtpXu3XxAaHRUTxIJA1gSlTpw+XRCuzLijdAiStfur+GcPTzWZH+sOOu2gVf16H2VFWOmUIYYyY+9zMVenkQVoQ8IJA9W+XV5lxcbgkMU5I2oNlGM3fE6X8uSkhKXr6PxKylfu+jYKoibj/47+XCDIWG+HYvNord3W0/ws7AaXmKXN/KcU5rNBxXP447vz5zy0XK95zbfu99e9S/m1BGcG/992SgtOESdY8KRczsDkM7+H1p4r5257hNwiAAAiAAAioRqD8+k/2NwxxDnd7x5kxOY47uy3d3ba+b5vAX/aKVt9n9YE9/d+WxJLMmCErbly5WEg5xzTMhxuu2tX2/s82B6DsGVkUjclp3PF/h5UYs30Hn7GBRI/jMJ7/Gc9/XV79lPxQkLy32xQzG04VLRmXi4wgAAIgAAIgYBOBsunLikJ54Wn8svsd7vDHWMX29O/ZdIRbHAfu+8R4Q4Yur7xxxYdc4r2m6JzZcNUYW/q/rB2Awc/Ksu5OuoS66UcsqOXJOHZx0WOZ6G/Dgv5f9ZPyTzkh+uOaSaLJsQpRMAiAAAiAAAj0QaDo92vKcrrjl/BE9o+4byr9cqy7jwxZ3Rbc/9FvDZnz/ypvWPmnLjL+uOmnw7Lq/4yM5eFX/ZrZ8vzuTrmEO/1rtg5hZFxcOhmtuvhnemecllc9IS+h6TJzPdKpGGlBAARAAARAgPu/yhtWnB/tjlvr1a7p6fxdu3ocjelRii+vuGFFVv1fRh1n5ZNy15rZ9AoPd8ziUYpK1/TuVRE7AWWGQX+o3o9ernxcjvJKDtQLAiAAAiCgB4HK6z/elefmX+ER71k8Ku1Z/8f1l3H/+4eKvJUvV960OqP+L20HYOBseZoh6G029cGqmJuNcEgoLBdWPyHPVkUmyAECIAACIBAsAlU3rDyNROht7ngV6v/EIRQ3F7JTknb/l7oDwMPsvAjvFg5ReJw73BL1zCoKhUEP89qA32NKQD3rQCIQAAEQ8C0B7v94yP8WKehxfvNWr/8TVMj98sMsY1r9X0oOwNhHZLRmP3qQK7hUdQPytMDlNfvSAzRTRlSXFfKBAAiAAAgoTmD6B9HKvJUPcsevfP/HMl7OsnL/Nz+l/i+pA2B1/g059C820TmKm+lL8QSdWzOQZYYT4BuTQVAQAAEQUI5AT+efz/2f8E//R+LcyqYy7v+SOwH9OwC80pE7/zv5rfok5QyTXKCT2QmYhemA5KCQAgRAAARAoBcB7v8q8gru5M7fh/2fOJmdgKT9X78OQPVsupk7//N93DDOqd6XfuNj+SE6CIAACICABwQqb1x5M097+7j/E+dU5K7qt//r0wHgLXjP9MOcf7J2wQ7MFVVPSh8N3yTTCM9BAARAAAScJMCL6c70xZx/EghW/1dx/co++7+EDkBPTL0gHvoIxsVhi7dVPS1HBkMbaAECIAACIOAUgZ6YeiEC0/9xdNxtVTesTtj/7ewA8LxHKEz3M9xipwB7UG6xiNN9fOwgD2rgAgEQAAEQAIEEBLiPkPF44Po/PlooYf+3kwNQNVtewFiU2eQggYkyusVDIYfVPOXn+ZyM1EYmEAABEACBFAlU3LjiApU2+UlR7OTJuP+r/M3KndYz7OAAWAf78LG7NyQvzacphLxp2L+keps4+BQnxAYBEACBoBCwDvYhMgLb//Hgxk3Ft6zcof/b4TTA7i66lL2fiqAYdGc9RFXF0peaJkydvvMj3ElIQErZGJJdo5944MaGhAlwEwRAQDkCh578/VLR3b2MT1QP8Pe5vdjrlr1M9SMOsbdQhUrjUfCqSIf8Pxbpl9vE+mIEoOwZWcSH+/xQIXkdEaV21wMpHs5xpOwgFsoOYZkpoj8Pom7QCQSCSoA7/+no/FO3rhmKUtOQ/VLP4NOUvAjukvLffFS4TfwvHIBoTE5jD8HFIw29IRiL5lHdyH29qdyvtQr64eTzfz7Or+JDbhDQicDBJ3xnd/6i/4FOOmer68ZB+/CLYW62xaif3zpBUOZetE3QL9cASDFVfentkbBuOByA9EiKsBDGjenlQWoQAAEvCIRN4/e8e11Ke8F7IZ+KdW4cuJeKYjkik6Cehf49V48DUPOUuT/H/Y/fdjPov9sLK6mtZGDQ1bRZPzFpynm/OMHmQlEcCICAjQQOPXbaMRzDfrKNRQa+qPbCgdRZUBl4Pb9UUIytuGHlPtb/exwAXh3Y505BQaVSP2TPoKrmmF6mYdwybdo0vFk4RhgFg0DmBM4888yQMMxbMi9Bz5zNNVrObp5rWbvHARBCHq+b6ZurRuqmctb68rzimPWdNdOyLggFgAAI2E5g/aaS7/PCP7zZpEm2tWxEmjmCkFwea2lhVD8mq0iKsUFQKR0d2oqrKZaTn04WpGUCUtIvTz3v6nLAAAEQUIeAFfbHn07EN6dpkng0n7ry9YuU5Je5CQN/t6TCEFE6nOf/9dsil0MeWsqHpdlckBxhgWgDIKAeAYT9ZWaTtpKh1hB4Zpn9nIu/yGOxnMMNaeqz+K+3vdqLqnrfwv9TIYCwwFQoIQ0IuEIAYX+ZY9Zr8d+OnCTJcQY7P7tnjs/fOdsLMZKdmQURFpgZN+QCAfsJIOwvc6ad+fr2Abzt/+4Gz+nuljk+f+fsgAOQhQERFpgFPGQFAVsIIOwvO4xd+YHf+65vQEKMtqIA9FsBsRVJjBeA4MqcAMICM2eHnCCQLQGE/WVLkCge0bcP4HNeKiwH4It9gbPH6a8ScCZAdvZCWGB2/JAbBLIhgLC/bOhtyWudAaDvJQoNXv8/QFcA8YjOxrfH6ggLtIcjSgGBdAgg7C8dWn2nNcNa9wHsAOACgSwIICwwC3jICgIZEkDYX4bgkG0HAgYfAdyqK5NQd5euqturN8IC7eWJ0kCgHwII++sHTpqPjJjWfUCLNQLQkiazwCQPxToDo4u3iiAs0Fv+qF0nAgj7s8/aRlxnB0D2OAD19uH0V0nhrjZ/Cay0tGLS5KnTT1RaRAgHAj4ngLA/ew0Y6ta3D+Dp23prI6Bl9iL1T2m5LQ3+EdYfkt6M0wL9YShI6T8CW8L+5B/8J7m6Eue0NaornMOSSaKl1gjAUofrUbb4vFZtBz8csQnCAh3BikJBoIfAlrA/fbdud6IZRDR2APhktx4H4AMnwPqhzLzmOj+I6SsZERboK3NBWJ8QQNifM4bKbdW3D+A9ABYbspvmcSQAjwbodQlWubB+tV5Ku6AtwgJdgIwqtCOAsD9nTJ6/aU3PGef6XdIMRTrnGbVfExtY+cW6AcjbuJ7CnfouAHHU3ggLdBQvCteLAML+nLN3iBeC57RpORW8aN0Ve9T3bATE/s/zziFWs+TiDSvUFCwQUiEsMBBmhBJKEEDYn7NmKGhc6WwFCpYuSbxgidXjAPCxgA8pKKOjIpV/+r6j5aNwhAWiDYBAtgQQ9pctweT5i2r1WwYnjC19fo8DsP5UMZ+HAbShkNdSR/k8BYDLcQIIC3QcMSoIKgGE/blj2bzm9ZSzWafFgPLDup+MeNei2+MA9FxCzvri74D/UbnqnYBrqIZ6CAtUww6Qwp8EEPbnnt1K1r3nXmUe18TD/3dvE+ELB6DbFDN5MWSTx7I5Xn24q50qV8ABcBz01goQFugWadQTJAII+3PXmiWfLaRQrMPdSr2oTcpGKTru3Fb1Fw5Aw6nCOhPgz17I5GadNR+/wYbGGQBuMUdYoFukUU+QCCDsz11rWmcClK2d726lHtQmBf2h4aoxX5z/E95ehpwQ/aEzLr/PX9qVHsjmQpWy9pNRR+0+/6dHb3KhMs+rOGXqNRfz3M6tnguyJSzwrtn3X6dduKnn7CGA7wj0hP1J+oESgku6+OXn7/yrErI4LETxDT8vjZC5lKcuA9n/cbRfbZzkn7bH+OUaAL67ZpJoIimudpizl8Vf2XSW0KLztyDntH10Ow/BKxDugLBALxs96vYXAWXC/qT8UHTtcoe/6GUu7aafDuP+jwLb/wkhr2y6etQO/d8ODoCFrnYK3cuewquZY1QzJ+v08vrJ4kE1pXNGqkcffTTOyzwvdab0dEtFWGC6xJBePwIqhf3xy8Plc+fOiOlkhfqrh3P/JwPX/7ENX+aV/zv1fzs5AMRughmjqZwhMG/K3PlvlAZ929JNp8Zs6Tr7vhn/5a2enlZEb4QFKmIIiKEeAZXC/rgTnD3vhbueU4+SwxJxHyGMUKD6P97qeKOQRsL+b2cHgPnWnS4+IUEXOozateK5279gwySh7dZ/Mi4u4w90l2vA+6gIYYF9gMFtEGAC6oT9ye64MK/U1Sh1Pxn2CZEZmP6PX3wv2PDTYQn7v4QOgGV4Hi7/Jw8B3RyARnDT+ini8QDokbEKsx+csZydICUW8iAsMGMzImOACSgW9nfra8/do+0x8VYzq7t61D/5zdn3/R9/395Ud/WIPvu/Ph0AC0LtKXQF/7rPt5873uJ4/QL6qW/lt1FwjuyYwVMBnp96gbBAG42KogJDQJmwP0mNXSSvCwzYLBThjvMKHjm9L4siPM4qH6rvGN5v/9evA2DNma9fR9PYi3jGY00yqf7p9evpWzRDmJlkDlqeJ2fN2Mg6XauEXjgtUAkzQAg1CCh22t8v3phzd6MaZDyWgvu/+tLGafzi5L/+T9LTdaWNSfu//h0Ai/93RXdtEU3hv+7x2BwpV88r/R5kx+V0S/aUM2mQEGGBGhgZKvqOgCphf/y9+ZFOYX8pNZTvTuyua1/N/Z/0Vf9XV9bA/d/EpP1fcgfAonSUiK2fTBfySMDvUoLmVSIer+Gqb6qdTOej89/ZCFZYoBTmZTs/8eIOwgK9oI461SKgUtgfmfIy3cL+UmoNM46K1V01wgf9n+SLbqq/ajj3f8k7f0v31BwAKyUPh9ROEVfySu7TuBL1zgyQ1My9/9nrTxFX6Rjul1JD5kRPz/rViwgLTJUW0oGAcwQQ9uccW9tLtqYDfjriSiHoNP7+VK//I+7/BJ3NMqbV/6XuAGwluu4U8YQM0UR2AubZDjnDArnjf5l/9mYH5ZEMi9AqG8ICtTI3lFWUAML+FDVMP2JtuGrEE0KGJvJYszL9H4v7shESe9dfPTLt/i9tB8BiY8XUc4TAEbxXAG+YIDf0w8vRR+yENHJ423d5yP9I7vxXOlpZgApHWGCAjAlVfEkAYX++NFuP0FZMfd3Vw4/gMMGp3Ad51v9x/Y085v/duquGH1l75fCM+r+MHIAeClaEwGRxf05c7M7/m251xm6ZlN/2G9gDu6ark0aumyLuwJB/+uQRFpg+M+QAAbsIIOzPLpIelcP9X91PR97fnUu7cyc83eqM3ZKEl7o18M81MSFH1v90ZFb9X+YOwFZtV58mNvK8+y/NThrGt37MIwLOnfgm6QOu43Kzg4bz5j6/0ulgH7sbF8IC7SaK8kAgNQII+0uNkx9SbbpsxEbuhH9JHW3D+MX0x+wMONb/cfkf8Iv25aK9bTgP9/+q98E+mfDa4TjgTArYlqfuLNHKf1s7J928yxNyn7igc3nB4HE8TbAn38vU0TAZ6HuCxPNGiB76fJJ4NxsZkXdHAlZYYEfe2O/ywhbLRh5eX5wWONlDIVA1CLhCoCfsT4iIK5X1Uwl3KB8ZGp321w+KrB/VzRj/Rf9XccPKfbjAc7nvO06Q5O9WkWH/J7n/o/e4rTzPJTxU/5MRtvd/tjkA2xP8/FSxkP9v/dDAp2QFK3E4wxjLw/ZjpJCjed6+TJIo4XsDevJJamVQG3kVYyMfR7yUO6Ql/LPYWmixforh+e512+sWpL+tsMBJU39xmSDjBe/12hIWOHvWjGe9lwUSgIAzBLaE/cmTnSk9zVIR9pcmsNSS80r8L/u/3y2piMVyDucX2bHcp43h/m0094Fl3Ady/ye29n+ylfs+PrBH8DSCXMqO2RKDxOJQpGveuiv2cLT/45d0XLoTOGXqNbPZS53kNQfrjWRgzroJd9xxR9INLLyWtXf9U6ZOH87yr+x93+7/h8NhGlCQxz/5VMC/y4qL6i6cevo1/EEu5/rLub5y6292ngvZwS7YWj9/0cieN052vEut35wmyr8KGlv5Ts99dtP5MgT1HP/K9yR/KfX8bUjq5hudfK+F723i9SON/FP3/Jz/nly3ob6ooaGB6jY00PraDdTR3mFlcfQSwhgx97mZqxytxIHCrbA/Xvn/LnMc70DxaRXJ9p49b85dp6SVCYkDR8CREYDAUQq4QlZYIIXk8TzVYnUKnl38xThmfWcNb71Jf/FMCI8rDoVCVFZSRJWVpVRSVEglxYVUWV665YfvVZRZLw5Wl/3FVcl/3Wb9b4e7O/zny6c73eZHPT0/l2r9a0r6cmha9jgJ1LOX9pZEVdafWy5JRxx11Jf/3e5+LNZNba2baeOmJtrU1Ez19fW0euWntOj9xdTS3JIgjx63EPanh539pGWi7wM/yQ9ZbSJwyvnX3MJ9wKU2FZdxMTxU1hiSXaOfeODGhowL8SBjuiMAOdEo7TKwkoYMqqHBg6pocE0VVVeV93T4vTp4R7WxRgBcvaRJnR0d1NjYSGs/XUsfLl5C7y76IC3HwI8jAFbYH6/8X8ZOdoWrvBNWJm95ec5dlyd8hJtaEcAIgFbm7ltZKyyQhwW/yW+Cnn5B9ZwWSNGfs6SKbFncN7NUn1RWlNHQQdXc0VfToIFV/HcNVVaUutrRpyqr4+l4NVNOXj4NHGT9DKb9DzzQ2kyE5xvi1NrSQnW1tbRixWpaxE7BRx8G50RapcL+BE77c7yd+6QCjAD4xFBuiMlrAS5mB+BWN+rqvw4Zk9Lce/b91zkWUtN//ek/3TYCEAoZNHiXGho9aijtOnII7bHbcCocsG0qPv1ync7h+ghAWgpJ6mxvo7VrP6P32CF46aV51La5jR0nf60BsML+wtJ4nz9bnq/856mci19+/s6/pmUGJA4sAYwABNa06SuGsMD0mdXXyyLKoQMaGjZNquWFcLtxxx+J4GOVPslEOQSPFhTQqN1G9/ycfsbp1B3rorAhnsnNuf3ZONEdIyrFkkQ5VbqHsD+VrAFZtieAEQC0hx0IcFjgMYYSYYE9686+qlpYIK9RiNS30qHCpBNZvhN56dxefm5Cao8AJCdrGLKdIxcWRULGw0Y53TVIiLbkudxLYYX9sYwKhNny58mUJ8574a7n3NMeNalOAA6A6hbyQD6EBe4IfX2LrA6bdAJ3+JN4qT1v7sExvAG5/O4AbG8G68uMO9vGkDDm5oboppoK8YaXZkLYn5f0UXcqBDBWmQolzdLoHhbIb/lGXQsdwtt3ncJ/f5U37RhnxdjBW1b7g2DFM8RNURYneVpXnE5bvi7eETboPcMQs4ZUiDt4gWnPvgZuXQj7c4s06smUAL7TMiUX8Hw6hgU2tMhxpkln8jkf53F3PzLgJu5RL0gjAP3Zi20aD4fog5AQd7AzcDs7Az3bGzh1IezPKbIo104CGe5RbKcIKEtFAvFY1y951tDRbShT0bsnLFD0hAU6clmdft0meW19s1zOe+F9wHP603Xp/B0BqmihvK1hqDsmJnR001+WrzO7Vm6Iv7umzvyBNdrjhMgqhf1F4jm/dkJHlOl/AhgB8L8NHdMgqGGBVqfP+9Gcx9vansUfgBGOAfRBwbqMAPRlCkPIbp4mmB+KGL8eUib+3Ve6dO4j7C8dWkjrJQFHvF8vFULd9hGwwgL5rZjjl72+vjgtMGNBVkqZyx3/mXWbzOd5mP99ntC/SvfOP2OYAcpoShHpiouD2jvk08vXxzev3CAfWL5ObrflcfrK9oT9KRDzz2siPhI47S99A2qUAyMAGhk7E1X9HhbIQ/vWKZTn89v+RdzYyzJhEOQ8uo8AJLatlNEQn8hmGNcNrRQPJU6T+C7C/hJzwV01CcABUNMuSknlt7DAujpZyJvznGN1/Dynf4hSMBUTBg5A/wbhsMK2sDCeyzHpxwMHipX9pUbYX3908ExFApgCUNEqislkhQXyOQFdXovF3uq20wITirJ+oxxZ1yz/KHLoc047E51/Qky4mQYB0xT5XXF5Wqs0P1mxIb5wzQZ5eF/ZEfbXFxncV5UARgBUtYxicqkcFrihydzXCIlLeb3COdzpY2+LNNoORgDSgLU1aTgkayNSTB9SY8zclhthf+lzRA7vCWAEwHsb+EIC1cICezbr2SQnW4v6uPNfwBDPQ+fvi6bkeyFjcVHdbtLt1qLB1XVyJrfFKML+fG9WLRUIaak1lE6bwMfvv9Kx+95H8D7r4qS0M9uYIRKN0BGH7HfAiOEjv80n732f9wnQYsMeGxHuUFS75xM7TmnmfLm8t0AkbtJ+GzfLqwcNGnjgko+WiK6ubucr7r+GK/73wu0v958ET0FgCwFMAaAlpEzAWuTUkTd2Ib9p75lyJpsShnkbt0O+sjdN+eqRVFJcaFOpKAZTAHa2AUlLFn9If/3rXT3HFrt9WWF/Rucue82dO8PVLY/d1hP12UcADoB9LLUoye2wwFAoRF/ZbzxNOelIqiwv1YKxm0rCAXCANu8y9f6i92jmzHupo73DgQoSF4nT/hJzwd2+CcAB6JsNnvRBYPL505/mUYCT+3hsy20e2qeJe4+lr00+hqoqEb5vC9QEhcABSADFpluSHYEFb82nu++eRd1dDr+US3r65efvnGyT6ChGEwJYMa2JoW1V06RLZUjysbgiamu5XNi2jv/0SUdTdVW53cWjPBBwjYAQBk38ygE08YCJNJ8dgbvunEWxmBOOgOyOGeYVrimGigJDAIsAA2NK9xRZ9t7cxj0mHFHOvfWBdtY6fo9R9KNpZ9PRhx9AAwry7SwaZfVBAIsA+wBj520ezdpl8CA66eTjyTTj9PGyT+ws3SrrT6/MuTutHQvtFgDl+ZMApgD8aTfPpT753KtLQ5HoMn5nr8hWmOrKcjp98tG0/z7jsi0K+dMkgCmANIHZkLyzfTPdfed99M4772VfmqTGiBkd/eKLf2nIvjCUoBsBOAC6WdxGfbM9LTAnJ0onHn0wnXz8oRQOYzbKRtOkXBQcgJRR2ZrQ+uL9/LO19Ieb/0INDY2Zly3pYp77/2vmBSCnzgQwBaCz9bPUfa/RVe/EwpWn8QhndTpFWfP8Bx8wgS793rk0Yfxo4kNX0smOtDYSwBSAjTDTLKqwqIiOP+EYGjF8CC2Y/y5PD5hpldAT9te1y4WrV89NL2NatSBxkAlgBCDI1nVBt3TDAnffbTid87UTaeigGhekQxXJCGAEIBkhd57zTpv02KOP05znXkq5QoT9pYwKCfsgAAegDzC4nTqBVMIC8/Ny6cwpx9HhB+/bs9IflxoE4ACoYYdtUjQ11tPvbvoj1a7f0L9gCPvrnw+epkQAUwApYUKi/gjsvueRb5Ehv8dhgQnb04Txu9Nl3/8G7TF6BDr//kB68AxTAB5A76fKvLx8OuaYo6iiopQWLuxrkWBP2N9pn36yEAv/+mGJR8kJJPzCTp4NKUDgSwJ9hQUWFw2gC75xKlkx/Xm5OUCmIAE4AAoahUfIhgwbSsceewQtXfIxNTVt7C0kwv56E8H/MyIAByAjbMjUm8Cu4w56ywiFLuCwwHxrhN9a5HfJd8+l4UN36Z0U/1eIABwAhYzRS5RINIcOO+LQnkWC8996h/jUQaKesL+cs1aufLtdXckhmV8IwAHwi6UUl3PbaYHVlRUn/fDCs+m4ow6kaCSiuNQQDw6A6m2AQ2xqaugEjhZYvWo1bdhQj9P+VDeZj+TDaiwfGUt1UWubYt+KxeN350SjiOtT3Vhb5cMiQJ8YaquY0ZB8Ynh16DR/SQ1pVSUAB0BVy/hIrqYmWRI36DYSdLaPxIaoTAAOgP+aQdiQn0cM48ghVeJj/0kPiVUigDc1lazhQ1nqWuQxMYM+QOfvQ+NBZF8SiJlil/aYuWTNBvkLXyoAoZUhgBEAZUzhL0GWSZlT1kwzeFnSlbzoD46kv8z3hbQYAfCp4baKHQnLRd2GcfjoCtHsb00gvRcE4AB4Qd3nddY3yzG8JPlvHNS/j89V0V58OAD+bwKGkJ1hw/jm8GrxT/9rAw3cJIA3NzdpB6Cu+k3yWxyKtACdfwCMCRUCQcCUIqcrLh/lKYHbA6EQlHCNAEYAXEPt74qsIf/SFrqJG8z/+VsTSL89AYwABKs9cJTAR3lkHFBdLVqDpRm0cYIAHAAnqAaszPrNcpCM06PcWA4KmGraqwMHIHhNIGTIzQVh49iaCvFG8LSDRnYSwBSAnTQDWNaGZnkYxWg+Ov8AGhcqBZJA3BQFLV3mq2vqzCsCqSCUso0AHADbUAavoLpmOU1IepFD/HB2b/DMC40CTECSMDq76bera81nAqwmVMuSAKYAsgQYxOzr1smCcD7dzeF9Xw+iftDpSwKYAgh+a4iE5OpozJg4aJCoD7620DAdAnAA0qGlQdoNreZAw6Sn+FCfiRqoq72KcAD0aAKGIdujIXHE0ErjbT00hpapEMAUQCqUNEnT0CLHCVO8js5fE4NDTW0ImKbI64zJ11c3yDO1URqKJiUAByApIj0SWFv6mpJe5SGhYXpoDC1BQC8CUopQZ6f5D94v4Od6aQ5t+yIAB6AvMhrd79ncx6T/cOdfrJHaUBUENCQgBI8E/GrlBvmAhspD5V4E4ABo3CQkvxLUbZLX8ir/e3nBX0RjFFAdBLQhwOd3UHdMfnPlhvi7/B2APkAby++sKBYB7sxEizs9h/m00D2s7LlaKAwlExLAIsCEWLRbFXJMAAAgAElEQVS5GQ7JFQVkTMDOgdqYfAdF4QBoaPfPPpP50UJ6nI1/gobqQ+XtCMABQHNgJ6AunGPsMbRENIKGXgQw/KOXvcmK8c8ZQLPR+WtmeKgLAn0QiMVFZazdXLGmXg7qIwluB5QAHICAGjaRWk1NsiRcQC/wnP/RiZ7jHgiAgJ4EYlIUd8fMpZ9ukLvpSUBPreEAaGL3dS2yKmbQ//jN/0BNVIaaIAACaRCwzhDoNM1FK+vkHmlkQ1IfE4AD4GPjpSp6bausCZv0Iq/0n5BqHqQDARDQj4C1YVA8Zi7ig4T21097/TSGAxBwmzc2ymEhk+Zx5z8+4KpCPRAAARsImFJEu2LytU/r5FE2FIciFCYAB0Bh42QrGs/5j4iHaB6Xs2u2ZSE/CICAPgTYCQh3dJvPr66Vh+qjtX6awgEIqM3rN8tB8ZB8gd/8hwRURagFAiDgIAE+UjjUbZr/XbtB7uNgNSjaQwJwADyE71TVnzfLShmjOXyoz0in6kC5IAACwSfAIwERXhj4xpoGiSnEAJobDkDAjMpz/sVRomf5zX9swFSDOiAAAh4Q4OiAaFe3+TZPB4zyoHpU6SABOAAOwnW7aGuTH57zf5rr3dftulEfCIBAcAlwdEBuzDTfXbXBHBhcLfXTDA5AQGy+Rsq8SL58mt/8sWgnIDaFGiCgEoG4FANMUy5Zvk5WqSQXZMmcAByAzNkpk9M62Cevhf5FQhypjFAQBARAIHAEYqYoMoT5QW2tHBA45TRUCA6Az41uHenLp/rdib39fW5IiA8CPiHATkDlZjIX4yhhnxisHzHhAPQDxw+P6pvpVyzneX6QFTKCAAgEgwAfIDR0dZ35YjC00VcLOAA+tn39JvltnvP/mY9VgOggAAI+JdAVE0eurJV3+lR8iM0E4AD4tBnUtcgjJdHtPhUfYoMACASAQCwuL1xVJ38SAFW0VIGnjnH5jUB9sxzLnf+rbLwSv8kOedUi0NjKLQkXCGRFgEOQosYZQyrE41kVg8yuE4AD4Dry7Crc0GoOFKZ4nQ03LLuSkBsEiOAAoBXYQcAQMhaNGvsMLRcf2FEeynCHAKYA3OFsSy3WRj+GKWaj87cFJwoBARCwiYB1eFB3t/nGZ5/JCpuKRDEuEIAD4AJku6oI59M9XNZ+dpWHckAABEDALgK8ZXBBV9icb1d5KMd5AnAAnGdsSw11m+SPecX/WbYUhkJAAARAwAEC3XExbNV6+ZgDRaNIBwjAAXAAqt1FNjTLQ7jMG+wuF+WBAAiAgN0Euk15+qp6+SO7y0V59hPAIkD7mdpaorXoz4iLBSQIh3DYShaFWQSwCBDtwBkC0syJGAcMq+TvLlzKEsAIgLKmIeKtNiMiLh5F56+wkSAaCIBAAgLCiMXNl3BmQAI0Ct2CA6CQMXqL0tBMf+Z5f2v4HxcIgAAI+IoALwosbBfmK74SWjNh4QAoanBe9PdNfvP/rqLiQSwQAAEQSEqAtwuesLJO3pU0IRJ4QgBrADzB3n+lDS1ynDTpbXYA8vpPiacgkB0BrAHIjh9yp0YgEhYnj6gSz6SWGqncIoARALdIp1jPMilzTJP+hs4/RWBIBgIgoDyBuGk+ivUA6pkJDoBiNiltoRt43n+CYmJBHBAAARDImIBpinxeD/B8xgUgoyME4AA4gjWzQus3yuNI0qWZ5UYuEAABEFCXAK8HOHBlg/yxuhLqJxnWAChi8+ZmWdEl6T2E/CliEE3EwBoATQytiJpCyHhuyBgzpEp8rIhIWouBEQBFzN8p6a/o/BUxBsQAARBwhICUItRlmv9zpHAUmjYBOABpI7M/Q12z+V2e9z/T/pJRIgiAAAioRYD3B9hlda28Wy2p9JQGUwAe233DJjnaEPQOi1HgsSioXkMCmALQ0OgKqCx4n9PciHHMkErxkgLiaCsCRgA8ND1v9SvYALexCOj8PbQDqgYBEHCXgCQhOmPm4/wdiD7IXfQ71BaePHX6tzysX+uqZ7/03lEHT9zraK0hQHkQAAEtCZhSlMx7e/Xcw467ENMBHrWAMM8B3OtR3VpXW1xcSHuPG601AygPAiCgN4GawUMOHTFi2KGrVq3RG4RH2mP4xSPw5511MuXn5XpUO6oFARAAARUICPq/S7+vgiBaygAHwAOz77/PONp3rz08qBlVggAIgIBaBIpKyuisr5+mllCaSAMHwGVD5+Xm0tmnn+ByragOBEAABNQlcPyJJ1BFRbm6AgZUMjgALhv27K+dQKUlRS7XiupAAARAQGECvBHKZT++WGEBgykaHAAX7br7bsPp0K/s7WKNqAoEQAAE/EGgeuAgOubow/0hbECkhAPgkiENw6BzvnYiR79i7yWXkKMaEAABnxE469wzKcTflbjcIQDS7nCmww7el4YOqnGpNlQDAiAAAv4jEApH6dsXfNN/gvtUYjgALhguLzeHTv3qkS7UhCpAAARAwN8EDjz4YCorK/G3Ej6RHg6AC4aactKRVFw0wIWaUAUIgAAI+JwAT5P+8EfTfK6EP8SHA+Cwnaoqy+jow/Z3uBYUDwIgAALBITB05CgaP35McBRSVBM4AA4b5lxe+BcOhx2uBcWDAAiAQIAISKILp30rQAqpqQocAAftMnb3kbQX9vt3kDCKBgEQCCqBAUUlNHnyiUFVTwm94AA4ZIZtYX8OFY9iQQAEQCDwBCadOglhgQ5aGQ6AQ3C/st94GjSwyqHSUSwIgAAIBJ9AKBShc75xRvAV9UhDOAAOgLfe/iefiB2tHECLIkEABDQjcMRRR1IkinVUTpgdDoADVA85YALVVFU4UDKKBAEQAAG9CAgjRN/8xtf1UtolbeEA2Aw6FArRJLz920wVxYEACOhM4ODDD8EogAMNAA6AzVAP5y1/K8tLbS4VxYEACICAvgSECNF3vo0tgu1uAXAAbCQaiYRp0nGH2VgiigIBEAABELAITDzwK5SblwsYNhKAA2AjzCMPmUilpUU2loiiQAAEQAAELAJCGPQdHBRka2OAA2ATzkg0Qicdd6hNpaEYEAABEACB3gT2nbgf5Rfk976N/2dIAA5AhuB6ZzvswL1x4E9vKPg/CIAACNhKwKDzzkNEgF1I4QDYQFLw6VXHHP4VG0pCESAAAiAAAv0RmHjAROwO2B+gNJ7BAUgDVl9J99lrDxpYjbj/vvjgPgiAAAjYRUAYYTr19El2Fad1OXAAbDD/CUcfZEMpKAIEQAAEQCAVAkcfe1QqyZAmCQE4AEkAJXs8Yugg2m3k0GTJ8BwEQAAEQMAmAjm5+XTEkYfYVJq+xcAByNL2Xz0WjTBLhMgOAiAAAmkTmMInBeLKjgAcgCz4WTv+7TthjyxKQFYQAAEQAIFMCBSVlNGYsbtnkhV5thKwjliaBRqZETjr9OMP4JP/xmSWG7lAAARAAASyIfCdC85rvPLHP5udTRk65xU6K5+N7vX1soii9BmXMSCbcpAXBLwk0NgqvawedYNAlgSkDBnGwFE1ojbLgrTMjimADM0uo/IczorOP0N+yAYCIAAC2RPgY4IMuin7cvQsAQ5AhnYXJC7KMCuygQAIgAAI2EQgFjO/ZlNR2hUDByADkze2yL04234ZZEUWEAABEAABGwmYJApWb5DYHzgDpnAAMoBmmvS9DLIhCwiAAAiAgAMEJJk/daDYwBeJRYBpmniNlHl5LfQ5gytJMyuSg4ByBLAIUDmTQKCMCEhZII2qQYNEfUbZNc2EEYA0DZ/fTGej808TGpKDAAiAgKMEhOiO0K8crSKAhcMBSNOoUhAW/6XJDMlBAARAwGkCZty0IrNwpUEADkAasOqb5Rh++8fJP2kwQ1IQAAEQcINATIriTxvlyW7UFZQ64ACkY0lJ30onOdKCAAiAAAi4RyDWhcWA6dCGA5AOLUGIN02HF9KCAAiAgIsE4pIOcLE631cFByBFE9ZvlFbDGpViciQDARAAARBwmYApRWRNnTzX5Wp9Wx0cgBRNJw3CRhMpskIyEAABEPCKgCnNH3lVt9/qhQOQgsWk5LX/hOH/FFAhCQiAAAh4SiAWo4n8nY2+LQUrWMcB40pCoLFZHiSEGJYkGR7bTKAzTtRmEm3m363dRB18cF2UP9YDQkR5/DuPW6/1t+7X642ZE1iwpj3zzFnkLMk1qChiUHFEUDkbsyLH6LGtLlcnT1Yvrut0Xd3ckKCxlTmu1+tmhbw1cHjVBprKdd7rZr1+rAsOQApWM4X4OrZMTAFUhkk2xYje2Ui0fDPRKu6PVrbxb/5p5vvJrhx2AIbn8U/+lt8jC4j2KSbaJdjfcTtguei9ZJT6fh7/cEPfD11+Eo6GKT8vQpUDwjSsOEz7VEbpq4NzKI87raBddW0x+tEc90+wHVQYpkdOGxQ0nDvpI8j8Ad+EA7ATmR1vwAFIAsgaSqpv5uH/4H0HJdHcucfd/Fb/Bnf4bzQRvcU/S7njNzM8lt4aJVjauuVne4kH5xIdWEq0P/8cVkZUhJbunEFtKjnWFaNm62cT0SefEf2Xy/29Iai4KJfG8Fvr8UPz6IRBUZtqQzFBJtAdp32s724eueVvG1x9EcDXYl9ktt6va6FD+Dso+C5zEg52PP6QO+qn1hH9m186m3hI38lrbQfRP7ku64dHmulgdgROqSY6umLL/52sG2XbSIA9w00b29lh5J+PN9INORHac1A+fWfMANqnHF9fNpIOVFGSRGhtrbR2bZ0ZKMVsVgafoCRAue+YkiQJHvdDoIv978e4E35wLdFqb6abyRpxmNuw5ac0QnT6QKLzBxOV42WyH8up+ai7s5veWbGp56eIRwbOHltEU0fzHBAuEOhFIG7Ib/EtOAD9tAw4AP3AsR7xMNKJPIyUJBUe9ybQzp3uPz/nSbhPiTa4v9aptzhf/N8aebh7DdH97JBMqSH63lCiGp4uwOU/As3NHXTHGx00axGvFRhdSJfsOUCrhYT+s5i7EsdMmuBujf6rTaN1t+kbp36zHMyd/7j0c+qbw5rL/wfP3x73OtFvlqvV+W9vFWtUwHJQvvoW0W9ZTivSAJc/CXS2d9ETixroRB5qenw1z/3gAgEmYJoib3Wd3A8w+iYAB6BvNiTjdFI/j/GoF4ElLUTnLST61cdEGx2e47cLvuUIzOLRgEnsCDzl/qJsu9RAOUzAcgR+P7eWTn+mnla0wKNDo2ACki4Gh74JwAHomw0JSV/t5zEebSVgrcS/njv9s94hWtTsTyxWSPb/+4ho2iKiWoWmLPxJ01upa+s30/lPfk7XL+RVp7i0JhAzzeO0BpBEeTgAfQDiuf8I7/93VB+PcXsrAWth37n81v8QD/tnGsqnEszXOCzxjPlE87LYXEclfXSVRZom/fv9Bjr133VUay1IwaUlgXicBn0mJe8SgisRATgAiajwvfpWOpSX/vGWMrj6IvB8HdHZC3aOwe8rvV/uWwsFf8Cb69zIoxrWFAEu/xKoa2ijr89eT/9d1+VfJSB55gR4EVe8vicaAFcCAnAAEkCxbvH2ESf28Uj729aePbesILpsMVFLCrv1+RGYpeODPKpx8fu8HTGmk/1owi9k7u7opl+8uJ7uWsrbS+LSjkA8jtMB+zI6HIA+yEiSmP9PwIa3MKdrl24JpUvwOHC3rCmBb79L1IgXSH/bluen7n2zjq57h1eq4tKKAPvv+2ilcBrKwgFIAKu5WfJ+cWJ8gkda37KGw6/4cMvGPjqBWMx9xrm8wNGjc3N0Qu24rv/5oJF+9ArvQ41LGwIcDpi/ulaO0kbhNBSFA5AAFi8CP5T3/sHuP9uxsTr///uAyJr31/Gytha2RgLWI8zc9+a3dhH88et84AAufQgYdJ4+yqauKRyABKy45z84wW1tb1nz4TOWYWW8FR74PV4TYJ1eiMvfBKxzBX6NMEF/GzEN6Tkq5Pg0kmuTFA5AAlNzh3dIgtva3vod75T3xHpt1d9BcevIYitCAJFl/m8Pz3CY4G0fYWGg/y2ZXAOOCh2bPJV+KeAA9LL5MilzeAOgffVrCok1/juvhLd2ysP1JQFrs6NreCEkLv8TeHBBPf1vPVZ4+t+S/WsQk6K4tlYO6D+Vfk/hAPSyeXkLTeTZfxwPw1yW8kZqv+VwP1w7E/gPbxv8KJ8lgMvnBDg64Nq59VTXgQ0ffG7JpOJ3Cnl20kSaJYAD0Mvg/DWA4X9mYsW+/5hX/Fvb/OJKTOAGnhqxzj/A5W8C1hHD33sJWz/624rJpY+TOCV5Kr1SwAHoZW9eAAgHgJlM5yHuVZge7ffboIu9RctJwnqAfjH54uH6us10wyKcHeALY2UoJC8ExMmAvdjBAdgOCO//L0jKgzJsX4HJ9gq/DP1nQ2DUcVQR6yyE21c5WgUKd4nAvz9ooo83YcjLJdyuVxM3qcb1ShWvEA7AdgbasIlGkhCVitvMUfGsIf/rOOQPV+oEZn1KtAwvj6kDUzSl5B7i529gkyBFzZO1WJKEsWaDPDzrggJUAByA7YwZMmjvANk2I1XuWENkbXqDK3UCMY4bvY4PDrL2S8DlbwJra1vpkZX4APjbin1Lz7N2OONlOzxwALaDISXt2XfTCf6Tz/h77x5+m8WVPoF3eGO55zBtkj44BXPcPr+JEBOgoGFsEImd9K/YUExgioADsKMp9wqMZTNQ5G5++8fxtxmA25rlttVEHFWGy+cEOtu76A5sEORzKyYW3zTN0Ymf6HkXDsB2duf9/7UdAajnvVCe5Nh2XJkT+IR3CfxfQ+b5kVMdAo8u3oRRAHXMYZ8kkqrsK8z/JcEB2GrDdetkAU8BjPS/STPT4F5++0fMf2bsts912yqsBcieovcldLR10QPLOMQDV6AIxKWIfvaZddorLosAHICt7SCST3vyCICWPFp55f8j2NXOlm+EjzgaYD4WktvC0utC/v4h7/mMK3AEzBAWAm4zqpYdXqIWzTsAaDv/P4cXr2Ezm0StIrN7T+HgpMzAKZarubmDFjXi6EfFzJK1OKago7IuJCAFhAOihx1qaDv/P1vxuf/SCFFNDlEOu6vW7ntN3UTr+WheVdfbzakj+hkvNcoNuHtdVJyX8ecuFjMpxismuzrYmDz3pup135LNdMvBxaqKB7kyIBAnU/tw723Y4ABsJSGkHM+bAGXQnPydxQr9U23IOsId54ElRMfwTN0R5USV3Pn3vjbztMVrvGPhf+uJXuaFd5sUelGzZHuR5To54MuN/jMlewWtcLuX+TS+Jz5pow/Wt1P7ZrVO5lv4Ka/sJDgAvT9/fv4/+5vD/Sy/nbLDAdhKk3eJ2k2/7n/Llr+qvH+F2ABTeLPOi/njWZ2g09++4ReEiI7jPRutH2v64n7ev8BayGitZ1Dh+jePqgTdAbCDszVIcmRNtOeHqISeXN1Jf1nQRJtbeYhHgcs6KOi5z7rohEGWfLiCQIAdgKIg6GGHDgEfpEwNEZ8BYH26B6aWOlipXm9SQ59RBXy8Lh/V8cvdk3f+vSXO41b83WHszBxIdLQi63utURXsqdDbUsn/P2VYDs05vYbO2reCN25V4+tpzhpEAyS3nH9S8JEv4c+kzPePxM5JqsYnzDn9Uiq5rpmG6RgBYHVQ7yqw0PmQUqIH9yEaPSAlc/WZyFor8MfxRD8YTuT1aI51nPL7OCq4T1sle3DJ+AK6/thqCkW9H6T8qE6N0YhkzPA8NQLWiGe8jiamljrYqeAAsH0NSSOCbebE2i3k7Wu9jv23hvD/yvEXhTZ9z1sdv+UA/GTXxDq7efdNRUZX3NTZzroO52mB+yfVeO4EbOJogLa4KhNldhLWt6x4iPbXV/svNYcDwCykoeeikLfZAfDy2oPf+K8fQ2TN/dt9nTeY6AyPJ3Xewn4AWZt1+IAQXXdEpbfTARyt8MwajAJkbUyFCjDiNE4hcTwTBQ6AhV7TVaFLPDzCNp8X8f2ZAy+t+Xunrp/tRmQ5GV5dSz3k65XOTtR7+MAonbF3mRNFp1zmQmuvbFyBIcBnAvC3Ay4Hv379A5dfQLWcAlhhRTh5dH17CK+6TLLSP1vRrHDCqz2cCmjm0MRG9BvZmrEn/6W8JqCg0OEG04+kn6oUZ9qPnHiUGgHeDGhQaimDnQoOANuXdwEcHmwz76ydtQDwc49GNcs45uJ8dgDcuCbyfgKHefjyuAoLyG0z8yX78WpRj666Vt6wCFdgCAhJvMMILjgA3AZ4EyDtRgCsDYC8ClP7Gs/NW3H8bl3n8noAr64VbV7VHLx6Tx6aQ3kF3owCbG5XaKep4JnWdY14WQcHHuPS3gFYJmUObwKU/ZZmPmtLn3n09m9hOtJl39vaVdBNh2P7pvA5O1q47COw58DMtx/ORop4d4zaEQmQDUKl8ppShLAXAE4DpLI2quA9ABxYh65Ue99JmM0evdBU8PD/noU7iePoDWstwCEeTQO0esTZUaAeFn7aCG8cAEvlxg6EAnpoeturNpvIwxVCtquTUYHajwAYpp5zQV51TOO48zc8cLfGu+x0bPs0WhsC4bKPwKEcESBC3nxtNXo1Z2YfPpS0HQEzrufi7+0bgTefJIWaIX8/uzwgrYbybdYpLB5cg3M9qJSrHOzRi6MqZxN4Q93+Wq0vrEjUxQUk26nQhDOz7TeohyXy4u+hHlavRNXaOwAMQJHd491tD20eDU0X2LTjX7q0BnhUr1ec0+Xjp/QRj0YAmrowBeCndpJMVmGSS7FIySTx7nn4lKnTtW7Vs/7+NJ3/9UneWcCjmmMeWT3swfC/hTjiUb3dHnH2qFm5Uq1Hg1fkVdt1BaqGlbzyyhtXHn78RVdqqPoXKms/AlA4AIdC6fwBgO7+IxCLeeMCFOdo/3Xpv8bSj8RFxR4tDOpHJrcfad+iCwrgALjd6FAfCGRKoItD8WKd3sxfleR4NIyUKSzk65fAgAJsBaC9AzCgwKPVYf02TTwEARBIRODfaztJSm/mVSpytf+6TGQS397Ly8d3v/YtuhAjAL79AENw/Qg8s8q7nZXKotp/XQaqweXmehSSpBBF7Vt0To43W4sq1AYgCgj4goA18//xem/2Vg7nhAn9vy+aScpChiORlNMGNaH2DkAk4k1McVAbFPQCAacI/OWDzdTd6c2hPEX56CycsqtX5QqhffdH2hMIheAAePUBRL0gkCqBDl7899jiTakmtz1d1QA4ALZD9bhAw4stST3WuXf12jsAETgAvdsE/g8CyhH46ZvNnr39WzCGFnu0k5RylgiOQBgBwGFAFI7ggx2cjzQ0CSKB+5e301vLN3qq2sE1WCvkqQEcqFxgBABTAGEDUwAOfLZQJAjYQuCFz7vojjfrbSkr00IM3nr4qBo+xhJXwAhgXwftX3/DYTgAAftUQ52AELhnaTvdM7+eZNybnf+2YSwvyaWw9pOlAWlU26mh4SnwOxkRDgCiAHZqFLgBAl4SqO8w6f+90UyL13i36G97/SdUI17cy/bgWN0YACA4AJgCcOzzhYJBIB0CrXxC1W/fbaX/LttEZowP6lbkmjwCDoAiprBZDHgA2jsAIUwB2PyhQnEgkBoBK7RvUWOMXv68k15d2051Te1Epjfb/PYlcf6AHJpYjhDAvvjgvr8JaO8A+Nt8/pP+rjVED651X27ua3DZTODQv32acYk9+/kr1tknUuaQoTgwJhEX3AsGAe0dgDgPNRrY49O11tzF67msH1z+J+D14jynCQoh6KIxcACc5ozyvSOg/drWmKnOXKN3zQA1gwAI9CZQVZ5Pgwq0/4rsjSVA/8ewoPatO9YNByBAn2ioAgK2EZi2V6FtZaEgBQmg/8dGQDGFVhsr+BGBSCCgJYGy0jw6cTB2/wuy8SXBA8AIAKYAgvwZh24gkBGBC/cqzigfMvmJABwAOADdMT+1WMgKAiDgMIGSkjyaMgxv/w5j9rx46YMoFKchae8AdMexBsDpRobyQcAvBKyV/9ccVOoXcSFnFgSkRDiS9g6AFQaICwRAAAQsAhOGF9NXKrHxjw6twcQIABYBdsMB0OGzDh1BICmBcDRMv/5KUdJ0SBAMAhgBIDgAHR0dwWjN0AIEQCArAt8/oJxKotgfPiuIPsrc3d3tI2mdEVX7KYDWzbz/OC4QAAGtCew3spjOHolDf3RqBJ14+cMIQEtrm05tHrqCAAj0IlBYlEu/O7gEXDQj0LZ5s2Ya76yu9iMAm9vgAOzcLHAHBPQgEIqE6NZjKgjHgehh7+21bMXLH0YAWjAFoN8nHxqDABMQIYOuPbKKdi0MgYeGBFpaWjTUekeVw0/NmqH1qpd7/izPYCSPat8SAAAEdCLA8f6XH1pJRw+M6qQ1dN2OwKGHH/Sbb5x+8NU6Q9F+CkAKqte5AUB3ENCOAL/ynL9/BZ0+DIv+tLP9dgoLSZ/qrL+le1h3ADz414D9oHRvBdBfGwKGoG9z53/h7vnaqAxFExPgt981iZ/oc1d7ByAmZL3BwwC4QAAEgk3AmvP/MQ/7n4Y3/2AbOkXtTINWppg0sMm0dwA2FojG0maSPCUILyCwzRyK6U4gxLv83Xh0FR1chW1+dW8L2/QPldEK3VlovwZgtBCd3PPX6t4QoD8IBJVAeWk+/X3KQHT+QTVwBnoJIeODhNA+Blx7B8BqOzwDsCqDNoQsIAACKhNgz35f3uHv8ZMraZc8fNWpbCq3ZQsJwi5ADF37KQCr4fH3hDUXdKDbjRD1gQAIOEMgJy9KVxxURicNznGmApTqawL80tfgawVsEh4OAIOUklbxGgBcIAACfifAq/wPGlVM1x9QRFF+zcMFAokIGJLWJrqv2z04AJbFMQWgW7uHvkEjwH394KoBdN2BJbRbMXb2C5p57dbHMIzldpfpx/LgAFj9v8lTAJgi9GP7hcyaExA8dLdLZQFdObGI9q/ACn/Nm0PK6hsGvZ9y4gAnhAPAxjV5BAD9f4BbOVQLHAEjHKLddymgy/cupLEl+BoLnIEdVsiM09sOV+GL4lxYSYAAACAASURBVPHJYTNVFtHq+mb2AwTGAXzRaiGkngR4fr+sOI+OH5FPF43Jp1zM8evZDrLU2loZYlbR/CyLCUR2OABsRh5G7KrbJD/nPwcHwqpQAgQCQiCvIEpDSnJp3+oonb1rHlXmYqwuIKb1TA3eAyA2QhgdngmgUMVwALYaQ5DkRSECDoBCjROiBJ+AtT0vL8iiUFhQYW6EqgojNJwX8Y0ti9AhVVGqRvx+8BuByxrySG+zy1UqWx0cgK2m4b2A3+OhoSOVtVRABLtgKJH14/b1ziaiH2LZj63YHz1zSMblFfDwfXEUYXoZA0TGjAlw09N+C+Bt8OAAbCVhkHxf4jiAjD9UqWbM4RHcIg9aXQEiw1I1UcrpsLteyqiQUCECkox3FRLHU1EwobYVvzTFe55aApWDAAiAAAg4ToBnnV5yvBKfVAAHYKuhOjfTB7wjoOkTu0FMEAABEACBTAhE6NlMsgUxDxyArVYdNEi08eKQT4JoZOgEAiAAAiBAFDJk59AS0QgWWwjAAdiuJfAIAKYB8MkAARAAgYAS4K0kcPT7draFA7AdDB4BwDrxgH7woRYIgAAI8KYvy0DhSwJwAHZsDRgBwKcDBEAABAJKICTFmwFVLSO14ABshy1uYgogo1aETCAAAiDgBwKC5vhBTLdkhAOwHemqYt4gQsoNbsFHPSAAAiAAAm4RkObQKvGyW7X5oR44ANtZic8EkLwd8Ot+MBxkBAEQAAEQSJ1A2KB1qafWIyUcgF52liRf1cP00BIEQAAE9CHAZ07gBMBe5oYDsBMQ8Yo+HwloCgIgAAJ6EOAw7yf10DR1LeEA9GLVUETvkCQcFZl6G0JKEAABEFCeQD7Ro8oL6bKAcAB6AR8tRCcvBMBQkcsNEdWBAAiAgFMEDCE3VleLVqfK92u5cAASWI4PKcU6gARccAsEQAAE/EiAjwBe7Ee5nZYZDkACwjwCAAcgARfcAgEQAAE/EggZxnN+lNtpmeEAJCAcJXqNF4ywH4ALBEAABEDA7wT4+/whv+vghPxwABJQLS4WDXwb5wIkYINbIAACIOAnAoYh24ZVC5z0msBocAASQLFu8TqA//TxCLdBAARAAAR8QiBEHNmFKyEBOAAJsRCZAg5AH2hwGwRAAAR8Q8AIGX/zjbAuCwoHoA/glYX0Ki8C2NTHY9wGARAAARBQnoCUZgXdp7yYHgkIB6AP8HwuQIyXAf63j8e4DQIgAAIgoDgB3v9/7QghsLFbH3aCA9AHGOu2xDRAP3TwCARAAATUJhASxvNqS+itdHAA+uFvhOg/CAfsBxAegQAIgIDCBHgDoFsVFs9z0eAA9GOCigKxlh9jB6l+GOERCIAACKhIgMP/2gdXiYUqyqaKTHAAklhCCHo2SRI8BgEQAAEQUIxAWNC7iomknDhwAJKYhAHhCMkkjPAYBEAABFQjwPP/96omk2rywAFIYpHSLeGAa5Ikw2MQAAEQAAFFCAiS8cGVdLci4igrBhyAJKbhcEDrTIDHkiTDYxAAARAAAUUIREK0gL+7TUXEUVYM3vEWVzIC9Zvkgbw38OvJ0vnp+VqOjP20zX2Jh+QTDc51v97mGK/mbHa/3mI+WWrsAGfrfb0x8/IXrMm8EZy7a17mFWueszMuaXFdp+sUcnlZ/NjKHNfrdbvCPEOcN6RGPOh2vX6rDw5AChaTUor6FlrBsIankBxJQMA3BBpbceilb4wFQVMiYAjZParGyMUIQHJcmAJIzoisaQDu/B9NISmSgAAIgAAIeEiAd/+bj84/NQPAAUiNE0mTHkkxKZKBAAiAAAh4RECEjVs8qtp31WIKIA2T1TfLjzn5rmlkQVIQUJoApgCUNg+ES5NASMiuUQNDwV/kkCaXvpJjBKAvMgnu87bAmAZIwAW3QAAEQEAFAoagN1SQwy8ywAFIx1KC7sfZAOkAQ1oQAAEQcJGAYfzGxdp8XxUcgDRMWFkklnDy19LIgqQgAAIgAAIuEAgZcuOIKvGMC1UFpgo4AGmakhdN3JlmFiQHARAAARBwmECIjIcdriJwxWMRYJomXSNlXl4LfcbgStPMiuQgoBwBLAJUziQQKCMCUhZIo2rQIFGfUXZNM2EEIE3DDxWinTcHhqeZJjckBwEQAAGnCETC9B46//TpwgFInxkZBs3MIBuygAAIgAAIOEDACBm/dqDYwBeJKYAMTVzfbL5NJCZmmB3ZQEAJApgCUMIMECILAhz738qx/4VZFKFtVowAZGh6SQKLATNkh2wgAAIgYBeBUMjAaa0ZwoQDkCE46uxZB9CaaXbkAwEQAAEQyJaAlHGTrsq2FF3zi1OmTr9PV+Wz1fv7F5x1wP57jx2TbTnIDwJeEcAUgFfkUa8dBDY21DVc8eOfPW1HWTqWEWalp+qouB06P/qvObTvnnsQD0HZURzKAAEQAAEQSJGAtYBt5u33lvNaLPRhKTLrnQw9V28iafy/vnEjLVj0URo5kBQEQAAEQMAOAhubGujjjz+xoyhty4ADkKXpn33x1SxLQHYQAAEQAIF0CTz26BPpZkH6XgTgAGTZJFat+Zw+/mR1lqUgOwiAAAiAQKoEOtvb6LXX3ko1OdL1QQAOQB9g0rn97H9fTyc50oIACIAACGRB4Pnn/5tFbmTdRgAOgA1t4d33l9C69XU2lIQiQAAEQAAE+iMgzRjNfuLf/SXBsxQJwAFIEVR/yaQkmjP3zf6S4BkIgAAIgIANBN56422Km6YNJaEIOAA2tYHX3lpEmza12FQaigEBEAABENiJgDTpgQf+vtNt3MiMAByAzLjtlKu7q5v+PeeVne7jBgiAAAiAgD0EFrw9nzraO+wpDKUQHAAbG8H/XptP1t4AuEAABEAABOwlIPnt/967/2ZvoZqXBgfAxgYQi8Xp389jFMBGpCgKBEAABHoIvPnaG9TRibd/O5sDHAA7aXJZr7y+kOoammwuFcWBAAiAgL4E+MgfmjULb/92twA4ADYTjcfjNPvZl20uFcWBAAiAgL4EXp37CnV3xfQF4JDmcAAcAGtFBKzfUO9AySgSBEAABPQiYMZj9OCDj+iltEvawgFwALTJMapP/QejAA6gRZEgAAKaEZj70v8oFsPbvxNmhwPgBFUu880F79Paz2sdKh3FggAIgEDwCcRjXfT3hx4LvqIeaQgHwCHwkrcHfPixZx0qHcWCAAiAQPAJPP7PJ7Drn4NmhgPgINyPlq2kd99f6mANKBoEQAAEgkmgeWMTPffsi8FUThGt4AA4bIiHH38O81cOM0bxIAACwSNw+213BU8pxTSCA+CwQerqG+mFuTi32mHMKB4EQCBABFZ+spyWLV0eII3UVAUOgAt2eeo/c3FQkAucUQUIgEAQCJh0659mBkER5XWAA+CCiTo6O+lfz7zkQk2oAgRAAAT8TeDVl1/lF6ZmfyvhE+nhALhkqHm8RfCqNZ+7VBuqAQEQAAH/EYhx2N/99z3kP8F9KjEcAJcM1xMWyAsCrd+4QAAEQAAEdibw97/9A2F/O2Nx7A4cAMfQ7lzwx5+sJmskABcIgAAIgMCOBGrXraX/vYTTVN1sF3AA3KTNdf3jX3OoaSPmt1zGjupAAASUJmDSzb/7i9ISBlE4OAAuW7W9owM7BLrMHNWBAAioTWDOM3OooaFRbSEDKB0cAA+MOv/dD+mdRR95UDOqBAEQAAG1CDRvbKRHHvmXWkJpIg0cAI8M/cCjz9DmtnaPake1IAACIOA9AUGSbv79rd4LoqkEYV6T/m1NdfdU7Y2bWmjh4mVHHrr/hKmeCoLKQQAEQMAjAp+v/Wzep2vW3uNR9dpXK7Qn4CEADgkUDc30PAk6xkMxULXGBBpbEZaqsfk9Vd0QcuOoGqNcCGF6KojGlWMKwEPjc8OX3PK/zyJs9lAMVA0CIAACLhOQMppjnIrO32XsvaqDA+Atf6oqFh+zE3CZx2KgehAAARBwjUAkYtwztEzMda1CVJSQAKYAEmJx/2bdJvkPIegs92tGjToTwBSAztb3RvewIT8bWRMa7E3tqHV7AhgBUKQ9RCR9j3cJ/lQRcSAGCIAACNhOgGc94yFhHGF7wSgwIwJwADLCZn+mkhLRJAWdx04AFsTYjxclggAIKEAgHDWuGlYtPlFAFIjABOAAKNQMqorEXJ4GuEUhkSAKCIAACNhCIBqSr48oF7+3pTAUYgsBOAC2YLSvkMZC+hkfGYgTg+xDipJAAAQ8JmAYsi2PjOM9FgPV9yIAB0CxJjFaiE4S4hssVptiokEcEAABEEibgLXSPBI2TquuFq1pZ0YGRwnAAXAUb2aFVxSJj3iDgIsyy41cIAACIKAOgWhE3DGsQsxRRyJIso0AHABF20JliXiIt8nG+ZiK2gdigQAIJCcQDsl3hlWK7yZPiRReEIAD4AX1FOssL+INgiTNSzE5koEACICAMgR43r+lgBDyp4xBEggCByABFFVu8TaZ3fEQbw4k6XNVZIIcIAACIJCcgDRzDeMIzPsnJ+VlCjgAXtJPoe7qAWI9H5l5Ju8P0JVCciQBARAAAU8JWIv+ciPG/w2uEohm8tQSySuHA5CckecpyouN1/hD9RPPBYEAIAACIJCEQCQi/jG0UmD9UhJOKjzGWQAqWCFFGeqa5X1ssKkpJkcyEEhKAGcBJEWEBGkQCIXkqlHVoRFpZEFSDwlgBMBD+OlW3dVCP+A8b6ebD+lBAARAwGkCISFbIznGfk7Xg/LtIwAHwD6Wjpc0aJBo44UAJ3NF2EvbcdqoAARAIFUCBslYJGocNLRENKaaB+m8JwAHwHsbpCXBLkWijjNMlkRNaWVEYhAAARBwhICUobAxZWi5+MCR4lGoYwTgADiG1rmCe3YKJDqNwwM7nasFJYMACIBA/wS2rPgXPxlRJZ7pPyWeqkgADoCKVklBJuvkQFPStzk8kH0BXCAAAiDgPoGcsJg5tNL4nfs1o0Y7CMABsIOiR2VUlYiHuepfelQ9qgUBENCYQCQsXhxaJb6nMQLfq44wQJ+bUEop6lvoXoQH+tyQHomPMECPwPu82khIfjyiOjTa52poLz5GAHzeBHi7YFlRSNNYDczB+dyWEB8E/ECAD/ipjVYZe/tBVsjYPwE4AP3z8cVTdgK62grpDF4N8JIvBIaQIAACviTAsf5NImrsMUiINl8qAKF3IAAHICANYqgQ7Z2tNAmnBwbEoFADBBQjYPBGPySMMSNKxUbFRIM4GRKAA5AhOBWzWRsFGXGazLItUFE+yAQCIOBPAny0bzsf7bvXqBpR608NIHUiAnAAElHx8b2yMrEpSnQihwd+6GM1IDoIgIAiBEKG7IpGjAMGDhQrFREJYthEAA6ATSBVKqaoSNRTmI5jmbBlsEqGgSwg4DMCPOzfnWMYB2KXP58ZLkVx4QCkCMpvySoLxOehOB3LIwGf+k12yAsCIOA9AQ4wikUM4+jBVWKh99JAAicIwAFwgqoiZZaWilXsBBzG4ixXRCSIAQIg4AMC/OYfyw0bxw+rFq/4QFyImCEBOAAZgvNLNl4TsDpu0GG8YdD7fpEZcoIACHhHgDv/rkjYOHBIpUBYsXdmcKVmOACuYPa2kuoBYn1EiiP50IC3vJUEtYMACKhMgDv/dj7Zb8KwSoFIIpUNZZNscABsAql6MSV8Tnc4TiewE/Ca6rJCPhAAAfcJ8Gr/zTznv+eISrHE/dpRoxcE4AB4Qd2jOnlNwMbYZjqepwNe8EgEVAsCIKAgAe78N4YMsRvP+SNySEH7OCUSHACnyCpaLsfybm4qEtaOgU8oKiLEAgEQcJFA2JAbIrnGqOFVxjoXq0VVChDAaYAKGMELEXgUIMqnCN7JDeB8L+pHnWoQwGmAatjBKymsU/2sg32wt79XFvC2XowAeMvfs9qtA4Qqi8RUHgm4lPcK4KUBuEAABHQiEDHkXOtIX3T+Oll9R13hAOhr+x7NK4rFHw2DzmYXoENzFFAfBPQgwMN+0bC4fURN6Eg9FIaWfRGAA9AXGY3ulxeKR4Swdg2U9RqpDVVBQEMCUuZExGXDq8T3NVQeKvcigDUAaBJfEKjdKHcNGfQM39gNWPQggDUAetjZ0tIgGcvJNU4dUib+rY/W0LQ/AhgB6I+OZs+qS8TyiKSDeE3Aq5qpDnVBINAEuPPfHM0x9kHnH2gzp60cHIC0kQU7Q3GxaOhqpeNZy78FW1NoBwJ6EAiH5IpovjEUJ/rpYe90tMQUQDq0NEtb1yyn8eLAP/P6gKhmqmujLqYAgmtq68s9GqL/DKs2TgqultAsGwIYAciGXsDzcpjgHYago9kJwAYhAbc11AsWAd7TP55r0PfQ+QfLrnZrgxEAu4kGsLzPm2VlVNI/SNBRAVRPa5UwAhA88/O2vs1GjnHEiFLxbvC0g0Z2EoADYCfNAJfFIYLhhma6jp2AqwKspnaqwQEIlsmjIflRpMqYiM19gmVXp7TBFIBTZANWLu8cGONNg67mCIHzWLW2gKkHdUDA1wSsN7lIWNw6vDo0Fp2/r03pqvAYAXAVdzAq48WBe3DDsaIE9g2GRvpqgREA/9veOsY3HDZOH1Yh5vhfG2jgJgE4AG7SDlBd1pRAfTP9nFX6OUcJhAKkmlaqwAHwt7kjYbkoXxqHVleLVn9rAum9IAAHwAvqAaqzrkUeRSbdz07A4ACppY0qcAD8aWpBMh6NGlfwW/8f/KkBpFaBABwAFazgcxkaG2WxGaa/shrn+lwV7cSHA+A/k4cN+VlIGEcMqxaf+E96SKwSATgAKlnD57LUNsW+FYvH787hVxOfq6KN+HAA/GNq68s6FJIPjawOfcM/UkNSlQmEVRYOsvmLwIWX/GpAVWWZ8a1zJtOY0SP8JTykBQGFCXS2b6Zb/zyTPly85DWFxYRoPiOAEQCfGUxVcU8+9+rSUCS6jEhUWDLuv884Ou/rJ9OAgnxVRYZcTAAjAKo3A0nz33yb7ph5L5mmSbwrZ2PEjI5+8cW/NKguOeRTnwBWb6tvI19IuMe+x9woSBy9TdjP19fRq28uoqKiAhoyqMYXOugoZHuXjlr7Q+e21ma66cab6YXnXyKOutkitKA8U8Sjq1e885w/tICUKhPACIDK1vGJbKd85+e7y1jofY4EiCQSea9xo+l8Hg0oKy1O9Bj3PCSAEQAP4fdVNXf2L8x5nv7+8GMJU0iSMVPQ3q8+d9fihAlwEwRSJIARgBRBIVnfBEbveSSHAYo9+kpRW9dA815fSDk5URoxbBBx2r6S4r7LBDAC4DLwJNXV166ja6+5jt5+e2GfKXmkzTAkDeNRgIf6TIQHIJACAXwTpwAJSfomMGnqL44xyHih7xQ7Ptl1xBA694yv0vChu6SaBekcJIARAAfhplF0rLuTHv7bP2ju/15NORc7Al+dO+eOZ1POgIQg0IsAHAA0iYwJnHnmmaHO/DF84pgYn04h1gDAxL3H0VmnHU/lmBZIB53taeEA2I40zQJNXuQ3n+7kRX5xa5FfGhevCviorUFMWLDgju40siEpCHxBAFMAaAwZExg18cyLeTj/W5kUYC0SfPnVdygej9Oo4YM5vhlbB2TCMds8mALIlmCG+dkJXvfZWvrVtdfTvHmvf7nIL43iuIjKSJ6sXbPinbfTyIakIPAFAYwAoDFkRKB32F9GhWzNZC0OPH3y0XTw/hOyKQZ5MyCAEYAMoGWZxVrdf9tf76KPPlyaZUmcHWGB2TPUuASMAGhs/GxU7x32l01Z7R2d9M6iJbT0k9U0ZHANFRcNyKY45E2DAEYA0oCVZdJ4rIsee+QxuvVPM6meF8baciEs0BaMuhaCEQBdLZ+F3snC/rIomiMEiPYatzudNukoGor9A7JBmVJejACkhCmrRGY8Rm+89gbdP+thisViWZWVKDPCAhNRwb1UCGAr4FQoIc0OBGTMuLmvmP9sUVn7nSz6YCm9t3gZLxQcS6dPOpqqq8qzLRb5QcB9ApIX+L01n+66c5YjHf82hTgaIBwy5W/4/5PcVxI1+pkARgD8bD0PZE837C9bEa09AyxH4IxTjqHKirJsi0P+XgQwAmB/k5Dc8S/gjv/uu2dRd5f9b/x9SYywwL7I4H5fBOAA9EUG93cikGnY304FZXAjFArRoQfuTaeccASVlhZlUAKyJCIAByARlQzvccf//qL3aCaH9HW0d2RYSObZEBaYOTtdc2IKQFfLZ6B3R97Y77PHmFbMfwbVJMxihQvOfXVBz/kCBx8wIf6NM766KhIJj0qYGDdBwEUChjC73nj1zfD9D/zd8KLj36YqfzbH5JeZ0/j/f3FRfVTlYwIIvvax8dwU3Qr7E0JOd7PORHVZi6jmvrbgTzVl4d1I0HGc5ulE6XAPBJwmEDZkc05IXDeqJpR3x8z7/uRl579NV54G+OUxx1yMRTNOGz8g5cMBCIghnVbDiORw57/lqF+n6+qvfD4VrTFkdv6a1wbIikLxQkWRmBw3aB/O8wAvIHRvwrU/IfEs0ATCIVmbG6aLRtaEiodVi19wWzTNaPiXvBq/3nPFBZV1G10/91wOCOALAlgD4AszeSukk2F/6WrGu6Ve/PQDM/6aKF9TkxweC9ElguQF7KwUJkqDezsSwBqAVFuElOEQLTRI/Gh4tfFaolyHHXehtTPmrYmeuXkPYYFu0vZ3XRgB8Lf9XJGej/r9vVNhf+koYC1yallDd/SVp7RUrKosEpe1FYpqlvcsHi1I+ZCivsrEfb0J8LF7bZGweDBkGANHVof266vztyjVlGy6nTvf970mtiUsUNzotRyoX30CGAFQ30aeSuh22F9/yvJA64lPPvCr5/pL0/tZfbMcw9ulTuUv5gv47ayi93Pd/48RgAQtgD3HaJiWCGHMGFYl/pEgRZ+3Dj122jHsNCjheCIssE8z4cFWAnAA0BT6JOBl2F9voXh+f/bs+2ec0vt+qv9fJmVOeSudYpqSV0mLY3iEAG2f4cEB+LIFWW/7/Kb/eLSbLhs0SGQ8n3/4cRfN5tbl+aY8CAtM9dtB33SYAtDX9kk1t8L+0j3qN2mhGSTgzr9bhONXZpD1iyyjhegsLxSPVhYbVuTAGC7z1/z742zKRF7/EwgZsitiyHk5UXHCrjWhghFV4rxsOn+LCK8JvIxHnbq8prNdWKDXoqB+RQngLUhRw3gtlp2n/WWrC7/J3DJ71ozLsy0nUf6GFjmOFxaeySMC5/Lz3RKlCfI9HUcAOIAkxgv6FoeEuGNopZFwQWm2NudRgFt4FODSbMvJOj9OC8waYZALwAhAkK2bhW6qhf1loUq/WXlUYHFlsbiWwwl5kIDG88jADM7wSb+Z8NB3BDgyJB4Jy0W5Ebp41xojZ0RVaG+nOn8LDsICfddEtBQYIwBamr1/pf0S9te/Fpk/5TVgorFZHiRJnMKjDyeyYzAh89LUzhnkEQCe0283BC2KCOOewZV0txWv76Y1EBboJm3UlQkBbAWcCbWA5/FL2J9TZrA2GeKyrVhv6+fqdS2yKkp0BI8OTOYHk9hrLnWqbpSbOQF+y5d8ZMQGXr3/fNigW4dUGG9mXlr2Oa2wwPWbir/L6033zL60zEvYEhZIVljg5MxLQc4gEsAIQBCtmoVOfg/7y0L1lLLy6EC4roUOYhfBGhk4kZ2CffwcUeD3EYCelfvEG/SEjAeHVtA97Lx5vvhu+4aEsMCUPlZI5BEBOAAegVex2iCF/bnFt65OFopc+kpDw6ZJtRsaLtlt5BCKRCNuVZ91PX5yAKwvq+5YF4UN8VFuTvRZdsJuG1IllI/kQFhg1s0UBThEAFMADoH1Y7Fenva3PS87wv7c4l9ZKVq4rhemTJ2+nKcHLgmFDBq8Sw2NHjWUhg0dSLvvOpzKS4vdEidY9XBDaNvcQmtWf0rvvvsevfLKGz3H7PIQ/0lzn5u5yi/KWmGBUhrHc1QAzyR5d20XFojTAr0zg1I1YwRAKXN4J4wuYX9OEWYHYDg7ACsTlV9ZXkpDBlXToF2q2Dmo7vm7qqKMDMP7IBxVRgCkGaOW5hbaUFtLKz5ZRe+99wEtWZL45Z4dgBF+cgCsNoGwwESfDNzzmgBGALy2gCL1bwn7I8+3yu057U92WZv0BOaqa2gi6+ed95Z8oZM1TbBLdWWPMzB4q2NQVVVGpUVFZI0iBPGy3jakNKmzo50a6utpzZq1tOTDZfQOv923bW4Lospf6GSFBYru7m/ygjxvP2NfnhZ4WaCBQ7mUCGAEICVMwU6ke9ifHdbtbwQgnfJDvIy9cEA+FRcV8ihBKVVaPzyC0PNTWdoznWDnyIH9IwB8JnOsm9paN9PGTU20YX09ffrpWlqxYhUtX/4JdXdlf2KzH0cArDaAsMB0PglI6wYBjAC4QVnxOnQP+1PJPPF4nDvOlp6f1Z9+vpNoloMwoCCPf/KpgH+XFBfWTfvWGT8zSPKbpSjnaYhy9urLeSvafJ5zLrEK4FGVXI5UyOv5m4S1IIHD48laqTjAumeFz1lxj9bFD7b10CY/iG+918G/uzlzCz/faG2TIAyx/rlnXzy1rm5DUUM9j3DU1VHthjp+u1dqEf5WrdT4hbBANewAKb4k4PgIQPVjskpE6XD+8hjH1e7B3zTWjmul/LuEf/d8AfHfrfw3f7FQE/9eyressdLFspvm1X5NbIDBnCOAsD972No1ApC2NJJWP3X/jOFp57Mhw2HHXbSKP6/DbCgqrSL8OgJgKYmwwLRM7fvE1b9dXmXGxeHseI/jqJU9WKHR7GyX8uemhKTo6f9IyFbu+zZyZ9zETvdS/nuJIGOxEY7Nq71yV0f7P0dGAGqeMvfnt4RzWCHr4JVx1mvHNkuy4lt03s71sBwCvmlBGcG/9/0ibZhkzZNyMQObw/AeXn+qmL/tGX5nT6An7I/EH7IvKfsSuNHPfirNo36zrxUlgIC7BF554Y4XeUHg0yqcFmiSvHm//aa9uGDBHd3uUgh2beXXf7K/pjSqvQAAEJ9JREFUYYhzuNs7zozJcRy2sqXb29b3bVP/y17R6vusPrCn/9uSWJIZM2TFjSsXCynnmIb5cMNVu9re/9nmAJQ9I4uiMTmNO/7vsBJjtnX0WZl6y5Gt45nTeP7AXF79lPyQhyvv7TbFzIZTe8KvcGVBAGF/WcBDVhDIkADCAjMEp3C2sunLikJ54Wn8svsd7vDHWKL29O/ZdIRbHAfu+8R4Q4Yur7xxxYdc4r2m6JzZcNUYW/q/rJcbD35WllU/KWdEumkVa/tb1rdHeScuBjrWqiMsaDXXee3QpyW2ZM0QtBX2xzveTs8wu73ZBN361D3XWVM/uEAg8ATmzrl7OSvpyCmE6cLjd6xfHnPMxeXp5kP6LQSKfr+mrPLGlTO4819l9U3bOn9n+Iie/s+QOasrb1h5bfENq7Pu/zJ3APhVv2a2PL+7Uy7hTv+arUMYzujdq1SrLv6Z3hmn5VVPyEtousxcD1ckVq8SlU77yw3TdeoRgkQg4BwB0dU1Q5Ksd66GFEv+MiwwxQxI1kOA+7/KG1acH+2OW+vVruGOOevOOHWyXBf3f1GKL6+4YUVW/V9GHWflk3LXmtn0Cg93zOJRisrUBbc3JTsBZbyXyh+q96OXKx+Xo+wtPbilWWF/bLsfqKAhf45+8ejdMxpVkAUygIBbBObOnbWRP4PXulVff/VIIX94yAkXWou0caVAoPL6j3fluflX+G1/Fo9Ke9b/cf1l3P/+oSJv5cuVN63OqP9L2wEYOFuexqFAbzOng1Ng5UoSNsIhobBcWP2EPNuVCn1eCcL+fG5AiB8IAlZYII8CvO+1MltOCxTWaYG4khCoumHlaSRCb3PHq1D/Jw6huLmQnZK0+7/UHQAeZudFeLfwau3HucPtiS9W6xKFwqCHeW3A7zEl0LdlrLA/Hjk5ue8U7j0xTPOyuXNnZL8zjHsioyYQsI3Ao48+GpemocaOfIImHXH8tBNtUy5oBXH/x0P+t0hBj/Obt3r9n6BC7pcfZhnT6v9ScgDGPiKjNfvRg1zBparblTu3y2v2pQdopvTPkWwuQbXC/gyFwv6eRNifS5ZHNaoSsMICeSrgaRXk2xoWiO/N3saY/kG0Mm/lg9zxK9//sYyXs6zc/81PyY5JHQCr82/IoX8xk3N6c1H2/4LOrRnIMsMJ2MFEVtgfL1YZ77XdeBSpW4TjV3otB+oHARUIWGGB7AR4voUiv+CNyS8zp6nARBkZejr/fO7/hH/6PxLnVjaVcf+X3Ano3wHgFVrc+d/Jb9UnKWOQ1AU5mZ2AWZgO2AIMYX+pNxykBAE3CSAs0E3aadTF/V9FXsGd3Pn7sP8TJ7MTkLT/69cBqJ5NN3Pnf34ayFRLek71vvQb1YTyQh6E/XlBHXWCQGoEEBaYGic3U3F8/808KuLj/k+cU5G7qt/+r08HgLfgPdMPc/7JGgQ7MFdUPSl9NHyTTKP0nyPsL31myAECbhJAWKCbtJPXxYvpzvTFnH8SVaz+r+L6lX32fwkdgJ6YekE89BGMi8MWb6t6Wo4Mhjbpa4Gwv/SZIQcIuE0AYYFuE09cX09MvRCB6f84Ou62qhtWJ+z/dnYAeN4jFKb7GY11bGhQrmIRp/us3ZuColCqeiDsL1VSSAcC3hJQLSzwsGMvPMFbIv+/vbOLjeq44vjMXX8TgzFrg1ul2KbFAZomtFSqVNUJVckTYEilKOKFNgRQpapNKwy2VAWRFxISQdTmpaGlaRTxECUtoigvVK2CVakPtEkpJDgVONA23vWu18Z2/bm70zOLbTC7Xu7eO7t37tz/Shbm7p2Zc35n4X/u7JwZD0YnjRCplHH6R0cL5dS/rASg8Q9iD2HXZpMDVR8Bmgr51qqzfv4+p3ASsuyPC+tE4S3Vt5Cn/aHsTz1X9GgWAZ3KApnFT9BpgbbKyUyJQvjF63t02uRHGVfSv4aX+rLWMyxIAOTBPnTs7lFlg+rWERfHVv9e6LeJQ5E4ZU774+zhInVvu1uU/dlGhRtBgGafURboxcdAHuzDmGWs/tHkxrFlJ/oW6N+C44BnptlzlP2EvYBfmjF5Y7j3z0OP7NbjELzS+KzBKDjtT4MgwAS/EJBlge1b9srTAj3feIb04LX2J/a+5hd2buyMfXKBxVu+6aYLrdvSw2Bj+aT4ERn5wpyh8zMA9e+JpbQZxQ+19kCBcdEvfoOlyioV9IQu7BAQQiRw2p8dUrgHBO4Q0KYsMCBBSYcq2NCDXzPeW1oE9+MVL31cO+fofAJQkRT7KEMo4ZGG3rBOVlSzWOtXvRk8gKPitL8ABh0uuyagU1mga2d80MHw5zfSg2GVDyx1aaI8QVBU7Z3r5c4aAMF3u+zaN81jzUgAShEswdjHozfZ66UYC2OAgGkEdCkLNI1rLn+Gm76S67KR1zjLLPTPvDIJwKqz6a9T3b/ne8TPGVXsPydqG9h4XVOxhwl8/zjtL/AfAQBwQUCrskAXfujedKK2iU0tadDdTIX28fXho30bZYeZBICmaRfdKUjhqFp1FX/Q88XxWvFQbQzK/lQTRX9BJKBVWaChARhZtcFQz/K6tUu+m0kAOBdP5L3VwDdHGlsN9EoPl1D2p0ccYIUZBHQpCzSDZrYXY/Ut2ReNvyK+I120Vr4rGpng64339x4Hx5etZMnKmqC5XRp/UfZXGs4YJRAEdDot0DTgqYoaNl1jcOX7IgGjaoBHml65GrZ4BWun7/8Dt0UuTXuw0RWrF8GDy04JoOzPKTm0A4HFCaAscHE2bt4Zr/uCnAJ304U/29IGD8lkZbsl0sFZ/HdvpCaWNt57CX93SQBlfy4BojkI5CCAssAcUBRcCtbiv4XABBMbLEp+2hRw9GUXE7UrfGm3rkaj7E/XyMAuEwigLFB9FKdqgqsBtO1/m0ULtr6kHqs/epxEAqA0UCj7U4oTnYHAAgIoC1T/gZiuMX7vu8Whcb5WVgEEbwXELJIkLQDBSw0BlP2p4YheQCAfAZQF5qNT+Hup8uBqAK3XCssEYH5f4MLx+bsFzgRQEz+U/anhiF5AwA4BlAXaoWTvHnkGQHBfvNai9f8PBBVAqjzIwVcYdZT9KYSJrkAgPwGUBebnU8i76bJAawAlAHiBgAsCKPtzAQ9NQcAhAZQFOgSHZgsIWHQE8FhQmYRmpoPqujK/UfanDCU6AgHbBFAWaBtV3hutZKA1YFTOAIzmJWTwm6HklMHeFd81evr/CKf9FZ8zRgCBXARQFpiLSmHXrFSQEwCRSQDihSEz5+6y6XFznPHAE6oh/en77x9JejA0hgSBwBOQZYE0g/tc4EG4ABCaCa4G0GaAcbkR0Ccu+Pm6adXooK/t99J4lP15SR9jg8BtAj3nf/UnSgLOgYczApXjCWcNDWhFG7f1yhmAXgN8ceRC9VhgJz8c8ZprhLI/V/jQGASUEkBZoHOc5QFOAJgQmQTgsnN8/m5ZPRLztwNeWY+yP6/IY1wQyCKAssAsJLYvVI0FVwNoD4ArlphhPTSFRLMBwXpxcrk2fiNYTivwFmV/CiCiCxBQTABlgc6A1ty6yehJ2FljX7cS6VD5VI8V/S4fID+u+NoXB8ZXD0dY2VRwF4A4QJZpgrI/p+TQDgSKRwBlgc7YhmgheOV4IL8K/kf/gYfimY2AKP857wyff1stG7juX+M9shxlfx6Bx7AgYIMAygJtQMpxy5JEX46rZl8SjP9RephJAOhYwNNmu5vt3Yp//zP7Iq7kJYCyv7x48CYIeEoAZYHO8C+NBm8ZHLdua34mAYjs4BdpGiAwFKpHY6yGvgLAyz4BlP3ZZ4U7QcArAigLLJx89UiEVf4vSIsBxUexgy0fSlKZBCDz4uK3878b/kvDp3833EO17qHsTy1P9AYCxSSAssDC6db1Xyq8kU9b0PT/r+dMn08AZtL8l/Qf/ZBPfbJtdtn0BGu4jgTANjB5I8r+CsKFm0HASwIoCyycft1/P2Ch5GThDf3WQoiE4JMn58yeTwAGd3B5JsAv/OZPofau+tdfKdA4A8AuN5T92SWF+0BAHwIoCywsFvJMgPr/XCyskQ/vFpy9Onho3fz5P2V3+1AZYq9OpcQPaI/gBh/6ZsNkEb22ZnPbxe5v37JxM24BARAAAV8SyJQFMmbo/+PFCcmyoz9bXs7SvdxQblTtF6XDI35+N707awDo6s2tfIgJ3lUcvFr02jn0FIf4axEKGAECIAAC+hC41b2a9I8Zq3+ci86hrjUL9G9BAiBDEe1gv6FM4S/6hEWNJeTThcg2/paa3tALCIAACICAaQTiXc2kf8I4/aM4XaCV/1n6l5UAMEoT0km2mxoY86RM4j8sLPZ96ZtpH1j4AwIgAAIgoIgAaQS3QkbpH23fOsyFlVP/shMA4hh7kl+jld/PKkLqeTck+3sGtnJs/ed5JGAACIAACOhNIHZw9TXG0sboHz347hnoXp1T/3ImADI8NF3+DpUFHtc7VLasOxbp4L+zdSduAgEQAAEQCDyBWNead+jJ2ff6Rxp+LNbVsqj+LZoAyE9AdDs7QH+84dtPA21xHPkb6/at/TAcBEAABEDAEwIknAdoPcAbngyuZFBxOj7ZnFf/8iYA8jvzSD/bR1nEe0rsKW0n5yIR9j12hKdLOyxGAwEQAAEQ8D0B0r/48sQ+Oi7Pf/on2LnY8sR99S9/AiAjuJ/PRJeyDvrtlF8CSiv93qLE5Ulpu19shp0gAAIgAAKaEdi/aSY2cYP0T/hK/2L1g6R/m+6rfws2AloU/WaejAjx7MqzLMF55msBPV80X0OLF1+ObqNaTqz41zNGsAoEQAAE/ETgyOZkjPQv/OKnmusf7dvK+MtUykj612Kr4u3+MwBzgSJBjXbwTtolaaeWZwYINkIePx3Zzg9B/P30rwu2ggAIgIDmBOTXAd0tnfQAvJNmA3Q8M2eEtvl9mmwsSP/sJwCz8enfzs+IENtESUCPLiGTm/zQz6OUoLyti02wAwRAAARAwCwCA4daznAR2kRzzdroHxG+YIX4o/Gu1oL1r+AEQIZT1tRThcBjNN1OGyaIAa9CTElIgmr899OU/+Mk/n1e2YFxQQAEQAAEgkFA1tTHupofozLB3aRBnukfjZ+gSf/9sUPNj0c7mx3pn6MEIBNmWSGwjb9ZmeJt9LfDUoxLFX562h+kDOz56SnW2t/BX8eUf6nIYxwQAAEQAAGpObHu1jdnqlgbifBhKcalokJL3Qbp5/kkF63x7lZX+mdvEWAez27s5PLUqRca3hbHQ1VMlkw8Q9nBhjxNnL8l2GWadTiVnmQnY0/xMecdoSUIgAAIgAAIuCNw6yctt/Xv8OXjonrJPkoEnqHTdIuif/Tge5kefE/xyfGTsSNfVqJ/rhOAOXyzgix3Tjr+uTNiY4qzXbRgcAsJ9sN0zelMQ5qyq0uc8fNWiJ3+bCv/0F240BoEQAAEQAAE1BKYFeSM/oWP9m2kP3eR9m3hTJD+cYf6J0j/2CWabThPPZyOH2xRrn/KEoC7cX62g39Af5c/rOmsCJMT7QRjPWUv6wQXa+l7+3oqV6ijaw9k2gk2RqCGaRVjgo4j7qWVllfp54pcaBHpsOJ3943fQQAEQAAEQEBXArQS/47+vXI1nExWttOD7HrStHWkb2tJA+tJA0n/+Kz+iTHSPjqwh9PXCKKXnvSvWoxfCZVP9/QfeKio+vd/wmTZ9bFKAN8AAAAASUVORK5CYII=;" parent="7rwIcCHh1IAPN4iYdqem-46" vertex="1">
          <mxGeometry x="90" width="52" height="52" as="geometry" />
        </mxCell>
        <mxCell id="7rwIcCHh1IAPN4iYdqem-42" value="" style="edgeStyle=orthogonalEdgeStyle;rounded=0;orthogonalLoop=1;jettySize=auto;html=1;" parent="7rwIcCHh1IAPN4iYdqem-46" source="7rwIcCHh1IAPN4iYdqem-41" target="7rwIcCHh1IAPN4iYdqem-40" edge="1">
          <mxGeometry relative="1" as="geometry" />
        </mxCell>
        <mxCell id="7rwIcCHh1IAPN4iYdqem-41" value="Player" style="html=1;whiteSpace=wrap;aspect=fixed;shape=isoRectangle;" parent="7rwIcCHh1IAPN4iYdqem-46" vertex="1">
          <mxGeometry y="7" width="63.33" height="38" as="geometry" />
        </mxCell>
        <mxCell id="7rwIcCHh1IAPN4iYdqem-43" value="Projection of VIs" style="html=1;whiteSpace=wrap;aspect=fixed;shape=isoRectangle;fontSize=6;" parent="7rwIcCHh1IAPN4iYdqem-46" vertex="1">
          <mxGeometry x="176" y="-15" width="63.33" height="38" as="geometry" />
        </mxCell>
        <mxCell id="2HPoQdIpM-jfSS1lZp4g-1" value="&lt;font style=&quot;font-size: 5px;&quot;&gt;Naive&lt;/font&gt;&lt;div style=&quot;font-size: 5px;&quot;&gt;&lt;font style=&quot;font-size: 5px;&quot;&gt;projection of TOI&lt;/font&gt;&lt;/div&gt;" style="html=1;whiteSpace=wrap;aspect=fixed;shape=isoRectangle;fontSize=6;" parent="7rwIcCHh1IAPN4iYdqem-46" vertex="1">
          <mxGeometry x="176" y="40" width="63.33" height="38" as="geometry" />
        </mxCell>
        <mxCell id="2HPoQdIpM-jfSS1lZp4g-2" style="edgeStyle=orthogonalEdgeStyle;rounded=0;orthogonalLoop=1;jettySize=auto;html=1;exitX=1;exitY=0.5;exitDx=0;exitDy=0;entryX=0.116;entryY=0.474;entryDx=0;entryDy=0;entryPerimeter=0;" parent="7rwIcCHh1IAPN4iYdqem-46" source="7rwIcCHh1IAPN4iYdqem-40" target="2HPoQdIpM-jfSS1lZp4g-1" edge="1">
          <mxGeometry relative="1" as="geometry" />
        </mxCell>
        <mxCell id="2HPoQdIpM-jfSS1lZp4g-3" style="edgeStyle=orthogonalEdgeStyle;rounded=0;orthogonalLoop=1;jettySize=auto;html=1;exitX=1;exitY=0.5;exitDx=0;exitDy=0;entryX=0.032;entryY=0.482;entryDx=0;entryDy=0;entryPerimeter=0;" parent="7rwIcCHh1IAPN4iYdqem-46" source="7rwIcCHh1IAPN4iYdqem-40" target="7rwIcCHh1IAPN4iYdqem-43" edge="1">
          <mxGeometry relative="1" as="geometry" />
        </mxCell>
        <mxCell id="2HPoQdIpM-jfSS1lZp4g-4" value="Projected rosters (tabular)" style="rounded=0;whiteSpace=wrap;html=1;" parent="1" vertex="1">
          <mxGeometry x="370" y="210" width="90" height="30" as="geometry" />
        </mxCell>
        <mxCell id="2HPoQdIpM-jfSS1lZp4g-9" style="edgeStyle=orthogonalEdgeStyle;rounded=0;orthogonalLoop=1;jettySize=auto;html=1;exitX=1;exitY=0.5;exitDx=0;exitDy=0;entryX=0.011;entryY=0.497;entryDx=0;entryDy=0;entryPerimeter=0;" parent="1" source="2HPoQdIpM-jfSS1lZp4g-4" target="7rwIcCHh1IAPN4iYdqem-41" edge="1">
          <mxGeometry relative="1" as="geometry" />
        </mxCell>
        <mxCell id="2HPoQdIpM-jfSS1lZp4g-10" style="edgeStyle=orthogonalEdgeStyle;rounded=0;orthogonalLoop=1;jettySize=auto;html=1;exitX=0.75;exitY=1;exitDx=0;exitDy=0;entryX=0.105;entryY=0.373;entryDx=0;entryDy=0;entryPerimeter=0;" parent="1" source="7rwIcCHh1IAPN4iYdqem-21" target="7rwIcCHh1IAPN4iYdqem-41" edge="1">
          <mxGeometry relative="1" as="geometry">
            <Array as="points">
              <mxPoint x="365" y="190" />
              <mxPoint x="500" y="190" />
              <mxPoint x="500" y="221" />
            </Array>
          </mxGeometry>
        </mxCell>
        <mxCell id="2HPoQdIpM-jfSS1lZp4g-12" value="lineup_projector" style="shape=mxgraph.bpmn.data;labelPosition=center;verticalLabelPosition=bottom;align=center;verticalAlign=top;size=15;html=1;bpmnTransferType=input;" parent="1" vertex="1">
          <mxGeometry x="710" y="310" width="35" height="40" as="geometry" />
        </mxCell>
        <mxCell id="2HPoQdIpM-jfSS1lZp4g-13" style="edgeStyle=orthogonalEdgeStyle;rounded=0;orthogonalLoop=1;jettySize=auto;html=1;exitX=1;exitY=0.5;exitDx=0;exitDy=0;entryX=0;entryY=0.5;entryDx=0;entryDy=0;entryPerimeter=0;" parent="1" source="7rwIcCHh1IAPN4iYdqem-5" target="2HPoQdIpM-jfSS1lZp4g-12" edge="1">
          <mxGeometry relative="1" as="geometry" />
        </mxCell>
        <mxCell id="2HPoQdIpM-jfSS1lZp4g-14" style="edgeStyle=orthogonalEdgeStyle;rounded=0;orthogonalLoop=1;jettySize=auto;html=1;entryX=0.5;entryY=0;entryDx=0;entryDy=0;entryPerimeter=0;" parent="1" source="2HPoQdIpM-jfSS1lZp4g-1" target="2HPoQdIpM-jfSS1lZp4g-12" edge="1">
          <mxGeometry relative="1" as="geometry" />
        </mxCell>
        <mxCell id="2HPoQdIpM-jfSS1lZp4g-48" style="edgeStyle=orthogonalEdgeStyle;rounded=0;orthogonalLoop=1;jettySize=auto;html=1;" parent="1" source="2HPoQdIpM-jfSS1lZp4g-17" edge="1">
          <mxGeometry relative="1" as="geometry">
            <mxPoint x="920" y="259" as="targetPoint" />
          </mxGeometry>
        </mxCell>
        <mxCell id="2HPoQdIpM-jfSS1lZp4g-17" value="&lt;div style=&quot;font-size: 5px;&quot;&gt;&lt;font style=&quot;font-size: 5px;&quot;&gt;Projection of TOI&lt;/font&gt;&lt;/div&gt;" style="html=1;whiteSpace=wrap;aspect=fixed;shape=isoRectangle;fontSize=6;" parent="1" vertex="1">
          <mxGeometry x="777" y="240" width="63.33" height="38" as="geometry" />
        </mxCell>
        <mxCell id="2HPoQdIpM-jfSS1lZp4g-18" style="edgeStyle=orthogonalEdgeStyle;rounded=0;orthogonalLoop=1;jettySize=auto;html=1;exitX=0;exitY=0;exitDx=35;exitDy=15;exitPerimeter=0;entryX=0.163;entryY=0.645;entryDx=0;entryDy=0;entryPerimeter=0;" parent="1" source="2HPoQdIpM-jfSS1lZp4g-12" target="2HPoQdIpM-jfSS1lZp4g-17" edge="1">
          <mxGeometry relative="1" as="geometry">
            <Array as="points">
              <mxPoint x="770" y="325" />
              <mxPoint x="770" y="265" />
            </Array>
          </mxGeometry>
        </mxCell>
        <mxCell id="2HPoQdIpM-jfSS1lZp4g-47" style="edgeStyle=orthogonalEdgeStyle;rounded=0;orthogonalLoop=1;jettySize=auto;html=1;" parent="1" edge="1">
          <mxGeometry relative="1" as="geometry">
            <mxPoint x="920" y="259" as="targetPoint" />
            <mxPoint x="840.3299999999999" y="308" as="sourcePoint" />
            <Array as="points">
              <mxPoint x="840" y="310" />
              <mxPoint x="860" y="310" />
              <mxPoint x="860" y="259" />
            </Array>
          </mxGeometry>
        </mxCell>
        <mxCell id="2HPoQdIpM-jfSS1lZp4g-19" value="&lt;div style=&quot;font-size: 5px;&quot;&gt;Projection teammates value&lt;/div&gt;" style="html=1;whiteSpace=wrap;aspect=fixed;shape=isoRectangle;fontSize=6;" parent="1" vertex="1">
          <mxGeometry x="777" y="290" width="63.33" height="38" as="geometry" />
        </mxCell>
        <mxCell id="2HPoQdIpM-jfSS1lZp4g-20" style="edgeStyle=orthogonalEdgeStyle;rounded=0;orthogonalLoop=1;jettySize=auto;html=1;exitX=0;exitY=0;exitDx=35;exitDy=15;exitPerimeter=0;entryX=0.421;entryY=0.917;entryDx=0;entryDy=0;entryPerimeter=0;" parent="1" source="2HPoQdIpM-jfSS1lZp4g-12" target="2HPoQdIpM-jfSS1lZp4g-19" edge="1">
          <mxGeometry relative="1" as="geometry" />
        </mxCell>
        <mxCell id="2HPoQdIpM-jfSS1lZp4g-29" style="edgeStyle=orthogonalEdgeStyle;rounded=0;orthogonalLoop=1;jettySize=auto;html=1;exitX=0;exitY=0;exitDx=35;exitDy=15;exitPerimeter=0;" parent="1" source="2HPoQdIpM-jfSS1lZp4g-22" target="2HPoQdIpM-jfSS1lZp4g-28" edge="1">
          <mxGeometry relative="1" as="geometry" />
        </mxCell>
        <mxCell id="2HPoQdIpM-jfSS1lZp4g-22" value="load_data_random_forest" style="shape=mxgraph.bpmn.data;labelPosition=center;verticalLabelPosition=bottom;align=center;verticalAlign=top;size=15;html=1;bpmnTransferType=input;" parent="1" vertex="1">
          <mxGeometry x="240" y="430" width="35" height="40" as="geometry" />
        </mxCell>
        <mxCell id="2HPoQdIpM-jfSS1lZp4g-23" style="edgeStyle=orthogonalEdgeStyle;rounded=0;orthogonalLoop=1;jettySize=auto;html=1;exitX=0.5;exitY=1;exitDx=0;exitDy=0;entryX=0;entryY=0.5;entryDx=0;entryDy=0;entryPerimeter=0;" parent="1" source="7rwIcCHh1IAPN4iYdqem-4" target="2HPoQdIpM-jfSS1lZp4g-22" edge="1">
          <mxGeometry relative="1" as="geometry" />
        </mxCell>
        <mxCell id="2HPoQdIpM-jfSS1lZp4g-24" style="edgeStyle=orthogonalEdgeStyle;rounded=0;orthogonalLoop=1;jettySize=auto;html=1;exitX=0;exitY=0.5;exitDx=0;exitDy=0;entryX=0.5;entryY=0;entryDx=0;entryDy=0;entryPerimeter=0;" parent="1" source="7rwIcCHh1IAPN4iYdqem-5" target="2HPoQdIpM-jfSS1lZp4g-22" edge="1">
          <mxGeometry relative="1" as="geometry" />
        </mxCell>
        <mxCell id="2HPoQdIpM-jfSS1lZp4g-28" value="data_random_forest (tabular)" style="rounded=0;whiteSpace=wrap;html=1;" parent="1" vertex="1">
          <mxGeometry x="371" y="430" width="119" height="30" as="geometry" />
        </mxCell>
        <mxCell id="2HPoQdIpM-jfSS1lZp4g-31" value="" style="group" parent="1" vertex="1" connectable="0">
          <mxGeometry x="580" y="400" width="60" height="70" as="geometry" />
        </mxCell>
        <mxCell id="2HPoQdIpM-jfSS1lZp4g-32" value="" style="shape=image;verticalLabelPosition=bottom;labelBackgroundColor=default;verticalAlign=top;aspect=fixed;imageAspect=0;image=https://colab.research.google.com/img/colab_favicon_256px.png;" parent="2HPoQdIpM-jfSS1lZp4g-31" vertex="1">
          <mxGeometry width="60" height="60" as="geometry" />
        </mxCell>
        <mxCell id="2HPoQdIpM-jfSS1lZp4g-33" value="train_random_forest" style="shape=mxgraph.bpmn.data;labelPosition=center;verticalLabelPosition=bottom;align=center;verticalAlign=top;size=15;html=1;bpmnTransferType=input;" parent="2HPoQdIpM-jfSS1lZp4g-31" vertex="1">
          <mxGeometry y="30" width="35" height="40" as="geometry" />
        </mxCell>
        <mxCell id="2HPoQdIpM-jfSS1lZp4g-34" style="edgeStyle=orthogonalEdgeStyle;rounded=0;orthogonalLoop=1;jettySize=auto;html=1;exitX=1;exitY=0.5;exitDx=0;exitDy=0;entryX=0.019;entryY=0.364;entryDx=0;entryDy=0;entryPerimeter=0;" parent="1" source="2HPoQdIpM-jfSS1lZp4g-28" target="2HPoQdIpM-jfSS1lZp4g-33" edge="1">
          <mxGeometry relative="1" as="geometry" />
        </mxCell>
        <mxCell id="2HPoQdIpM-jfSS1lZp4g-41" style="edgeStyle=orthogonalEdgeStyle;rounded=0;orthogonalLoop=1;jettySize=auto;html=1;exitX=0;exitY=0;exitDx=35;exitDy=27.5;exitPerimeter=0;fillColor=#dae8fc;gradientColor=#7ea6e0;strokeColor=#6c8ebf;strokeWidth=6;" parent="1" source="2HPoQdIpM-jfSS1lZp4g-33" target="2HPoQdIpM-jfSS1lZp4g-36" edge="1">
          <mxGeometry relative="1" as="geometry">
            <mxPoint x="1040" y="300" as="targetPoint" />
          </mxGeometry>
        </mxCell>
        <mxCell id="2HPoQdIpM-jfSS1lZp4g-43" value="" style="group" parent="1" vertex="1" connectable="0">
          <mxGeometry x="920" y="203" width="233.32999999999993" height="82.00000000000011" as="geometry" />
        </mxCell>
        <mxCell id="2HPoQdIpM-jfSS1lZp4g-35" value="" style="group;movableLabel=1;noLabel=0;" parent="2HPoQdIpM-jfSS1lZp4g-43" vertex="1" connectable="0">
          <mxGeometry y="30.000000000000114" width="233.33000000000004" height="52" as="geometry" />
        </mxCell>
        <mxCell id="2HPoQdIpM-jfSS1lZp4g-37" value="" style="edgeStyle=orthogonalEdgeStyle;rounded=0;orthogonalLoop=1;jettySize=auto;html=1;" parent="2HPoQdIpM-jfSS1lZp4g-35" source="2HPoQdIpM-jfSS1lZp4g-38" target="2HPoQdIpM-jfSS1lZp4g-36" edge="1">
          <mxGeometry relative="1" as="geometry" />
        </mxCell>
        <mxCell id="2HPoQdIpM-jfSS1lZp4g-38" value="&lt;font style=&quot;font-size: 10px;&quot;&gt;player_id&lt;/font&gt;" style="html=1;whiteSpace=wrap;aspect=fixed;shape=isoRectangle;" parent="2HPoQdIpM-jfSS1lZp4g-35" vertex="1">
          <mxGeometry y="7" width="63.33" height="38" as="geometry" />
        </mxCell>
        <mxCell id="2HPoQdIpM-jfSS1lZp4g-39" value="Points" style="html=1;whiteSpace=wrap;aspect=fixed;shape=isoRectangle;" parent="2HPoQdIpM-jfSS1lZp4g-35" vertex="1">
          <mxGeometry x="170" y="7" width="63.33" height="38" as="geometry" />
        </mxCell>
        <mxCell id="2HPoQdIpM-jfSS1lZp4g-40" style="edgeStyle=orthogonalEdgeStyle;rounded=0;orthogonalLoop=1;jettySize=auto;html=1;exitX=1;exitY=0.5;exitDx=0;exitDy=0;entryX=-0.004;entryY=0.525;entryDx=0;entryDy=0;entryPerimeter=0;" parent="2HPoQdIpM-jfSS1lZp4g-35" source="2HPoQdIpM-jfSS1lZp4g-36" target="2HPoQdIpM-jfSS1lZp4g-39" edge="1">
          <mxGeometry relative="1" as="geometry" />
        </mxCell>
        <mxCell id="2HPoQdIpM-jfSS1lZp4g-36" value="" style="shape=image;verticalLabelPosition=bottom;labelBackgroundColor=default;verticalAlign=top;aspect=fixed;imageAspect=0;image=data:image/png,iVBORw0KGgoAAAANSUhEUgAAAgAAAAIACAYAAAD0eNT6AAAABHNCSVQICAgIfAhkiAAAIABJREFUeF7snQecVsX198/cp2xje0U6KEpRLGjsvUVB1KhREyWJSorJ3xKN5k0ikhg1JtEUE8WOGk00GhVjFDUGsQsiKgqINFFYtsHusvV57rznLqCwPLtPu2Xund/9fJZd7p1yzvfM88y5M3NmBDl8VT8mq0SUDidJ47iqPaSk0UJQKf8u4d8DrOr571b+eyP/buLfS/nWEv5ZLLtpXu3XxAaHRUTxIJA1gSlTpw+XRCuzLijdAiStfur+GcPTzWZH+sOOu2gVf16H2VFWOmUIYYyY+9zMVenkQVoQ8IJA9W+XV5lxcbgkMU5I2oNlGM3fE6X8uSkhKXr6PxKylfu+jYKoibj/47+XCDIWG+HYvNord3W0/ws7AaXmKXN/KcU5rNBxXP447vz5zy0XK95zbfu99e9S/m1BGcG/992SgtOESdY8KRczsDkM7+H1p4r5257hNwiAAAiAAAioRqD8+k/2NwxxDnd7x5kxOY47uy3d3ba+b5vAX/aKVt9n9YE9/d+WxJLMmCErbly5WEg5xzTMhxuu2tX2/s82B6DsGVkUjclp3PF/h5UYs30Hn7GBRI/jMJ7/Gc9/XV79lPxQkLy32xQzG04VLRmXi4wgAAIgAAIgYBOBsunLikJ54Wn8svsd7vDHWMX29O/ZdIRbHAfu+8R4Q4Yur7xxxYdc4r2m6JzZcNUYW/q/rB2Awc/Ksu5OuoS66UcsqOXJOHZx0WOZ6G/Dgv5f9ZPyTzkh+uOaSaLJsQpRMAiAAAiAAAj0QaDo92vKcrrjl/BE9o+4byr9cqy7jwxZ3Rbc/9FvDZnz/ypvWPmnLjL+uOmnw7Lq/4yM5eFX/ZrZ8vzuTrmEO/1rtg5hZFxcOhmtuvhnemecllc9IS+h6TJzPdKpGGlBAARAAARAgPu/yhtWnB/tjlvr1a7p6fxdu3ocjelRii+vuGFFVv1fRh1n5ZNy15rZ9AoPd8ziUYpK1/TuVRE7AWWGQX+o3o9ernxcjvJKDtQLAiAAAiCgB4HK6z/elefmX+ER71k8Ku1Z/8f1l3H/+4eKvJUvV960OqP+L20HYOBseZoh6G029cGqmJuNcEgoLBdWPyHPVkUmyAECIAACIBAsAlU3rDyNROht7ngV6v/EIRQ3F7JTknb/l7oDwMPsvAjvFg5ReJw73BL1zCoKhUEP89qA32NKQD3rQCIQAAEQ8C0B7v94yP8WKehxfvNWr/8TVMj98sMsY1r9X0oOwNhHZLRmP3qQK7hUdQPytMDlNfvSAzRTRlSXFfKBAAiAAAgoTmD6B9HKvJUPcsevfP/HMl7OsnL/Nz+l/i+pA2B1/g059C820TmKm+lL8QSdWzOQZYYT4BuTQVAQAAEQUI5AT+efz/2f8E//R+LcyqYy7v+SOwH9OwC80pE7/zv5rfok5QyTXKCT2QmYhemA5KCQAgRAAARAoBcB7v8q8gru5M7fh/2fOJmdgKT9X78OQPVsupk7//N93DDOqd6XfuNj+SE6CIAACICABwQqb1x5M097+7j/E+dU5K7qt//r0wHgLXjP9MOcf7J2wQ7MFVVPSh8N3yTTCM9BAARAAAScJMCL6c70xZx/EghW/1dx/co++7+EDkBPTL0gHvoIxsVhi7dVPS1HBkMbaAECIAACIOAUgZ6YeiEC0/9xdNxtVTesTtj/7ewA8LxHKEz3M9xipwB7UG6xiNN9fOwgD2rgAgEQAAEQAIEEBLiPkPF44Po/PlooYf+3kwNQNVtewFiU2eQggYkyusVDIYfVPOXn+ZyM1EYmEAABEACBFAlU3LjiApU2+UlR7OTJuP+r/M3KndYz7OAAWAf78LG7NyQvzacphLxp2L+keps4+BQnxAYBEACBoBCwDvYhMgLb//Hgxk3Ft6zcof/b4TTA7i66lL2fiqAYdGc9RFXF0peaJkydvvMj3ElIQErZGJJdo5944MaGhAlwEwRAQDkCh578/VLR3b2MT1QP8Pe5vdjrlr1M9SMOsbdQhUrjUfCqSIf8Pxbpl9vE+mIEoOwZWcSH+/xQIXkdEaV21wMpHs5xpOwgFsoOYZkpoj8Pom7QCQSCSoA7/+no/FO3rhmKUtOQ/VLP4NOUvAjukvLffFS4TfwvHIBoTE5jD8HFIw29IRiL5lHdyH29qdyvtQr64eTzfz7Or+JDbhDQicDBJ3xnd/6i/4FOOmer68ZB+/CLYW62xaif3zpBUOZetE3QL9cASDFVfentkbBuOByA9EiKsBDGjenlQWoQAAEvCIRN4/e8e11Ke8F7IZ+KdW4cuJeKYjkik6Cehf49V48DUPOUuT/H/Y/fdjPov9sLK6mtZGDQ1bRZPzFpynm/OMHmQlEcCICAjQQOPXbaMRzDfrKNRQa+qPbCgdRZUBl4Pb9UUIytuGHlPtb/exwAXh3Y505BQaVSP2TPoKrmmF6mYdwybdo0vFk4RhgFg0DmBM4888yQMMxbMi9Bz5zNNVrObp5rWbvHARBCHq+b6ZurRuqmctb68rzimPWdNdOyLggFgAAI2E5g/aaS7/PCP7zZpEm2tWxEmjmCkFwea2lhVD8mq0iKsUFQKR0d2oqrKZaTn04WpGUCUtIvTz3v6nLAAAEQUIeAFfbHn07EN6dpkng0n7ry9YuU5Je5CQN/t6TCEFE6nOf/9dsil0MeWsqHpdlckBxhgWgDIKAeAYT9ZWaTtpKh1hB4Zpn9nIu/yGOxnMMNaeqz+K+3vdqLqnrfwv9TIYCwwFQoIQ0IuEIAYX+ZY9Zr8d+OnCTJcQY7P7tnjs/fOdsLMZKdmQURFpgZN+QCAfsJIOwvc6ad+fr2Abzt/+4Gz+nuljk+f+fsgAOQhQERFpgFPGQFAVsIIOwvO4xd+YHf+65vQEKMtqIA9FsBsRVJjBeA4MqcAMICM2eHnCCQLQGE/WVLkCge0bcP4HNeKiwH4It9gbPH6a8ScCZAdvZCWGB2/JAbBLIhgLC/bOhtyWudAaDvJQoNXv8/QFcA8YjOxrfH6ggLtIcjSgGBdAgg7C8dWn2nNcNa9wHsAOACgSwIICwwC3jICgIZEkDYX4bgkG0HAgYfAdyqK5NQd5euqturN8IC7eWJ0kCgHwII++sHTpqPjJjWfUCLNQLQkiazwCQPxToDo4u3iiAs0Fv+qF0nAgj7s8/aRlxnB0D2OAD19uH0V0nhrjZ/Cay0tGLS5KnTT1RaRAgHAj4ngLA/ew0Y6ta3D+Dp23prI6Bl9iL1T2m5LQ3+EdYfkt6M0wL9YShI6T8CW8L+5B/8J7m6Eue0NaornMOSSaKl1gjAUofrUbb4vFZtBz8csQnCAh3BikJBoIfAlrA/fbdud6IZRDR2APhktx4H4AMnwPqhzLzmOj+I6SsZERboK3NBWJ8QQNifM4bKbdW3D+A9ABYbspvmcSQAjwbodQlWubB+tV5Ku6AtwgJdgIwqtCOAsD9nTJ6/aU3PGef6XdIMRTrnGbVfExtY+cW6AcjbuJ7CnfouAHHU3ggLdBQvCteLAML+nLN3iBeC57RpORW8aN0Ve9T3bATE/s/zziFWs+TiDSvUFCwQUiEsMBBmhBJKEEDYn7NmKGhc6WwFCpYuSbxgidXjAPCxgA8pKKOjIpV/+r6j5aNwhAWiDYBAtgQQ9pctweT5i2r1WwYnjC19fo8DsP5UMZ+HAbShkNdSR/k8BYDLcQIIC3QcMSoIKgGE/blj2bzm9ZSzWafFgPLDup+MeNei2+MA9FxCzvri74D/UbnqnYBrqIZ6CAtUww6Qwp8EEPbnnt1K1r3nXmUe18TD/3dvE+ELB6DbFDN5MWSTx7I5Xn24q50qV8ABcBz01goQFugWadQTJAII+3PXmiWfLaRQrMPdSr2oTcpGKTru3Fb1Fw5Aw6nCOhPgz17I5GadNR+/wYbGGQBuMUdYoFukUU+QCCDsz11rWmcClK2d726lHtQmBf2h4aoxX5z/E95ehpwQ/aEzLr/PX9qVHsjmQpWy9pNRR+0+/6dHb3KhMs+rOGXqNRfz3M6tnguyJSzwrtn3X6dduKnn7CGA7wj0hP1J+oESgku6+OXn7/yrErI4LETxDT8vjZC5lKcuA9n/cbRfbZzkn7bH+OUaAL67ZpJoIimudpizl8Vf2XSW0KLztyDntH10Ow/BKxDugLBALxs96vYXAWXC/qT8UHTtcoe/6GUu7aafDuP+jwLb/wkhr2y6etQO/d8ODoCFrnYK3cuewquZY1QzJ+v08vrJ4kE1pXNGqkcffTTOyzwvdab0dEtFWGC6xJBePwIqhf3xy8Plc+fOiOlkhfqrh3P/JwPX/7ENX+aV/zv1fzs5AMRughmjqZwhMG/K3PlvlAZ929JNp8Zs6Tr7vhn/5a2enlZEb4QFKmIIiKEeAZXC/rgTnD3vhbueU4+SwxJxHyGMUKD6P97qeKOQRsL+b2cHgPnWnS4+IUEXOozateK5279gwySh7dZ/Mi4u4w90l2vA+6gIYYF9gMFtEGAC6oT9ye64MK/U1Sh1Pxn2CZEZmP6PX3wv2PDTYQn7v4QOgGV4Hi7/Jw8B3RyARnDT+ini8QDokbEKsx+csZydICUW8iAsMGMzImOACSgW9nfra8/do+0x8VYzq7t61D/5zdn3/R9/395Ud/WIPvu/Ph0AC0LtKXQF/7rPt5873uJ4/QL6qW/lt1FwjuyYwVMBnp96gbBAG42KogJDQJmwP0mNXSSvCwzYLBThjvMKHjm9L4siPM4qH6rvGN5v/9evA2DNma9fR9PYi3jGY00yqf7p9evpWzRDmJlkDlqeJ2fN2Mg6XauEXjgtUAkzQAg1CCh22t8v3phzd6MaZDyWgvu/+tLGafzi5L/+T9LTdaWNSfu//h0Ai/93RXdtEU3hv+7x2BwpV88r/R5kx+V0S/aUM2mQEGGBGhgZKvqOgCphf/y9+ZFOYX8pNZTvTuyua1/N/Z/0Vf9XV9bA/d/EpP1fcgfAonSUiK2fTBfySMDvUoLmVSIer+Gqb6qdTOej89/ZCFZYoBTmZTs/8eIOwgK9oI461SKgUtgfmfIy3cL+UmoNM46K1V01wgf9n+SLbqq/ajj3f8k7f0v31BwAKyUPh9ROEVfySu7TuBL1zgyQ1My9/9nrTxFX6Rjul1JD5kRPz/rViwgLTJUW0oGAcwQQ9uccW9tLtqYDfjriSiHoNP7+VK//I+7/BJ3NMqbV/6XuAGwluu4U8YQM0UR2AubZDjnDArnjf5l/9mYH5ZEMi9AqG8ICtTI3lFWUAML+FDVMP2JtuGrEE0KGJvJYszL9H4v7shESe9dfPTLt/i9tB8BiY8XUc4TAEbxXAG+YIDf0w8vRR+yENHJ423d5yP9I7vxXOlpZgApHWGCAjAlVfEkAYX++NFuP0FZMfd3Vw4/gMMGp3Ad51v9x/Y085v/duquGH1l75fCM+r+MHIAeClaEwGRxf05c7M7/m251xm6ZlN/2G9gDu6ark0aumyLuwJB/+uQRFpg+M+QAAbsIIOzPLpIelcP9X91PR97fnUu7cyc83eqM3ZKEl7o18M81MSFH1v90ZFb9X+YOwFZtV58mNvK8+y/NThrGt37MIwLOnfgm6QOu43Kzg4bz5j6/0ulgH7sbF8IC7SaK8kAgNQII+0uNkx9SbbpsxEbuhH9JHW3D+MX0x+wMONb/cfkf8Iv25aK9bTgP9/+q98E+mfDa4TjgTArYlqfuLNHKf1s7J928yxNyn7igc3nB4HE8TbAn38vU0TAZ6HuCxPNGiB76fJJ4NxsZkXdHAlZYYEfe2O/ywhbLRh5eX5wWONlDIVA1CLhCoCfsT4iIK5X1Uwl3KB8ZGp321w+KrB/VzRj/Rf9XccPKfbjAc7nvO06Q5O9WkWH/J7n/o/e4rTzPJTxU/5MRtvd/tjkA2xP8/FSxkP9v/dDAp2QFK3E4wxjLw/ZjpJCjed6+TJIo4XsDevJJamVQG3kVYyMfR7yUO6Ql/LPYWmixforh+e512+sWpL+tsMBJU39xmSDjBe/12hIWOHvWjGe9lwUSgIAzBLaE/cmTnSk9zVIR9pcmsNSS80r8L/u/3y2piMVyDucX2bHcp43h/m0094Fl3Ady/ye29n+ylfs+PrBH8DSCXMqO2RKDxOJQpGveuiv2cLT/45d0XLoTOGXqNbPZS53kNQfrjWRgzroJd9xxR9INLLyWtXf9U6ZOH87yr+x93+7/h8NhGlCQxz/5VMC/y4qL6i6cevo1/EEu5/rLub5y6292ngvZwS7YWj9/0cieN052vEut35wmyr8KGlv5Ts99dtP5MgT1HP/K9yR/KfX8bUjq5hudfK+F723i9SON/FP3/Jz/nly3ob6ooaGB6jY00PraDdTR3mFlcfQSwhgx97mZqxytxIHCrbA/Xvn/LnMc70DxaRXJ9p49b85dp6SVCYkDR8CREYDAUQq4QlZYIIXk8TzVYnUKnl38xThmfWcNb71Jf/FMCI8rDoVCVFZSRJWVpVRSVEglxYVUWV665YfvVZRZLw5Wl/3FVcl/3Wb9b4e7O/zny6c73eZHPT0/l2r9a0r6cmha9jgJ1LOX9pZEVdafWy5JRxx11Jf/3e5+LNZNba2baeOmJtrU1Ez19fW0euWntOj9xdTS3JIgjx63EPanh539pGWi7wM/yQ9ZbSJwyvnX3MJ9wKU2FZdxMTxU1hiSXaOfeODGhowL8SBjuiMAOdEo7TKwkoYMqqHBg6pocE0VVVeV93T4vTp4R7WxRgBcvaRJnR0d1NjYSGs/XUsfLl5C7y76IC3HwI8jAFbYH6/8X8ZOdoWrvBNWJm95ec5dlyd8hJtaEcAIgFbm7ltZKyyQhwW/yW+Cnn5B9ZwWSNGfs6SKbFncN7NUn1RWlNHQQdXc0VfToIFV/HcNVVaUutrRpyqr4+l4NVNOXj4NHGT9DKb9DzzQ2kyE5xvi1NrSQnW1tbRixWpaxE7BRx8G50RapcL+BE77c7yd+6QCjAD4xFBuiMlrAS5mB+BWN+rqvw4Zk9Lce/b91zkWUtN//ek/3TYCEAoZNHiXGho9aijtOnII7bHbcCocsG0qPv1ync7h+ghAWgpJ6mxvo7VrP6P32CF46aV51La5jR0nf60BsML+wtJ4nz9bnq/856mci19+/s6/pmUGJA4sAYwABNa06SuGsMD0mdXXyyLKoQMaGjZNquWFcLtxxx+J4GOVPslEOQSPFhTQqN1G9/ycfsbp1B3rorAhnsnNuf3ZONEdIyrFkkQ5VbqHsD+VrAFZtieAEQC0hx0IcFjgMYYSYYE9686+qlpYIK9RiNS30qHCpBNZvhN56dxefm5Cao8AJCdrGLKdIxcWRULGw0Y53TVIiLbkudxLYYX9sYwKhNny58mUJ8574a7n3NMeNalOAA6A6hbyQD6EBe4IfX2LrA6bdAJ3+JN4qT1v7sExvAG5/O4AbG8G68uMO9vGkDDm5oboppoK8YaXZkLYn5f0UXcqBDBWmQolzdLoHhbIb/lGXQsdwtt3ncJ/f5U37RhnxdjBW1b7g2DFM8RNURYneVpXnE5bvi7eETboPcMQs4ZUiDt4gWnPvgZuXQj7c4s06smUAL7TMiUX8Hw6hgU2tMhxpkln8jkf53F3PzLgJu5RL0gjAP3Zi20aD4fog5AQd7AzcDs7Az3bGzh1IezPKbIo104CGe5RbKcIKEtFAvFY1y951tDRbShT0bsnLFD0hAU6clmdft0meW19s1zOe+F9wHP603Xp/B0BqmihvK1hqDsmJnR001+WrzO7Vm6Iv7umzvyBNdrjhMgqhf1F4jm/dkJHlOl/AhgB8L8NHdMgqGGBVqfP+9Gcx9vansUfgBGOAfRBwbqMAPRlCkPIbp4mmB+KGL8eUib+3Ve6dO4j7C8dWkjrJQFHvF8vFULd9hGwwgL5rZjjl72+vjgtMGNBVkqZyx3/mXWbzOd5mP99ntC/SvfOP2OYAcpoShHpiouD2jvk08vXxzev3CAfWL5ObrflcfrK9oT9KRDzz2siPhI47S99A2qUAyMAGhk7E1X9HhbIQ/vWKZTn89v+RdzYyzJhEOQ8uo8AJLatlNEQn8hmGNcNrRQPJU6T+C7C/hJzwV01CcABUNMuSknlt7DAujpZyJvznGN1/Dynf4hSMBUTBg5A/wbhsMK2sDCeyzHpxwMHipX9pUbYX3908ExFApgCUNEqislkhQXyOQFdXovF3uq20wITirJ+oxxZ1yz/KHLoc047E51/Qky4mQYB0xT5XXF5Wqs0P1mxIb5wzQZ5eF/ZEfbXFxncV5UARgBUtYxicqkcFrihydzXCIlLeb3COdzpY2+LNNoORgDSgLU1aTgkayNSTB9SY8zclhthf+lzRA7vCWAEwHsb+EIC1cICezbr2SQnW4v6uPNfwBDPQ+fvi6bkeyFjcVHdbtLt1qLB1XVyJrfFKML+fG9WLRUIaak1lE6bwMfvv9Kx+95H8D7r4qS0M9uYIRKN0BGH7HfAiOEjv80n732f9wnQYsMeGxHuUFS75xM7TmnmfLm8t0AkbtJ+GzfLqwcNGnjgko+WiK6ubucr7r+GK/73wu0v958ET0FgCwFMAaAlpEzAWuTUkTd2Ib9p75lyJpsShnkbt0O+sjdN+eqRVFJcaFOpKAZTAHa2AUlLFn9If/3rXT3HFrt9WWF/Rucue82dO8PVLY/d1hP12UcADoB9LLUoye2wwFAoRF/ZbzxNOelIqiwv1YKxm0rCAXCANu8y9f6i92jmzHupo73DgQoSF4nT/hJzwd2+CcAB6JsNnvRBYPL505/mUYCT+3hsy20e2qeJe4+lr00+hqoqEb5vC9QEhcABSADFpluSHYEFb82nu++eRd1dDr+US3r65efvnGyT6ChGEwJYMa2JoW1V06RLZUjysbgiamu5XNi2jv/0SUdTdVW53cWjPBBwjYAQBk38ygE08YCJNJ8dgbvunEWxmBOOgOyOGeYVrimGigJDAIsAA2NK9xRZ9t7cxj0mHFHOvfWBdtY6fo9R9KNpZ9PRhx9AAwry7SwaZfVBAIsA+wBj520ezdpl8CA66eTjyTTj9PGyT+ws3SrrT6/MuTutHQvtFgDl+ZMApgD8aTfPpT753KtLQ5HoMn5nr8hWmOrKcjp98tG0/z7jsi0K+dMkgCmANIHZkLyzfTPdfed99M4772VfmqTGiBkd/eKLf2nIvjCUoBsBOAC6WdxGfbM9LTAnJ0onHn0wnXz8oRQOYzbKRtOkXBQcgJRR2ZrQ+uL9/LO19Ieb/0INDY2Zly3pYp77/2vmBSCnzgQwBaCz9bPUfa/RVe/EwpWn8QhndTpFWfP8Bx8wgS793rk0Yfxo4kNX0smOtDYSwBSAjTDTLKqwqIiOP+EYGjF8CC2Y/y5PD5hpldAT9te1y4WrV89NL2NatSBxkAlgBCDI1nVBt3TDAnffbTid87UTaeigGhekQxXJCGAEIBkhd57zTpv02KOP05znXkq5QoT9pYwKCfsgAAegDzC4nTqBVMIC8/Ny6cwpx9HhB+/bs9IflxoE4ACoYYdtUjQ11tPvbvoj1a7f0L9gCPvrnw+epkQAUwApYUKi/gjsvueRb5Ehv8dhgQnb04Txu9Nl3/8G7TF6BDr//kB68AxTAB5A76fKvLx8OuaYo6iiopQWLuxrkWBP2N9pn36yEAv/+mGJR8kJJPzCTp4NKUDgSwJ9hQUWFw2gC75xKlkx/Xm5OUCmIAE4AAoahUfIhgwbSsceewQtXfIxNTVt7C0kwv56E8H/MyIAByAjbMjUm8Cu4w56ywiFLuCwwHxrhN9a5HfJd8+l4UN36Z0U/1eIABwAhYzRS5RINIcOO+LQnkWC8996h/jUQaKesL+cs1aufLtdXckhmV8IwAHwi6UUl3PbaYHVlRUn/fDCs+m4ow6kaCSiuNQQDw6A6m2AQ2xqaugEjhZYvWo1bdhQj9P+VDeZj+TDaiwfGUt1UWubYt+KxeN350SjiOtT3Vhb5cMiQJ8YaquY0ZB8Ynh16DR/SQ1pVSUAB0BVy/hIrqYmWRI36DYSdLaPxIaoTAAOgP+aQdiQn0cM48ghVeJj/0kPiVUigDc1lazhQ1nqWuQxMYM+QOfvQ+NBZF8SiJlil/aYuWTNBvkLXyoAoZUhgBEAZUzhL0GWSZlT1kwzeFnSlbzoD46kv8z3hbQYAfCp4baKHQnLRd2GcfjoCtHsb00gvRcE4AB4Qd3nddY3yzG8JPlvHNS/j89V0V58OAD+bwKGkJ1hw/jm8GrxT/9rAw3cJIA3NzdpB6Cu+k3yWxyKtACdfwCMCRUCQcCUIqcrLh/lKYHbA6EQlHCNAEYAXEPt74qsIf/SFrqJG8z/+VsTSL89AYwABKs9cJTAR3lkHFBdLVqDpRm0cYIAHAAnqAaszPrNcpCM06PcWA4KmGraqwMHIHhNIGTIzQVh49iaCvFG8LSDRnYSwBSAnTQDWNaGZnkYxWg+Ov8AGhcqBZJA3BQFLV3mq2vqzCsCqSCUso0AHADbUAavoLpmOU1IepFD/HB2b/DMC40CTECSMDq76bera81nAqwmVMuSAKYAsgQYxOzr1smCcD7dzeF9Xw+iftDpSwKYAgh+a4iE5OpozJg4aJCoD7620DAdAnAA0qGlQdoNreZAw6Sn+FCfiRqoq72KcAD0aAKGIdujIXHE0ErjbT00hpapEMAUQCqUNEnT0CLHCVO8js5fE4NDTW0ImKbI64zJ11c3yDO1URqKJiUAByApIj0SWFv6mpJe5SGhYXpoDC1BQC8CUopQZ6f5D94v4Od6aQ5t+yIAB6AvMhrd79ncx6T/cOdfrJHaUBUENCQgBI8E/GrlBvmAhspD5V4E4ABo3CQkvxLUbZLX8ir/e3nBX0RjFFAdBLQhwOd3UHdMfnPlhvi7/B2APkAby++sKBYB7sxEizs9h/m00D2s7LlaKAwlExLAIsCEWLRbFXJMAAAgAElEQVS5GQ7JFQVkTMDOgdqYfAdF4QBoaPfPPpP50UJ6nI1/gobqQ+XtCMABQHNgJ6AunGPsMbRENIKGXgQw/KOXvcmK8c8ZQLPR+WtmeKgLAn0QiMVFZazdXLGmXg7qIwluB5QAHICAGjaRWk1NsiRcQC/wnP/RiZ7jHgiAgJ4EYlIUd8fMpZ9ukLvpSUBPreEAaGL3dS2yKmbQ//jN/0BNVIaaIAACaRCwzhDoNM1FK+vkHmlkQ1IfE4AD4GPjpSp6bausCZv0Iq/0n5BqHqQDARDQj4C1YVA8Zi7ig4T21097/TSGAxBwmzc2ymEhk+Zx5z8+4KpCPRAAARsImFJEu2LytU/r5FE2FIciFCYAB0Bh42QrGs/5j4iHaB6Xs2u2ZSE/CICAPgTYCQh3dJvPr66Vh+qjtX6awgEIqM3rN8tB8ZB8gd/8hwRURagFAiDgIAE+UjjUbZr/XbtB7uNgNSjaQwJwADyE71TVnzfLShmjOXyoz0in6kC5IAACwSfAIwERXhj4xpoGiSnEAJobDkDAjMpz/sVRomf5zX9swFSDOiAAAh4Q4OiAaFe3+TZPB4zyoHpU6SABOAAOwnW7aGuTH57zf5rr3dftulEfCIBAcAlwdEBuzDTfXbXBHBhcLfXTDA5AQGy+Rsq8SL58mt/8sWgnIDaFGiCgEoG4FANMUy5Zvk5WqSQXZMmcAByAzNkpk9M62Cevhf5FQhypjFAQBARAIHAEYqYoMoT5QW2tHBA45TRUCA6Az41uHenLp/rdib39fW5IiA8CPiHATkDlZjIX4yhhnxisHzHhAPQDxw+P6pvpVyzneX6QFTKCAAgEgwAfIDR0dZ35YjC00VcLOAA+tn39JvltnvP/mY9VgOggAAI+JdAVE0eurJV3+lR8iM0E4AD4tBnUtcgjJdHtPhUfYoMACASAQCwuL1xVJ38SAFW0VIGnjnH5jUB9sxzLnf+rbLwSv8kOedUi0NjKLQkXCGRFgEOQosYZQyrE41kVg8yuE4AD4Dry7Crc0GoOFKZ4nQ03LLuSkBsEiOAAoBXYQcAQMhaNGvsMLRcf2FEeynCHAKYA3OFsSy3WRj+GKWaj87cFJwoBARCwiYB1eFB3t/nGZ5/JCpuKRDEuEIAD4AJku6oI59M9XNZ+dpWHckAABEDALgK8ZXBBV9icb1d5KMd5AnAAnGdsSw11m+SPecX/WbYUhkJAAARAwAEC3XExbNV6+ZgDRaNIBwjAAXAAqt1FNjTLQ7jMG+wuF+WBAAiAgN0Euk15+qp6+SO7y0V59hPAIkD7mdpaorXoz4iLBSQIh3DYShaFWQSwCBDtwBkC0syJGAcMq+TvLlzKEsAIgLKmIeKtNiMiLh5F56+wkSAaCIBAAgLCiMXNl3BmQAI0Ct2CA6CQMXqL0tBMf+Z5f2v4HxcIgAAI+IoALwosbBfmK74SWjNh4QAoanBe9PdNfvP/rqLiQSwQAAEQSEqAtwuesLJO3pU0IRJ4QgBrADzB3n+lDS1ynDTpbXYA8vpPiacgkB0BrAHIjh9yp0YgEhYnj6gSz6SWGqncIoARALdIp1jPMilzTJP+hs4/RWBIBgIgoDyBuGk+ivUA6pkJDoBiNiltoRt43n+CYmJBHBAAARDImIBpinxeD/B8xgUgoyME4AA4gjWzQus3yuNI0qWZ5UYuEAABEFCXAK8HOHBlg/yxuhLqJxnWAChi8+ZmWdEl6T2E/CliEE3EwBoATQytiJpCyHhuyBgzpEp8rIhIWouBEQBFzN8p6a/o/BUxBsQAARBwhICUItRlmv9zpHAUmjYBOABpI7M/Q12z+V2e9z/T/pJRIgiAAAioRYD3B9hlda28Wy2p9JQGUwAe233DJjnaEPQOi1HgsSioXkMCmALQ0OgKqCx4n9PciHHMkErxkgLiaCsCRgA8ND1v9SvYALexCOj8PbQDqgYBEHCXgCQhOmPm4/wdiD7IXfQ71BaePHX6tzysX+uqZ7/03lEHT9zraK0hQHkQAAEtCZhSlMx7e/Xcw467ENMBHrWAMM8B3OtR3VpXW1xcSHuPG601AygPAiCgN4GawUMOHTFi2KGrVq3RG4RH2mP4xSPw5511MuXn5XpUO6oFARAAARUICPq/S7+vgiBaygAHwAOz77/PONp3rz08qBlVggAIgIBaBIpKyuisr5+mllCaSAMHwGVD5+Xm0tmnn+ByragOBEAABNQlcPyJJ1BFRbm6AgZUMjgALhv27K+dQKUlRS7XiupAAARAQGECvBHKZT++WGEBgykaHAAX7br7bsPp0K/s7WKNqAoEQAAE/EGgeuAgOubow/0hbECkhAPgkiENw6BzvnYiR79i7yWXkKMaEAABnxE469wzKcTflbjcIQDS7nCmww7el4YOqnGpNlQDAiAAAv4jEApH6dsXfNN/gvtUYjgALhguLzeHTv3qkS7UhCpAAARAwN8EDjz4YCorK/G3Ej6RHg6AC4aactKRVFw0wIWaUAUIgAAI+JwAT5P+8EfTfK6EP8SHA+Cwnaoqy+jow/Z3uBYUDwIgAALBITB05CgaP35McBRSVBM4AA4b5lxe+BcOhx2uBcWDAAiAQIAISKILp30rQAqpqQocAAftMnb3kbQX9vt3kDCKBgEQCCqBAUUlNHnyiUFVTwm94AA4ZIZtYX8OFY9iQQAEQCDwBCadOglhgQ5aGQ6AQ3C/st94GjSwyqHSUSwIgAAIBJ9AKBShc75xRvAV9UhDOAAOgLfe/iefiB2tHECLIkEABDQjcMRRR1IkinVUTpgdDoADVA85YALVVFU4UDKKBAEQAAG9CAgjRN/8xtf1UtolbeEA2Aw6FArRJLz920wVxYEACOhM4ODDD8EogAMNAA6AzVAP5y1/K8tLbS4VxYEACICAvgSECNF3vo0tgu1uAXAAbCQaiYRp0nGH2VgiigIBEAABELAITDzwK5SblwsYNhKAA2AjzCMPmUilpUU2loiiQAAEQAAELAJCGPQdHBRka2OAA2ATzkg0Qicdd6hNpaEYEAABEACB3gT2nbgf5Rfk976N/2dIAA5AhuB6ZzvswL1x4E9vKPg/CIAACNhKwKDzzkNEgF1I4QDYQFLw6VXHHP4VG0pCESAAAiAAAv0RmHjAROwO2B+gNJ7BAUgDVl9J99lrDxpYjbj/vvjgPgiAAAjYRUAYYTr19El2Fad1OXAAbDD/CUcfZEMpKAIEQAAEQCAVAkcfe1QqyZAmCQE4AEkAJXs8Yugg2m3k0GTJ8BwEQAAEQMAmAjm5+XTEkYfYVJq+xcAByNL2Xz0WjTBLhMgOAiAAAmkTmMInBeLKjgAcgCz4WTv+7TthjyxKQFYQAAEQAIFMCBSVlNGYsbtnkhV5thKwjliaBRqZETjr9OMP4JP/xmSWG7lAAARAAASyIfCdC85rvPLHP5udTRk65xU6K5+N7vX1soii9BmXMSCbcpAXBLwk0NgqvawedYNAlgSkDBnGwFE1ojbLgrTMjimADM0uo/IczorOP0N+yAYCIAAC2RPgY4IMuin7cvQsAQ5AhnYXJC7KMCuygQAIgAAI2EQgFjO/ZlNR2hUDByADkze2yL04234ZZEUWEAABEAABGwmYJApWb5DYHzgDpnAAMoBmmvS9DLIhCwiAAAiAgAMEJJk/daDYwBeJRYBpmniNlHl5LfQ5gytJMyuSg4ByBLAIUDmTQKCMCEhZII2qQYNEfUbZNc2EEYA0DZ/fTGej808TGpKDAAiAgKMEhOiO0K8crSKAhcMBSNOoUhAW/6XJDMlBAARAwGkCZty0IrNwpUEADkAasOqb5Rh++8fJP2kwQ1IQAAEQcINATIriTxvlyW7UFZQ64ACkY0lJ30onOdKCAAiAAAi4RyDWhcWA6dCGA5AOLUGIN02HF9KCAAiAgIsE4pIOcLE631cFByBFE9ZvlFbDGpViciQDARAAARBwmYApRWRNnTzX5Wp9Wx0cgBRNJw3CRhMpskIyEAABEPCKgCnNH3lVt9/qhQOQgsWk5LX/hOH/FFAhCQiAAAh4SiAWo4n8nY2+LQUrWMcB40pCoLFZHiSEGJYkGR7bTKAzTtRmEm3m363dRB18cF2UP9YDQkR5/DuPW6/1t+7X642ZE1iwpj3zzFnkLMk1qChiUHFEUDkbsyLH6LGtLlcnT1Yvrut0Xd3ckKCxlTmu1+tmhbw1cHjVBprKdd7rZr1+rAsOQApWM4X4OrZMTAFUhkk2xYje2Ui0fDPRKu6PVrbxb/5p5vvJrhx2AIbn8U/+lt8jC4j2KSbaJdjfcTtguei9ZJT6fh7/cEPfD11+Eo6GKT8vQpUDwjSsOEz7VEbpq4NzKI87raBddW0x+tEc90+wHVQYpkdOGxQ0nDvpI8j8Ad+EA7ATmR1vwAFIAsgaSqpv5uH/4H0HJdHcucfd/Fb/Bnf4bzQRvcU/S7njNzM8lt4aJVjauuVne4kH5xIdWEq0P/8cVkZUhJbunEFtKjnWFaNm62cT0SefEf2Xy/29Iai4KJfG8Fvr8UPz6IRBUZtqQzFBJtAdp32s724eueVvG1x9EcDXYl9ktt6va6FD+Dso+C5zEg52PP6QO+qn1hH9m186m3hI38lrbQfRP7ku64dHmulgdgROqSY6umLL/52sG2XbSIA9w00b29lh5J+PN9INORHac1A+fWfMANqnHF9fNpIOVFGSRGhtrbR2bZ0ZKMVsVgafoCRAue+YkiQJHvdDoIv978e4E35wLdFqb6abyRpxmNuw5ac0QnT6QKLzBxOV42WyH8up+ai7s5veWbGp56eIRwbOHltEU0fzHBAuEOhFIG7Ib/EtOAD9tAw4AP3AsR7xMNKJPIyUJBUe9ybQzp3uPz/nSbhPiTa4v9aptzhf/N8aebh7DdH97JBMqSH63lCiGp4uwOU/As3NHXTHGx00axGvFRhdSJfsOUCrhYT+s5i7EsdMmuBujf6rTaN1t+kbp36zHMyd/7j0c+qbw5rL/wfP3x73OtFvlqvV+W9vFWtUwHJQvvoW0W9ZTivSAJc/CXS2d9ETixroRB5qenw1z/3gAgEmYJoib3Wd3A8w+iYAB6BvNiTjdFI/j/GoF4ElLUTnLST61cdEGx2e47cLvuUIzOLRgEnsCDzl/qJsu9RAOUzAcgR+P7eWTn+mnla0wKNDo2ACki4Gh74JwAHomw0JSV/t5zEebSVgrcS/njv9s94hWtTsTyxWSPb/+4ho2iKiWoWmLPxJ01upa+s30/lPfk7XL+RVp7i0JhAzzeO0BpBEeTgAfQDiuf8I7/93VB+PcXsrAWth37n81v8QD/tnGsqnEszXOCzxjPlE87LYXEclfXSVRZom/fv9Bjr133VUay1IwaUlgXicBn0mJe8SgisRATgAiajwvfpWOpSX/vGWMrj6IvB8HdHZC3aOwe8rvV/uWwsFf8Cb69zIoxrWFAEu/xKoa2ijr89eT/9d1+VfJSB55gR4EVe8vicaAFcCAnAAEkCxbvH2ESf28Uj729aePbesILpsMVFLCrv1+RGYpeODPKpx8fu8HTGmk/1owi9k7u7opl+8uJ7uWsrbS+LSjkA8jtMB+zI6HIA+yEiSmP9PwIa3MKdrl24JpUvwOHC3rCmBb79L1IgXSH/bluen7n2zjq57h1eq4tKKAPvv+2ilcBrKwgFIAKu5WfJ+cWJ8gkda37KGw6/4cMvGPjqBWMx9xrm8wNGjc3N0Qu24rv/5oJF+9ArvQ41LGwIcDpi/ulaO0kbhNBSFA5AAFi8CP5T3/sHuP9uxsTr///uAyJr31/Gytha2RgLWI8zc9+a3dhH88et84AAufQgYdJ4+yqauKRyABKy45z84wW1tb1nz4TOWYWW8FR74PV4TYJ1eiMvfBKxzBX6NMEF/GzEN6Tkq5Pg0kmuTFA5AAlNzh3dIgtva3vod75T3xHpt1d9BcevIYitCAJFl/m8Pz3CY4G0fYWGg/y2ZXAOOCh2bPJV+KeAA9LL5MilzeAOgffVrCok1/juvhLd2ysP1JQFrs6NreCEkLv8TeHBBPf1vPVZ4+t+S/WsQk6K4tlYO6D+Vfk/hAPSyeXkLTeTZfxwPw1yW8kZqv+VwP1w7E/gPbxv8KJ8lgMvnBDg64Nq59VTXgQ0ffG7JpOJ3Cnl20kSaJYAD0Mvg/DWA4X9mYsW+/5hX/Fvb/OJKTOAGnhqxzj/A5W8C1hHD33sJWz/624rJpY+TOCV5Kr1SwAHoZW9eAAgHgJlM5yHuVZge7ffboIu9RctJwnqAfjH54uH6us10wyKcHeALY2UoJC8ExMmAvdjBAdgOCO//L0jKgzJsX4HJ9gq/DP1nQ2DUcVQR6yyE21c5WgUKd4nAvz9ooo83YcjLJdyuVxM3qcb1ShWvEA7AdgbasIlGkhCVitvMUfGsIf/rOOQPV+oEZn1KtAwvj6kDUzSl5B7i529gkyBFzZO1WJKEsWaDPDzrggJUAByA7YwZMmjvANk2I1XuWENkbXqDK3UCMY4bvY4PDrL2S8DlbwJra1vpkZX4APjbin1Lz7N2OONlOzxwALaDISXt2XfTCf6Tz/h77x5+m8WVPoF3eGO55zBtkj44BXPcPr+JEBOgoGFsEImd9K/YUExgioADsKMp9wqMZTNQ5G5++8fxtxmA25rlttVEHFWGy+cEOtu76A5sEORzKyYW3zTN0Ymf6HkXDsB2duf9/7UdAajnvVCe5Nh2XJkT+IR3CfxfQ+b5kVMdAo8u3oRRAHXMYZ8kkqrsK8z/JcEB2GrDdetkAU8BjPS/STPT4F5++0fMf2bsts912yqsBcieovcldLR10QPLOMQDV6AIxKWIfvaZddorLosAHICt7SCST3vyCICWPFp55f8j2NXOlm+EjzgaYD4WktvC0utC/v4h7/mMK3AEzBAWAm4zqpYdXqIWzTsAaDv/P4cXr2Ezm0StIrN7T+HgpMzAKZarubmDFjXi6EfFzJK1OKago7IuJCAFhAOihx1qaDv/P1vxuf/SCFFNDlEOu6vW7ntN3UTr+WheVdfbzakj+hkvNcoNuHtdVJyX8ecuFjMpxismuzrYmDz3pup135LNdMvBxaqKB7kyIBAnU/tw723Y4ABsJSGkHM+bAGXQnPydxQr9U23IOsId54ElRMfwTN0R5USV3Pn3vjbztMVrvGPhf+uJXuaFd5sUelGzZHuR5To54MuN/jMlewWtcLuX+TS+Jz5pow/Wt1P7ZrVO5lv4Ka/sJDgAvT9/fv4/+5vD/Sy/nbLDAdhKk3eJ2k2/7n/Llr+qvH+F2ABTeLPOi/njWZ2g09++4ReEiI7jPRutH2v64n7ev8BayGitZ1Dh+jePqgTdAbCDszVIcmRNtOeHqISeXN1Jf1nQRJtbeYhHgcs6KOi5z7rohEGWfLiCQIAdgKIg6GGHDgEfpEwNEZ8BYH26B6aWOlipXm9SQ59RBXy8Lh/V8cvdk3f+vSXO41b83WHszBxIdLQi63utURXsqdDbUsn/P2VYDs05vYbO2reCN25V4+tpzhpEAyS3nH9S8JEv4c+kzPePxM5JqsYnzDn9Uiq5rpmG6RgBYHVQ7yqw0PmQUqIH9yEaPSAlc/WZyFor8MfxRD8YTuT1aI51nPL7OCq4T1sle3DJ+AK6/thqCkW9H6T8qE6N0YhkzPA8NQLWiGe8jiamljrYqeAAsH0NSSOCbebE2i3k7Wu9jv23hvD/yvEXhTZ9z1sdv+UA/GTXxDq7efdNRUZX3NTZzroO52mB+yfVeO4EbOJogLa4KhNldhLWt6x4iPbXV/svNYcDwCykoeeikLfZAfDy2oPf+K8fQ2TN/dt9nTeY6AyPJ3Xewn4AWZt1+IAQXXdEpbfTARyt8MwajAJkbUyFCjDiNE4hcTwTBQ6AhV7TVaFLPDzCNp8X8f2ZAy+t+Xunrp/tRmQ5GV5dSz3k65XOTtR7+MAonbF3mRNFp1zmQmuvbFyBIcBnAvC3Ay4Hv379A5dfQLWcAlhhRTh5dH17CK+6TLLSP1vRrHDCqz2cCmjm0MRG9BvZmrEn/6W8JqCg0OEG04+kn6oUZ9qPnHiUGgHeDGhQaimDnQoOANuXdwEcHmwz76ydtQDwc49GNcs45uJ8dgDcuCbyfgKHefjyuAoLyG0z8yX78WpRj666Vt6wCFdgCAhJvMMILjgA3AZ4EyDtRgCsDYC8ClP7Gs/NW3H8bl3n8noAr64VbV7VHLx6Tx6aQ3kF3owCbG5XaKep4JnWdY14WQcHHuPS3gFYJmUObwKU/ZZmPmtLn3n09m9hOtJl39vaVdBNh2P7pvA5O1q47COw58DMtx/ORop4d4zaEQmQDUKl8ppShLAXAE4DpLI2quA9ABxYh65Ue99JmM0evdBU8PD/noU7iePoDWstwCEeTQO0esTZUaAeFn7aCG8cAEvlxg6EAnpoeturNpvIwxVCtquTUYHajwAYpp5zQV51TOO48zc8cLfGu+x0bPs0WhsC4bKPwKEcESBC3nxtNXo1Z2YfPpS0HQEzrufi7+0bgTefJIWaIX8/uzwgrYbybdYpLB5cg3M9qJSrHOzRi6MqZxN4Q93+Wq0vrEjUxQUk26nQhDOz7TeohyXy4u+hHlavRNXaOwAMQJHd491tD20eDU0X2LTjX7q0BnhUr1ec0+Xjp/QRj0YAmrowBeCndpJMVmGSS7FIySTx7nn4lKnTtW7Vs/7+NJ3/9UneWcCjmmMeWT3swfC/hTjiUb3dHnH2qFm5Uq1Hg1fkVdt1BaqGlbzyyhtXHn78RVdqqPoXKms/AlA4AIdC6fwBgO7+IxCLeeMCFOdo/3Xpv8bSj8RFxR4tDOpHJrcfad+iCwrgALjd6FAfCGRKoItD8WKd3sxfleR4NIyUKSzk65fAgAJsBaC9AzCgwKPVYf02TTwEARBIRODfaztJSm/mVSpytf+6TGQS397Ly8d3v/YtuhAjAL79AENw/Qg8s8q7nZXKotp/XQaqweXmehSSpBBF7Vt0To43W4sq1AYgCgj4goA18//xem/2Vg7nhAn9vy+aScpChiORlNMGNaH2DkAk4k1McVAbFPQCAacI/OWDzdTd6c2hPEX56CycsqtX5QqhffdH2hMIheAAePUBRL0gkCqBDl7899jiTakmtz1d1QA4ALZD9bhAw4stST3WuXf12jsAETgAvdsE/g8CyhH46ZvNnr39WzCGFnu0k5RylgiOQBgBwGFAFI7ggx2cjzQ0CSKB+5e301vLN3qq2sE1WCvkqQEcqFxgBABTAGEDUwAOfLZQJAjYQuCFz7vojjfrbSkr00IM3nr4qBo+xhJXwAhgXwftX3/DYTgAAftUQ52AELhnaTvdM7+eZNybnf+2YSwvyaWw9pOlAWlU26mh4SnwOxkRDgCiAHZqFLgBAl4SqO8w6f+90UyL13i36G97/SdUI17cy/bgWN0YACA4AJgCcOzzhYJBIB0CrXxC1W/fbaX/LttEZowP6lbkmjwCDoAiprBZDHgA2jsAIUwB2PyhQnEgkBoBK7RvUWOMXv68k15d2051Te1Epjfb/PYlcf6AHJpYjhDAvvjgvr8JaO8A+Nt8/pP+rjVED651X27ua3DZTODQv32acYk9+/kr1tknUuaQoTgwJhEX3AsGAe0dgDgPNRrY49O11tzF67msH1z+J+D14jynCQoh6KIxcACc5ozyvSOg/drWmKnOXKN3zQA1gwAI9CZQVZ5Pgwq0/4rsjSVA/8ewoPatO9YNByBAn2ioAgK2EZi2V6FtZaEgBQmg/8dGQDGFVhsr+BGBSCCgJYGy0jw6cTB2/wuy8SXBA8AIAKYAgvwZh24gkBGBC/cqzigfMvmJABwAOADdMT+1WMgKAiDgMIGSkjyaMgxv/w5j9rx46YMoFKchae8AdMexBsDpRobyQcAvBKyV/9ccVOoXcSFnFgSkRDiS9g6AFQaICwRAAAQsAhOGF9NXKrHxjw6twcQIABYBdsMB0OGzDh1BICmBcDRMv/5KUdJ0SBAMAhgBIDgAHR0dwWjN0AIEQCArAt8/oJxKotgfPiuIPsrc3d3tI2mdEVX7KYDWzbz/OC4QAAGtCew3spjOHolDf3RqBJ14+cMIQEtrm05tHrqCAAj0IlBYlEu/O7gEXDQj0LZ5s2Ya76yu9iMAm9vgAOzcLHAHBPQgEIqE6NZjKgjHgehh7+21bMXLH0YAWjAFoN8nHxqDABMQIYOuPbKKdi0MgYeGBFpaWjTUekeVw0/NmqH1qpd7/izPYCSPat8SAAAEdCLA8f6XH1pJRw+M6qQ1dN2OwKGHH/Sbb5x+8NU6Q9F+CkAKqte5AUB3ENCOAL/ynL9/BZ0+DIv+tLP9dgoLSZ/qrL+le1h3ADz414D9oHRvBdBfGwKGoG9z53/h7vnaqAxFExPgt981iZ/oc1d7ByAmZL3BwwC4QAAEgk3AmvP/MQ/7n4Y3/2AbOkXtTINWppg0sMm0dwA2FojG0maSPCUILyCwzRyK6U4gxLv83Xh0FR1chW1+dW8L2/QPldEK3VlovwZgtBCd3PPX6t4QoD8IBJVAeWk+/X3KQHT+QTVwBnoJIeODhNA+Blx7B8BqOzwDsCqDNoQsIAACKhNgz35f3uHv8ZMraZc8fNWpbCq3ZQsJwi5ADF37KQCr4fH3hDUXdKDbjRD1gQAIOEMgJy9KVxxURicNznGmApTqawL80tfgawVsEh4OAIOUklbxGgBcIAACfifAq/wPGlVM1x9QRFF+zcMFAokIGJLWJrqv2z04AJbFMQWgW7uHvkEjwH394KoBdN2BJbRbMXb2C5p57dbHMIzldpfpx/LgAFj9v8lTAJgi9GP7hcyaExA8dLdLZQFdObGI9q/ACn/Nm0PK6hsGvZ9y4gAnhAPAxjV5BAD9f4BbOVQLHAEjHKLddymgy/cupLEl+BoLnIEdVsiM09sOV+GL4lxYSYAAACAASURBVPHJYTNVFtHq+mb2AwTGAXzRaiGkngR4fr+sOI+OH5FPF43Jp1zM8evZDrLU2loZYlbR/CyLCUR2OABsRh5G7KrbJD/nPwcHwqpQAgQCQiCvIEpDSnJp3+oonb1rHlXmYqwuIKb1TA3eAyA2QhgdngmgUMVwALYaQ5DkRSECDoBCjROiBJ+AtT0vL8iiUFhQYW6EqgojNJwX8Y0ti9AhVVGqRvx+8BuByxrySG+zy1UqWx0cgK2m4b2A3+OhoSOVtVRABLtgKJH14/b1ziaiH2LZj63YHz1zSMblFfDwfXEUYXoZA0TGjAlw09N+C+Bt8OAAbCVhkHxf4jiAjD9UqWbM4RHcIg9aXQEiw1I1UcrpsLteyqiQUCECkox3FRLHU1EwobYVvzTFe55aApWDAAiAAAg4ToBnnV5yvBKfVAAHYKuhOjfTB7wjoOkTu0FMEAABEACBTAhE6NlMsgUxDxyArVYdNEi08eKQT4JoZOgEAiAAAiBAFDJk59AS0QgWWwjAAdiuJfAIAKYB8MkAARAAgYAS4K0kcPT7draFA7AdDB4BwDrxgH7woRYIgAAI8KYvy0DhSwJwAHZsDRgBwKcDBEAABAJKICTFmwFVLSO14ABshy1uYgogo1aETCAAAiDgBwKC5vhBTLdkhAOwHemqYt4gQsoNbsFHPSAAAiAAAm4RkObQKvGyW7X5oR44ANtZic8EkLwd8Ot+MBxkBAEQAAEQSJ1A2KB1qafWIyUcgF52liRf1cP00BIEQAAE9CHAZ07gBMBe5oYDsBMQ8Yo+HwloCgIgAAJ6EOAw7yf10DR1LeEA9GLVUETvkCQcFZl6G0JKEAABEFCeQD7Ro8oL6bKAcAB6AR8tRCcvBMBQkcsNEdWBAAiAgFMEDCE3VleLVqfK92u5cAASWI4PKcU6gARccAsEQAAE/EiAjwBe7Ee5nZYZDkACwjwCAAcgARfcAgEQAAE/EggZxnN+lNtpmeEAJCAcJXqNF4ywH4ALBEAABEDA7wT4+/whv+vghPxwABJQLS4WDXwb5wIkYINbIAACIOAnAoYh24ZVC5z0msBocAASQLFu8TqA//TxCLdBAARAAAR8QiBEHNmFKyEBOAAJsRCZAg5AH2hwGwRAAAR8Q8AIGX/zjbAuCwoHoA/glYX0Ki8C2NTHY9wGARAAARBQnoCUZgXdp7yYHgkIB6AP8HwuQIyXAf63j8e4DQIgAAIgoDgB3v9/7QghsLFbH3aCA9AHGOu2xDRAP3TwCARAAATUJhASxvNqS+itdHAA+uFvhOg/CAfsBxAegQAIgIDCBHgDoFsVFs9z0eAA9GOCigKxlh9jB6l+GOERCIAACKhIgMP/2gdXiYUqyqaKTHAAklhCCHo2SRI8BgEQAAEQUIxAWNC7iomknDhwAJKYhAHhCMkkjPAYBEAABFQjwPP/96omk2rywAFIYpHSLeGAa5Ikw2MQAAEQAAFFCAiS8cGVdLci4igrBhyAJKbhcEDrTIDHkiTDYxAAARAAAUUIREK0gL+7TUXEUVYM3vEWVzIC9Zvkgbw38OvJ0vnp+VqOjP20zX2Jh+QTDc51v97mGK/mbHa/3mI+WWrsAGfrfb0x8/IXrMm8EZy7a17mFWueszMuaXFdp+sUcnlZ/NjKHNfrdbvCPEOcN6RGPOh2vX6rDw5AChaTUor6FlrBsIankBxJQMA3BBpbceilb4wFQVMiYAjZParGyMUIQHJcmAJIzoisaQDu/B9NISmSgAAIgAAIeEiAd/+bj84/NQPAAUiNE0mTHkkxKZKBAAiAAAh4RECEjVs8qtp31WIKIA2T1TfLjzn5rmlkQVIQUJoApgCUNg+ES5NASMiuUQNDwV/kkCaXvpJjBKAvMgnu87bAmAZIwAW3QAAEQEAFAoagN1SQwy8ywAFIx1KC7sfZAOkAQ1oQAAEQcJGAYfzGxdp8XxUcgDRMWFkklnDy19LIgqQgAAIgAAIuEAgZcuOIKvGMC1UFpgo4AGmakhdN3JlmFiQHARAAARBwmECIjIcdriJwxWMRYJomXSNlXl4LfcbgStPMiuQgoBwBLAJUziQQKCMCUhZIo2rQIFGfUXZNM2EEIE3DDxWinTcHhqeZJjckBwEQAAGnCETC9B46//TpwgFInxkZBs3MIBuygAAIgAAIOEDACBm/dqDYwBeJKYAMTVzfbL5NJCZmmB3ZQEAJApgCUMIMECILAhz738qx/4VZFKFtVowAZGh6SQKLATNkh2wgAAIgYBeBUMjAaa0ZwoQDkCE46uxZB9CaaXbkAwEQAAEQyJaAlHGTrsq2FF3zi1OmTr9PV+Wz1fv7F5x1wP57jx2TbTnIDwJeEcAUgFfkUa8dBDY21DVc8eOfPW1HWTqWEWalp+qouB06P/qvObTvnnsQD0HZURzKAAEQAAEQSJGAtYBt5u33lvNaLPRhKTLrnQw9V28iafy/vnEjLVj0URo5kBQEQAAEQMAOAhubGujjjz+xoyhty4ADkKXpn33x1SxLQHYQAAEQAIF0CTz26BPpZkH6XgTgAGTZJFat+Zw+/mR1lqUgOwiAAAiAQKoEOtvb6LXX3ko1OdL1QQAOQB9g0rn97H9fTyc50oIACIAACGRB4Pnn/5tFbmTdRgAOgA1t4d33l9C69XU2lIQiQAAEQAAE+iMgzRjNfuLf/SXBsxQJwAFIEVR/yaQkmjP3zf6S4BkIgAAIgIANBN56422Km6YNJaEIOAA2tYHX3lpEmza12FQaigEBEAABENiJgDTpgQf+vtNt3MiMAByAzLjtlKu7q5v+PeeVne7jBgiAAAiAgD0EFrw9nzraO+wpDKUQHAAbG8H/XptP1t4AuEAABEAABOwlIPnt/967/2ZvoZqXBgfAxgYQi8Xp389jFMBGpCgKBEAABHoIvPnaG9TRibd/O5sDHAA7aXJZr7y+kOoammwuFcWBAAiAgL4E+MgfmjULb/92twA4ADYTjcfjNPvZl20uFcWBAAiAgL4EXp37CnV3xfQF4JDmcAAcAGtFBKzfUO9AySgSBEAABPQiYMZj9OCDj+iltEvawgFwALTJMapP/QejAA6gRZEgAAKaEZj70v8oFsPbvxNmhwPgBFUu880F79Paz2sdKh3FggAIgEDwCcRjXfT3hx4LvqIeaQgHwCHwkrcHfPixZx0qHcWCAAiAQPAJPP7PJ7Drn4NmhgPgINyPlq2kd99f6mANKBoEQAAEgkmgeWMTPffsi8FUThGt4AA4bIiHH38O81cOM0bxIAACwSNw+213BU8pxTSCA+CwQerqG+mFuTi32mHMKB4EQCBABFZ+spyWLV0eII3UVAUOgAt2eeo/c3FQkAucUQUIgEAQCJh0659mBkER5XWAA+CCiTo6O+lfz7zkQk2oAgRAAAT8TeDVl1/lF6ZmfyvhE+nhALhkqHm8RfCqNZ+7VBuqAQEQAAH/EYhx2N/99z3kP8F9KjEcAJcM1xMWyAsCrd+4QAAEQAAEdibw97/9A2F/O2Nx7A4cAMfQ7lzwx5+sJmskABcIgAAIgMCOBGrXraX/vYTTVN1sF3AA3KTNdf3jX3OoaSPmt1zGjupAAASUJmDSzb/7i9ISBlE4OAAuW7W9owM7BLrMHNWBAAioTWDOM3OooaFRbSEDKB0cAA+MOv/dD+mdRR95UDOqBAEQAAG1CDRvbKRHHvmXWkJpIg0cAI8M/cCjz9DmtnaPake1IAACIOA9AUGSbv79rd4LoqkEYV6T/m1NdfdU7Y2bWmjh4mVHHrr/hKmeCoLKQQAEQMAjAp+v/Wzep2vW3uNR9dpXK7Qn4CEADgkUDc30PAk6xkMxULXGBBpbEZaqsfk9Vd0QcuOoGqNcCGF6KojGlWMKwEPjc8OX3PK/zyJs9lAMVA0CIAACLhOQMppjnIrO32XsvaqDA+Atf6oqFh+zE3CZx2KgehAAARBwjUAkYtwztEzMda1CVJSQAKYAEmJx/2bdJvkPIegs92tGjToTwBSAztb3RvewIT8bWRMa7E3tqHV7AhgBUKQ9RCR9j3cJ/lQRcSAGCIAACNhOgGc94yFhHGF7wSgwIwJwADLCZn+mkhLRJAWdx04AFsTYjxclggAIKEAgHDWuGlYtPlFAFIjABOAAKNQMqorEXJ4GuEUhkSAKCIAACNhCIBqSr48oF7+3pTAUYgsBOAC2YLSvkMZC+hkfGYgTg+xDipJAAAQ8JmAYsi2PjOM9FgPV9yIAB0CxJjFaiE4S4hssVptiokEcEAABEEibgLXSPBI2TquuFq1pZ0YGRwnAAXAUb2aFVxSJj3iDgIsyy41cIAACIKAOgWhE3DGsQsxRRyJIso0AHABF20JliXiIt8nG+ZiK2gdigQAIJCcQDsl3hlWK7yZPiRReEIAD4AX1FOssL+INgiTNSzE5koEACICAMgR43r+lgBDyp4xBEggCByABFFVu8TaZ3fEQbw4k6XNVZIIcIAACIJCcgDRzDeMIzPsnJ+VlCjgAXtJPoe7qAWI9H5l5Ju8P0JVCciQBARAAAU8JWIv+ciPG/w2uEohm8tQSySuHA5CckecpyouN1/hD9RPPBYEAIAACIJCEQCQi/jG0UmD9UhJOKjzGWQAqWCFFGeqa5X1ssKkpJkcyEEhKAGcBJEWEBGkQCIXkqlHVoRFpZEFSDwlgBMBD+OlW3dVCP+A8b6ebD+lBAARAwGkCISFbIznGfk7Xg/LtIwAHwD6Wjpc0aJBo44UAJ3NF2EvbcdqoAARAIFUCBslYJGocNLRENKaaB+m8JwAHwHsbpCXBLkWijjNMlkRNaWVEYhAAARBwhICUobAxZWi5+MCR4lGoYwTgADiG1rmCe3YKJDqNwwM7nasFJYMACIBA/wS2rPgXPxlRJZ7pPyWeqkgADoCKVklBJuvkQFPStzk8kH0BXCAAAiDgPoGcsJg5tNL4nfs1o0Y7CMABsIOiR2VUlYiHuepfelQ9qgUBENCYQCQsXhxaJb6nMQLfq44wQJ+bUEop6lvoXoQH+tyQHomPMECPwPu82khIfjyiOjTa52poLz5GAHzeBHi7YFlRSNNYDczB+dyWEB8E/ECAD/ipjVYZe/tBVsjYPwE4AP3z8cVTdgK62grpDF4N8JIvBIaQIAACviTAsf5NImrsMUiINl8qAKF3IAAHICANYqgQ7Z2tNAmnBwbEoFADBBQjYPBGPySMMSNKxUbFRIM4GRKAA5AhOBWzWRsFGXGazLItUFE+yAQCIOBPAny0bzsf7bvXqBpR608NIHUiAnAAElHx8b2yMrEpSnQihwd+6GM1IDoIgIAiBEKG7IpGjAMGDhQrFREJYthEAA6ATSBVKqaoSNRTmI5jmbBlsEqGgSwg4DMCPOzfnWMYB2KXP58ZLkVx4QCkCMpvySoLxOehOB3LIwGf+k12yAsCIOA9AQ4wikUM4+jBVWKh99JAAicIwAFwgqoiZZaWilXsBBzG4ixXRCSIAQIg4AMC/OYfyw0bxw+rFq/4QFyImCEBOAAZgvNLNl4TsDpu0GG8YdD7fpEZcoIACHhHgDv/rkjYOHBIpUBYsXdmcKVmOACuYPa2kuoBYn1EiiP50IC3vJUEtYMACKhMgDv/dj7Zb8KwSoFIIpUNZZNscABsAql6MSV8Tnc4TiewE/Ca6rJCPhAAAfcJ8Gr/zTznv+eISrHE/dpRoxcE4AB4Qd2jOnlNwMbYZjqepwNe8EgEVAsCIKAgAe78N4YMsRvP+SNySEH7OCUSHACnyCpaLsfybm4qEtaOgU8oKiLEAgEQcJFA2JAbIrnGqOFVxjoXq0VVChDAaYAKGMELEXgUIMqnCN7JDeB8L+pHnWoQwGmAatjBKymsU/2sg32wt79XFvC2XowAeMvfs9qtA4Qqi8RUHgm4lPcK4KUBuEAABHQiEDHkXOtIX3T+Oll9R13hAOhr+x7NK4rFHw2DzmYXoENzFFAfBPQgwMN+0bC4fURN6Eg9FIaWfRGAA9AXGY3ulxeKR4Swdg2U9RqpDVVBQEMCUuZExGXDq8T3NVQeKvcigDUAaBJfEKjdKHcNGfQM39gNWPQggDUAetjZ0tIgGcvJNU4dUib+rY/W0LQ/AhgB6I+OZs+qS8TyiKSDeE3Aq5qpDnVBINAEuPPfHM0x9kHnH2gzp60cHIC0kQU7Q3GxaOhqpeNZy78FW1NoBwJ6EAiH5IpovjEUJ/rpYe90tMQUQDq0NEtb1yyn8eLAP/P6gKhmqmujLqYAgmtq68s9GqL/DKs2TgqultAsGwIYAciGXsDzcpjgHYago9kJwAYhAbc11AsWAd7TP55r0PfQ+QfLrnZrgxEAu4kGsLzPm2VlVNI/SNBRAVRPa5UwAhA88/O2vs1GjnHEiFLxbvC0g0Z2EoADYCfNAJfFIYLhhma6jp2AqwKspnaqwQEIlsmjIflRpMqYiM19gmVXp7TBFIBTZANWLu8cGONNg67mCIHzWLW2gKkHdUDA1wSsN7lIWNw6vDo0Fp2/r03pqvAYAXAVdzAq48WBe3DDsaIE9g2GRvpqgREA/9veOsY3HDZOH1Yh5vhfG2jgJgE4AG7SDlBd1pRAfTP9nFX6OUcJhAKkmlaqwAHwt7kjYbkoXxqHVleLVn9rAum9IAAHwAvqAaqzrkUeRSbdz07A4ACppY0qcAD8aWpBMh6NGlfwW/8f/KkBpFaBABwAFazgcxkaG2WxGaa/shrn+lwV7cSHA+A/k4cN+VlIGEcMqxaf+E96SKwSATgAKlnD57LUNsW+FYvH787hVxOfq6KN+HAA/GNq68s6FJIPjawOfcM/UkNSlQmEVRYOsvmLwIWX/GpAVWWZ8a1zJtOY0SP8JTykBQGFCXS2b6Zb/zyTPly85DWFxYRoPiOAEQCfGUxVcU8+9+rSUCS6jEhUWDLuv884Ou/rJ9OAgnxVRYZcTAAjAKo3A0nz33yb7ph5L5mmSbwrZ2PEjI5+8cW/NKguOeRTnwBWb6tvI19IuMe+x9woSBy9TdjP19fRq28uoqKiAhoyqMYXOugoZHuXjlr7Q+e21ma66cab6YXnXyKOutkitKA8U8Sjq1e885w/tICUKhPACIDK1vGJbKd85+e7y1jofY4EiCQSea9xo+l8Hg0oKy1O9Bj3PCSAEQAP4fdVNXf2L8x5nv7+8GMJU0iSMVPQ3q8+d9fihAlwEwRSJIARgBRBIVnfBEbveSSHAYo9+kpRW9dA815fSDk5URoxbBBx2r6S4r7LBDAC4DLwJNXV166ja6+5jt5+e2GfKXmkzTAkDeNRgIf6TIQHIJACAXwTpwAJSfomMGnqL44xyHih7xQ7Ptl1xBA694yv0vChu6SaBekcJIARAAfhplF0rLuTHv7bP2ju/15NORc7Al+dO+eOZ1POgIQg0IsAHAA0iYwJnHnmmaHO/DF84pgYn04h1gDAxL3H0VmnHU/lmBZIB53taeEA2I40zQJNXuQ3n+7kRX5xa5FfGhevCviorUFMWLDgju40siEpCHxBAFMAaAwZExg18cyLeTj/W5kUYC0SfPnVdygej9Oo4YM5vhlbB2TCMds8mALIlmCG+dkJXvfZWvrVtdfTvHmvf7nIL43iuIjKSJ6sXbPinbfTyIakIPAFAYwAoDFkRKB32F9GhWzNZC0OPH3y0XTw/hOyKQZ5MyCAEYAMoGWZxVrdf9tf76KPPlyaZUmcHWGB2TPUuASMAGhs/GxU7x32l01Z7R2d9M6iJbT0k9U0ZHANFRcNyKY45E2DAEYA0oCVZdJ4rIsee+QxuvVPM6meF8baciEs0BaMuhaCEQBdLZ+F3snC/rIomiMEiPYatzudNukoGor9A7JBmVJejACkhCmrRGY8Rm+89gbdP+thisViWZWVKDPCAhNRwb1UCGAr4FQoIc0OBGTMuLmvmP9sUVn7nSz6YCm9t3gZLxQcS6dPOpqqq8qzLRb5QcB9ApIX+L01n+66c5YjHf82hTgaIBwy5W/4/5PcVxI1+pkARgD8bD0PZE837C9bEa09AyxH4IxTjqHKirJsi0P+XgQwAmB/k5Dc8S/gjv/uu2dRd5f9b/x9SYywwL7I4H5fBOAA9EUG93cikGnY304FZXAjFArRoQfuTaeccASVlhZlUAKyJCIAByARlQzvccf//qL3aCaH9HW0d2RYSObZEBaYOTtdc2IKQFfLZ6B3R97Y77PHmFbMfwbVJMxihQvOfXVBz/kCBx8wIf6NM766KhIJj0qYGDdBwEUChjC73nj1zfD9D/zd8KLj36YqfzbH5JeZ0/j/f3FRfVTlYwIIvvax8dwU3Qr7E0JOd7PORHVZi6jmvrbgTzVl4d1I0HGc5ulE6XAPBJwmEDZkc05IXDeqJpR3x8z7/uRl579NV54G+OUxx1yMRTNOGz8g5cMBCIghnVbDiORw57/lqF+n6+qvfD4VrTFkdv6a1wbIikLxQkWRmBw3aB/O8wAvIHRvwrU/IfEs0ATCIVmbG6aLRtaEiodVi19wWzTNaPiXvBq/3nPFBZV1G10/91wOCOALAlgD4AszeSukk2F/6WrGu6Ve/PQDM/6aKF9TkxweC9ElguQF7KwUJkqDezsSwBqAVFuElOEQLTRI/Gh4tfFaolyHHXehtTPmrYmeuXkPYYFu0vZ3XRgB8Lf9XJGej/r9vVNhf+koYC1yallDd/SVp7RUrKosEpe1FYpqlvcsHi1I+ZCivsrEfb0J8LF7bZGweDBkGANHVof266vztyjVlGy6nTvf970mtiUsUNzotRyoX30CGAFQ30aeSuh22F9/yvJA64lPPvCr5/pL0/tZfbMcw9ulTuUv5gv47ayi93Pd/48RgAQtgD3HaJiWCGHMGFYl/pEgRZ+3Dj122jHsNCjheCIssE8z4cFWAnAA0BT6JOBl2F9voXh+f/bs+2ec0vt+qv9fJmVOeSudYpqSV0mLY3iEAG2f4cEB+LIFWW/7/Kb/eLSbLhs0SGQ8n3/4cRfN5tbl+aY8CAtM9dtB33SYAtDX9kk1t8L+0j3qN2mhGSTgzr9bhONXZpD1iyyjhegsLxSPVhYbVuTAGC7z1/z742zKRF7/EwgZsitiyHk5UXHCrjWhghFV4rxsOn+LCK8JvIxHnbq8prNdWKDXoqB+RQngLUhRw3gtlp2n/WWrC7/J3DJ71ozLsy0nUf6GFjmOFxaeySMC5/Lz3RKlCfI9HUcAOIAkxgv6FoeEuGNopZFwQWm2NudRgFt4FODSbMvJOj9OC8waYZALwAhAkK2bhW6qhf1loUq/WXlUYHFlsbiWwwl5kIDG88jADM7wSb+Z8NB3BDgyJB4Jy0W5Ebp41xojZ0RVaG+nOn8LDsICfddEtBQYIwBamr1/pf0S9te/Fpk/5TVgorFZHiRJnMKjDyeyYzAh89LUzhnkEQCe0283BC2KCOOewZV0txWv76Y1EBboJm3UlQkBbAWcCbWA5/FL2J9TZrA2GeKyrVhv6+fqdS2yKkp0BI8OTOYHk9hrLnWqbpSbOQF+y5d8ZMQGXr3/fNigW4dUGG9mXlr2Oa2wwPWbir/L6033zL60zEvYEhZIVljg5MxLQc4gEsAIQBCtmoVOfg/7y0L1lLLy6EC4roUOYhfBGhk4kZ2CffwcUeD3EYCelfvEG/SEjAeHVtA97Lx5vvhu+4aEsMCUPlZI5BEBOAAegVex2iCF/bnFt65OFopc+kpDw6ZJtRsaLtlt5BCKRCNuVZ91PX5yAKwvq+5YF4UN8VFuTvRZdsJuG1IllI/kQFhg1s0UBThEAFMADoH1Y7Fenva3PS87wv7c4l9ZKVq4rhemTJ2+nKcHLgmFDBq8Sw2NHjWUhg0dSLvvOpzKS4vdEidY9XBDaNvcQmtWf0rvvvsevfLKGz3H7PIQ/0lzn5u5yi/KWmGBUhrHc1QAzyR5d20XFojTAr0zg1I1YwRAKXN4J4wuYX9OEWYHYDg7ACsTlV9ZXkpDBlXToF2q2Dmo7vm7qqKMDMP7IBxVRgCkGaOW5hbaUFtLKz5ZRe+99wEtWZL45Z4dgBF+cgCsNoGwwESfDNzzmgBGALy2gCL1bwn7I8+3yu057U92WZv0BOaqa2gi6+ed95Z8oZM1TbBLdWWPMzB4q2NQVVVGpUVFZI0iBPGy3jakNKmzo50a6utpzZq1tOTDZfQOv923bW4Lospf6GSFBYru7m/ygjxvP2NfnhZ4WaCBQ7mUCGAEICVMwU6ke9ifHdbtbwQgnfJDvIy9cEA+FRcV8ihBKVVaPzyC0PNTWdoznWDnyIH9IwB8JnOsm9paN9PGTU20YX09ffrpWlqxYhUtX/4JdXdlf2KzH0cArDaAsMB0PglI6wYBjAC4QVnxOnQP+1PJPPF4nDvOlp6f1Z9+vpNoloMwoCCPf/KpgH+XFBfWTfvWGT8zSPKbpSjnaYhy9urLeSvafJ5zLrEK4FGVXI5UyOv5m4S1IIHD48laqTjAumeFz1lxj9bFD7b10CY/iG+918G/uzlzCz/faG2TIAyx/rlnXzy1rm5DUUM9j3DU1VHthjp+u1dqEf5WrdT4hbBANewAKb4k4PgIQPVjskpE6XD+8hjH1e7B3zTWjmul/LuEf/d8AfHfrfw3f7FQE/9eyressdLFspvm1X5NbIDBnCOAsD972No1ApC2NJJWP3X/jOFp57Mhw2HHXbSKP6/DbCgqrSL8OgJgKYmwwLRM7fvE1b9dXmXGxeHseI/jqJU9WKHR7GyX8uemhKTo6f9IyFbu+zZyZ9zETvdS/nuJIGOxEY7Nq71yV0f7P0dGAGqeMvfnt4RzWCHr4JVx1mvHNkuy4lt03s71sBwCvmlBGcG/9/0ibZhkzZNyMQObw/AeXn+qmL/tGX5nT6An7I/EH7IvKfsSuNHPfirNo36zrxUlgIC7BF554Y4XeUHg0yqcFmiSvHm//aa9uGDBHd3uUgh2beXXf7K/pjSqvQAAEJ9JREFUYYhzuNs7zozJcRy2sqXb29b3bVP/y17R6vusPrCn/9uSWJIZM2TFjSsXCynnmIb5cMNVu9re/9nmAJQ9I4uiMTmNO/7vsBJjtnX0WZl6y5Gt45nTeP7AXF79lPyQhyvv7TbFzIZTe8KvcGVBAGF/WcBDVhDIkADCAjMEp3C2sunLikJ54Wn8svsd7vDHWKL29O/ZdIRbHAfu+8R4Q4Yur7xxxYdc4r2m6JzZcNUYW/q/rJcbD35WllU/KWdEumkVa/tb1rdHeScuBjrWqiMsaDXXee3QpyW2ZM0QtBX2xzveTs8wu73ZBN361D3XWVM/uEAg8ATmzrl7OSvpyCmE6cLjd6xfHnPMxeXp5kP6LQSKfr+mrPLGlTO4819l9U3bOn9n+Iie/s+QOasrb1h5bfENq7Pu/zJ3APhVv2a2PL+7Uy7hTv+arUMYzujdq1SrLv6Z3hmn5VVPyEtousxcD1ckVq8SlU77yw3TdeoRgkQg4BwB0dU1Q5Ksd66GFEv+MiwwxQxI1kOA+7/KG1acH+2OW+vVruGOOevOOHWyXBf3f1GKL6+4YUVW/V9GHWflk3LXmtn0Cg93zOJRisrUBbc3JTsBZbyXyh+q96OXKx+Xo+wtPbilWWF/bLsfqKAhf45+8ejdMxpVkAUygIBbBObOnbWRP4PXulVff/VIIX94yAkXWou0caVAoPL6j3fluflX+G1/Fo9Ke9b/cf1l3P/+oSJv5cuVN63OqP9L2wEYOFuexqFAbzOng1Ng5UoSNsIhobBcWP2EPNuVCn1eCcL+fG5AiB8IAlZYII8CvO+1MltOCxTWaYG4khCoumHlaSRCb3PHq1D/Jw6huLmQnZK0+7/UHQAeZudFeLfwau3HucPtiS9W6xKFwqCHeW3A7zEl0LdlrLA/Hjk5ue8U7j0xTPOyuXNnZL8zjHsioyYQsI3Ao48+GpemocaOfIImHXH8tBNtUy5oBXH/x0P+t0hBj/Obt3r9n6BC7pcfZhnT6v9ScgDGPiKjNfvRg1zBparblTu3y2v2pQdopvTPkWwuQbXC/gyFwv6eRNifS5ZHNaoSsMICeSrgaRXk2xoWiO/N3saY/kG0Mm/lg9zxK9//sYyXs6zc/81PyY5JHQCr82/IoX8xk3N6c1H2/4LOrRnIMsMJ2MFEVtgfL1YZ77XdeBSpW4TjV3otB+oHARUIWGGB7AR4voUiv+CNyS8zp6nARBkZejr/fO7/hH/6PxLnVjaVcf+X3Ano3wHgFVrc+d/Jb9UnKWOQ1AU5mZ2AWZgO2AIMYX+pNxykBAE3CSAs0E3aadTF/V9FXsGd3Pn7sP8TJ7MTkLT/69cBqJ5NN3Pnf34ayFRLek71vvQb1YTyQh6E/XlBHXWCQGoEEBaYGic3U3F8/808KuLj/k+cU5G7qt/+r08HgLfgPdMPc/7JGgQ7MFdUPSl9NHyTTKP0nyPsL31myAECbhJAWKCbtJPXxYvpzvTFnH8SVaz+r+L6lX32fwkdgJ6YekE89BGMi8MWb6t6Wo4Mhjbpa4Gwv/SZIQcIuE0AYYFuE09cX09MvRCB6f84Ou62qhtWJ+z/dnYAeN4jFKb7GY11bGhQrmIRp/us3ZuColCqeiDsL1VSSAcC3hJQLSzwsGMvPMFbIv+/vbOLjeq44vjMXX8TgzFrg1ul2KbFAZomtFSqVNUJVckTYEilKOKFNgRQpapNKwy2VAWRFxISQdTmpaGlaRTxECUtoigvVK2CVakPtEkpJDgVONA23vWu18Z2/bm70zOLbTC7Xu7eO7t37tz/Shbm7p2Zc35n4X/u7JwZD0YnjRCplHH6R0cL5dS/rASg8Q9iD2HXZpMDVR8Bmgr51qqzfv4+p3ASsuyPC+tE4S3Vt5Cn/aHsTz1X9GgWAZ3KApnFT9BpgbbKyUyJQvjF63t02uRHGVfSv4aX+rLWMyxIAOTBPnTs7lFlg+rWERfHVv9e6LeJQ5E4ZU774+zhInVvu1uU/dlGhRtBgGafURboxcdAHuzDmGWs/tHkxrFlJ/oW6N+C44BnptlzlP2EvYBfmjF5Y7j3z0OP7NbjELzS+KzBKDjtT4MgwAS/EJBlge1b9srTAj3feIb04LX2J/a+5hd2buyMfXKBxVu+6aYLrdvSw2Bj+aT4ERn5wpyh8zMA9e+JpbQZxQ+19kCBcdEvfoOlyioV9IQu7BAQQiRw2p8dUrgHBO4Q0KYsMCBBSYcq2NCDXzPeW1oE9+MVL31cO+fofAJQkRT7KEMo4ZGG3rBOVlSzWOtXvRk8gKPitL8ABh0uuyagU1mga2d80MHw5zfSg2GVDyx1aaI8QVBU7Z3r5c4aAMF3u+zaN81jzUgAShEswdjHozfZ66UYC2OAgGkEdCkLNI1rLn+Gm76S67KR1zjLLPTPvDIJwKqz6a9T3b/ne8TPGVXsPydqG9h4XVOxhwl8/zjtL/AfAQBwQUCrskAXfujedKK2iU0tadDdTIX28fXho30bZYeZBICmaRfdKUjhqFp1FX/Q88XxWvFQbQzK/lQTRX9BJKBVWaChARhZtcFQz/K6tUu+m0kAOBdP5L3VwDdHGlsN9EoPl1D2p0ccYIUZBHQpCzSDZrYXY/Ut2ReNvyK+I120Vr4rGpng64339x4Hx5etZMnKmqC5XRp/UfZXGs4YJRAEdDot0DTgqYoaNl1jcOX7IgGjaoBHml65GrZ4BWun7/8Dt0UuTXuw0RWrF8GDy04JoOzPKTm0A4HFCaAscHE2bt4Zr/uCnAJ304U/29IGD8lkZbsl0sFZ/HdvpCaWNt57CX93SQBlfy4BojkI5CCAssAcUBRcCtbiv4XABBMbLEp+2hRw9GUXE7UrfGm3rkaj7E/XyMAuEwigLFB9FKdqgqsBtO1/m0ULtr6kHqs/epxEAqA0UCj7U4oTnYHAAgIoC1T/gZiuMX7vu8Whcb5WVgEEbwXELJIkLQDBSw0BlP2p4YheQCAfAZQF5qNT+Hup8uBqAK3XCssEYH5f4MLx+bsFzgRQEz+U/anhiF5AwA4BlAXaoWTvHnkGQHBfvNai9f8PBBVAqjzIwVcYdZT9KYSJrkAgPwGUBebnU8i76bJAawAlAHiBgAsCKPtzAQ9NQcAhAZQFOgSHZgsIWHQE8FhQmYRmpoPqujK/UfanDCU6AgHbBFAWaBtV3hutZKA1YFTOAIzmJWTwm6HklMHeFd81evr/CKf9FZ8zRgCBXARQFpiLSmHXrFSQEwCRSQDihSEz5+6y6XFznPHAE6oh/en77x9JejA0hgSBwBOQZYE0g/tc4EG4ABCaCa4G0GaAcbkR0Ccu+Pm6adXooK/t99J4lP15SR9jg8BtAj3nf/UnSgLOgYczApXjCWcNDWhFG7f1yhmAXgN8ceRC9VhgJz8c8ZprhLI/V/jQGASUEkBZoHOc5QFOAJgQmQTgsnN8/m5ZPRLztwNeWY+yP6/IY1wQyCKAssAsJLYvVI0FVwNoD4ArlphhPTSFRLMBwXpxcrk2fiNYTivwFmV/CiCiCxBQTABlgc6A1ty6yehJ2FljX7cS6VD5VI8V/S4fID+u+NoXB8ZXD0dY2VRwF4A4QJZpgrI/p+TQDgSKRwBlgc7YhmgheOV4IL8K/kf/gYfimY2AKP857wyff1stG7juX+M9shxlfx6Bx7AgYIMAygJtQMpxy5JEX46rZl8SjP9RephJAOhYwNNmu5vt3Yp//zP7Iq7kJYCyv7x48CYIeEoAZYHO8C+NBm8ZHLdua34mAYjs4BdpGiAwFKpHY6yGvgLAyz4BlP3ZZ4U7QcArAigLLJx89UiEVf4vSIsBxUexgy0fSlKZBCDz4uK3878b/kvDp3833EO17qHsTy1P9AYCxSSAssDC6db1Xyq8kU9b0PT/r+dMn08AZtL8l/Qf/ZBPfbJtdtn0BGu4jgTANjB5I8r+CsKFm0HASwIoCyycft1/P2Ch5GThDf3WQoiE4JMn58yeTwAGd3B5JsAv/OZPofau+tdfKdA4A8AuN5T92SWF+0BAHwIoCywsFvJMgPr/XCyskQ/vFpy9Onho3fz5P2V3+1AZYq9OpcQPaI/gBh/6ZsNkEb22ZnPbxe5v37JxM24BARAAAV8SyJQFMmbo/+PFCcmyoz9bXs7SvdxQblTtF6XDI35+N707awDo6s2tfIgJ3lUcvFr02jn0FIf4axEKGAECIAAC+hC41b2a9I8Zq3+ci86hrjUL9G9BAiBDEe1gv6FM4S/6hEWNJeTThcg2/paa3tALCIAACICAaQTiXc2kf8I4/aM4XaCV/1n6l5UAMEoT0km2mxoY86RM4j8sLPZ96ZtpH1j4AwIgAAIgoIgAaQS3QkbpH23fOsyFlVP/shMA4hh7kl+jld/PKkLqeTck+3sGtnJs/ed5JGAACIAACOhNIHZw9TXG0sboHz347hnoXp1T/3ImADI8NF3+DpUFHtc7VLasOxbp4L+zdSduAgEQAAEQCDyBWNead+jJ2ff6Rxp+LNbVsqj+LZoAyE9AdDs7QH+84dtPA21xHPkb6/at/TAcBEAABEDAEwIknAdoPcAbngyuZFBxOj7ZnFf/8iYA8jvzSD/bR1nEe0rsKW0n5yIR9j12hKdLOyxGAwEQAAEQ8D0B0r/48sQ+Oi7Pf/on2LnY8sR99S9/AiAjuJ/PRJeyDvrtlF8CSiv93qLE5Ulpu19shp0gAAIgAAKaEdi/aSY2cYP0T/hK/2L1g6R/m+6rfws2AloU/WaejAjx7MqzLMF55msBPV80X0OLF1+ObqNaTqz41zNGsAoEQAAE/ETgyOZkjPQv/OKnmusf7dvK+MtUykj612Kr4u3+MwBzgSJBjXbwTtolaaeWZwYINkIePx3Zzg9B/P30rwu2ggAIgIDmBOTXAd0tnfQAvJNmA3Q8M2eEtvl9mmwsSP/sJwCz8enfzs+IENtESUCPLiGTm/zQz6OUoLyti02wAwRAAARAwCwCA4daznAR2kRzzdroHxG+YIX4o/Gu1oL1r+AEQIZT1tRThcBjNN1OGyaIAa9CTElIgmr899OU/+Mk/n1e2YFxQQAEQAAEgkFA1tTHupofozLB3aRBnukfjZ+gSf/9sUPNj0c7mx3pn6MEIBNmWSGwjb9ZmeJt9LfDUoxLFX562h+kDOz56SnW2t/BX8eUf6nIYxwQAAEQAAGpObHu1jdnqlgbifBhKcalokJL3Qbp5/kkF63x7lZX+mdvEWAez27s5PLUqRca3hbHQ1VMlkw8Q9nBhjxNnL8l2GWadTiVnmQnY0/xMecdoSUIgAAIgAAIuCNw6yctt/Xv8OXjonrJPkoEnqHTdIuif/Tge5kefE/xyfGTsSNfVqJ/rhOAOXyzgix3Tjr+uTNiY4qzXbRgcAsJ9sN0zelMQ5qyq0uc8fNWiJ3+bCv/0F240BoEQAAEQAAE1BKYFeSM/oWP9m2kP3eR9m3hTJD+cYf6J0j/2CWabThPPZyOH2xRrn/KEoC7cX62g39Af5c/rOmsCJMT7QRjPWUv6wQXa+l7+3oqV6ijaw9k2gk2RqCGaRVjgo4j7qWVllfp54pcaBHpsOJ3943fQQAEQAAEQEBXArQS/47+vXI1nExWttOD7HrStHWkb2tJA+tJA0n/+Kz+iTHSPjqwh9PXCKKXnvSvWoxfCZVP9/QfeKio+vd/wmTZ9bFKAN8AAAAASUVORK5CYII=;spacingBottom=10;" parent="2HPoQdIpM-jfSS1lZp4g-35" vertex="1">
          <mxGeometry x="90" width="52" height="52" as="geometry" />
        </mxCell>
        <mxCell id="2HPoQdIpM-jfSS1lZp4g-42" value="Points predictor" style="text;html=1;align=center;verticalAlign=middle;whiteSpace=wrap;rounded=0;" parent="2HPoQdIpM-jfSS1lZp4g-43" vertex="1">
          <mxGeometry x="69.99" width="93.34" height="30" as="geometry" />
        </mxCell>
        <mxCell id="2HPoQdIpM-jfSS1lZp4g-45" style="edgeStyle=orthogonalEdgeStyle;rounded=0;orthogonalLoop=1;jettySize=auto;html=1;entryX=0.001;entryY=0.503;entryDx=0;entryDy=0;entryPerimeter=0;" parent="1" source="7rwIcCHh1IAPN4iYdqem-43" target="2HPoQdIpM-jfSS1lZp4g-38" edge="1">
          <mxGeometry relative="1" as="geometry">
            <Array as="points">
              <mxPoint x="880" y="204" />
              <mxPoint x="880" y="259" />
            </Array>
          </mxGeometry>
        </mxCell>
      </root>
    </mxGraphModel>
  </diagram>
</mxfile>
